<svg xmlns="http://www.w3.org/2000/svg" width="160" height="160" viewBox="0 0 160 160" xmlns:xlink="http://www.w3.org/1999/xlink">
  <defs>
    <linearGradient id="a" x1="50%" x2="50%" y1="100%" y2="1.937%">
      <stop stop-color="#498FCA" offset="0%"/>
      <stop stop-color="#7CBFF8" offset="100%"/>
    </linearGradient>
    <path id="c" d="M101.716518,48.248325 C102.35826,48.248325 102.972097,48.373885 103.558035,48.625 C104.478795,48.9877225 105.211218,49.55971 105.755302,50.34096 C106.299385,51.12221 106.571427,51.987165 106.571427,52.935825 L106.571427,106.883928 C106.571427,107.83259 106.299385,108.697545 105.755302,109.478795 C105.211218,110.260045 104.478795,110.832033 103.558035,111.194755 C103.027903,111.41797 102.414062,111.529575 101.716518,111.529575 C100.377233,111.529575 99.2193075,111.083148 98.242745,110.19029 L79.785715,92.444755 L61.3286825,110.19029 C60.32422,111.11105 59.166295,111.571428 57.85491,111.571428 C57.21317,111.571428 56.59933,111.44587 56.0133925,111.194755 C55.092635,110.832033 54.3602125,110.260045 53.8161275,109.478795 C53.2720425,108.697545 53,107.83259 53,106.883928 L53,52.935825 C53,51.987165 53.2720425,51.12221 53.8161275,50.34096 C54.3602125,49.55971 55.092635,48.9877225 56.0133925,48.625 C56.59933,48.373885 57.21317,48.248325 57.85491,48.248325 L101.716518,48.248325 Z"/>
    <filter id="b" width="200%" height="200%" x="-50%" y="-50%" filterUnits="objectBoundingBox">
      <feOffset dy="4" in="SourceAlpha" result="shadowOffsetOuter1"/>
      <feGaussianBlur stdDeviation="2" in="shadowOffsetOuter1" result="shadowBlurOuter1"/>
      <feColorMatrix values="0 0 0 0 0 0 0 0 0 0 0 0 0 0 0 0 0 0 0.1 0" in="shadowBlurOuter1"/>
    </filter>
  </defs>
  <g fill="none" fill-rule="evenodd">
    <rect width="160" height="160" fill="url(#a)" rx="80"/>
    <use fill="black" filter="url(#b)" xlink:href="#c"/>
    <use fill="#FFFFFF" xlink:href="#c"/>
  </g>
</svg>
