<svg xmlns="http://www.w3.org/2000/svg" width="160" height="160" viewBox="0 0 160 160" xmlns:xlink="http://www.w3.org/1999/xlink">
  <defs>
    <linearGradient id="a" x1="50%" x2="50%" y1="100%" y2="1.937%">
      <stop stop-color="#498FCA" offset="0%"/>
      <stop stop-color="#7CBFF8" offset="100%"/>
    </linearGradient>
    <path id="c" d="M42.4010745,16.803235 C42.4010745,21.1293826 40.8584239,24.8288423 37.7731193,27.9016175 C34.6878182,30.9743964 30.987469,32.510784 26.672079,32.510784 C22.3566852,32.510784 18.6563397,30.9743964 15.571035,27.9016175 C12.485734,24.8288423 10.9430798,21.1293826 10.9430798,16.803235 C10.9430798,12.4366587 12.485734,8.71698113 15.571035,5.64420589 C18.6563397,2.57143064 22.3566852,1.03504302 26.672079,1.03504302 C30.987469,1.03504302 34.6878182,2.57143064 37.7731193,5.64420589 C40.8584239,8.71698113 42.4010745,12.4366587 42.4010745,16.803235 Z"/>
    <filter id="b" width="200%" height="200%" x="-50%" y="-50%" filterUnits="objectBoundingBox">
      <feOffset dy="2" in="SourceAlpha" result="shadowOffsetOuter1"/>
      <feGaussianBlur stdDeviation="2.5" in="shadowOffsetOuter1" result="shadowBlurOuter1"/>
      <feColorMatrix values="0 0 0 0 0 0 0 0 0 0 0 0 0 0 0 0 0 0 0.1 0" in="shadowBlurOuter1"/>
    </filter>
    <path id="e" d="M39.4972611,30.1455541 C41.3524767,30.1455541 43.016119,30.4892196 44.4881916,31.1765506 C45.9602642,31.8638817 47.1701891,32.8241244 48.1179628,34.0572788 C49.0657329,35.2904332 49.8622687,36.6448809 50.5075594,38.1206219 C51.15285,39.5963629 51.6368207,41.2338294 51.9594679,43.0330216 C52.2821114,44.8322101 52.5140165,46.5000018 52.6551724,48.0363894 C52.7963318,49.5727771 52.8669098,51.1698113 52.8669098,52.8274958 C52.8669098,55.5363912 52.0703776,57.9319426 50.4773096,60.0141537 C48.8842452,62.0963611 46.7568,63.1374684 44.0949665,63.1374684 L9.2491878,63.1374684 C6.58735795,63.1374684 4.45990905,62.0963611 2.86684468,60.0141537 C1.27378032,57.9319426 0.477248136,55.5363912 0.477248136,52.8274958 C0.477248136,50.8867925 0.567993773,48.9966322 0.749481432,47.1570113 C0.930969091,45.3173869 1.30403007,43.3261476 1.86866075,41.18329 C2.43329143,39.0404323 3.16932773,37.1907007 4.07676964,35.6340987 C4.98421155,34.0774931 6.25462877,32.7735849 7.88802493,31.722374 C9.52142109,30.6711595 11.4068828,30.1455541 13.5444138,30.1455541 L13.8468968,30.1455541 C14.1292122,30.3072797 14.7745028,30.7014847 15.7827724,31.3281691 C16.791042,31.9548534 17.5069142,32.3793799 17.9303854,32.6017522 C18.3538602,32.8241244 19.019315,33.1677899 19.9267569,33.6327523 C20.8341988,34.0977111 21.5803208,34.4211623 22.1651155,34.6031022 C22.7499103,34.7850421 23.4557005,34.966982 24.2824824,35.148922 C25.1092607,35.3308655 25.9057929,35.4218337 26.672079,35.4218337 C27.4383614,35.4218337 28.2348972,35.3308655 29.0616755,35.148922 C29.8884574,34.966982 30.594244,34.7850421 31.1790424,34.6031022 C31.7638371,34.4211623 32.5099555,34.0977111 33.4173974,33.6327523 C34.3248393,33.1677899 34.9902977,32.8241244 35.4137725,32.6017522 C35.8372437,32.3793799 36.5531159,31.9548534 37.5613855,31.3281691 C38.5696551,30.7014847 39.2149457,30.3072797 39.4972611,30.1455541 Z"/>
    <filter id="d" width="200%" height="200%" x="-50%" y="-50%" filterUnits="objectBoundingBox">
      <feOffset dy="2" in="SourceAlpha" result="shadowOffsetOuter1"/>
      <feGaussianBlur stdDeviation="2.5" in="shadowOffsetOuter1" result="shadowBlurOuter1"/>
      <feColorMatrix values="0 0 0 0 0 0 0 0 0 0 0 0 0 0 0 0 0 0 0.1 0" in="shadowBlurOuter1"/>
    </filter>
  </defs>
  <g fill="none" fill-rule="evenodd">
    <rect width="160" height="160" fill="url(#a)" rx="80"/>
    <g transform="translate(54 48)">
      <use fill="black" filter="url(#b)" xlink:href="#c"/>
      <use fill="#FFFFFF" xlink:href="#c"/>
      <g>
        <use fill="black" filter="url(#d)" xlink:href="#e"/>
        <use fill="#FFFFFF" xlink:href="#e"/>
      </g>
    </g>
  </g>
</svg>
