<?xml version="1.0" encoding="UTF-8" standalone="no"?>
<svg width="101px" height="23px" viewBox="0 0 101 23" version="1.1" xmlns="http://www.w3.org/2000/svg" xmlns:xlink="http://www.w3.org/1999/xlink">
    <g stroke="none" stroke-width="1" fill="none" fill-rule="evenodd">
        <g transform="translate(-113.000000, -62.000000)">
            <g id="Group-22" transform="translate(113.000000, 62.000000)">
                <path d="M49.256,22.216 L35,22.216 L35,19.336 L45.044,7.6 L35.288,7.6 L35.288,4.576 L49.112,4.576 L49.112,7.456 L39.068,19.192 L49.256,19.192 L49.256,22.216 Z M59.984,22.792 C57.391987,22.792 55.2560084,21.9040089 53.576,20.128 C51.8959916,18.3519911 51.056,16.1080136 51.056,13.396 C51.056,10.7079866 51.8719918,8.47000894 53.504,6.682 C55.1360082,4.89399106 57.2239873,4 59.768,4 C62.3840131,4 64.4659923,4.84599154 66.014,6.538 C67.5620077,8.23000846 68.336,10.5999848 68.336,13.648 L68.3,14.008 L54.44,14.008 C54.4880002,15.7360086 55.0639945,17.1279947 56.168,18.184 C57.2720055,19.2400053 58.5919923,19.768 60.128,19.768 C62.2400106,19.768 63.895994,18.7120106 65.096,16.6 L68.048,18.04 C67.255996,19.5280074 66.158007,20.6919958 64.754,21.532 C63.349993,22.3720042 61.7600089,22.792 59.984,22.792 L59.984,22.792 Z M54.692,11.272 L64.808,11.272 C64.7119995,10.0479939 64.2140045,9.03400402 63.314,8.23 C62.4139955,7.42599598 61.2080076,7.024 59.696,7.024 C58.4479938,7.024 57.3740045,7.40799616 56.474,8.176 C55.5739955,8.94400384 54.9800014,9.97599352 54.692,11.272 L54.692,11.272 Z M74.672,22.216 L71.36,22.216 L71.36,4.576 L74.528,4.576 L74.528,7.456 L74.672,7.456 C75.0080017,6.51999532 75.6979948,5.7220033 76.742,5.062 C77.7860052,4.4019967 78.811995,4.072 79.82,4.072 C80.7800048,4.072 81.5959966,4.21599856 82.268,4.504 L81.26,7.708 C80.851998,7.53999916 80.2040044,7.456 79.316,7.456 C78.0679938,7.456 76.9820046,7.95999496 76.058,8.968 C75.1339954,9.97600504 74.672,11.1519933 74.672,12.496 L74.672,22.216 Z M82.34,13.396 C82.34,10.6839864 83.1919915,8.44000888 84.896,6.664 C86.6240086,4.88799112 88.7959869,4 91.412,4 C94.0280131,4 96.1879915,4.88799112 97.892,6.664 C99.6200086,8.44000888 100.484,10.6839864 100.484,13.396 C100.484,16.1320137 99.6200086,18.3759912 97.892,20.128 C96.1879915,21.9040089 94.0280131,22.792 91.412,22.792 C88.7959869,22.792 86.6240086,21.9040089 84.896,20.128 C83.1919915,18.3519911 82.34,16.1080136 82.34,13.396 L82.34,13.396 Z M85.652,13.396 C85.652,15.2920095 86.2039945,16.8279941 87.308,18.004 C88.4120055,19.1800059 89.7799918,19.768 91.412,19.768 C93.0440082,19.768 94.4119945,19.1800059 95.516,18.004 C96.6200055,16.8279941 97.172,15.2920095 97.172,13.396 C97.172,11.5239906 96.6200055,10.0000059 95.516,8.824 C94.3879944,7.623994 93.020008,7.024 91.412,7.024 C89.803992,7.024 88.4360056,7.623994 87.308,8.824 C86.2039945,10.0000059 85.652,11.5239906 85.652,13.396 L85.652,13.396 Z"
                    fill="#000000"/>
                <path d="M18.1608442,13.9075203 C18.1608442,18.9123626 14.1045974,22.9695405 9.10097171,22.9695405 C4.09729087,22.9695405 0.041706075,18.9123626 0.041706075,13.9075203 C0.041706075,8.90317455 4.09729087,4.84594144 9.10097171,4.84594144 C14.1045974,4.84594144 18.1608442,8.90317455 18.1608442,13.9075203"
                    fill="#007EE7"/>
                <path d="M22.7775853,3.66701689 C22.7775853,5.56626351 21.2377154,7.10601126 19.3389856,7.10601126 C17.4402007,7.10601126 15.9013238,5.56626351 15.9013238,3.66701689 C15.9013238,1.76760473 17.4402007,0.228077703 19.3389856,0.228077703 C21.2377154,0.228077703 22.7775853,1.76760473 22.7775853,3.66701689"
                     fill="#000000"/>
            </g>
        </g>
    </g>
</svg>