<?xml version="1.0" encoding="UTF-8" standalone="no"?>
<svg width="412px" height="213px" viewBox="0 0 412 213" version="1.1" xmlns="http://www.w3.org/2000/svg"
     xmlns:xlink="http://www.w3.org/1999/xlink">
  <defs>
    <path
        d="M181,201 L8.99860401,201 C4.02881224,201 0,196.962268 0,192.005787 L0,8.99421308 C0,4.02684636 4.02383422,0 8.99860401,0 L181,0 C181,9.9411255 189.058875,18 199,18 C208.941125,18 217,9.9411255 217,0 L391.001396,0 C395.971188,0 400,4.03773217 400,8.99421308 L400,192.005787 C400,196.973154 395.976166,201 391.001396,201 L217,201 C217,191.058875 208.941125,183 199,183 C189.058875,183 181,191.058875 181,201 Z"
        id="path-1"/>
    <filter x="-50%" y="-50%" width="200%" height="200%" filterUnits="objectBoundingBox" id="filter-2">
      <feOffset dx="0" dy="2" in="SourceAlpha" result="shadowOffsetOuter1"/>
      <feGaussianBlur stdDeviation="3" in="shadowOffsetOuter1" result="shadowBlurOuter1"/>
      <feColorMatrix values="0 0 0 0 0   0 0 0 0 0   0 0 0 0 0  0 0 0 0.1 0" type="matrix" in="shadowBlurOuter1"/>
    </filter>
  </defs>
  <g id="Page-1" stroke="none" stroke-width="1" fill="none" fill-rule="evenodd">
    <g id="Artboard-1" transform="translate(-478.000000, -851.000000)">
      <g id="Group-21" transform="translate(484.000000, 855.000000)">
        <g id="Combined-Shape-Copy">
          <use fill="black" fill-opacity="1" filter="url(#filter-2)" xlink:href="#path-1"/>
          <use fill="#FFFFFF" fill-rule="evenodd" xlink:href="#path-1"/>
        </g>
        <path
            d="M77.332,138.416 C77.865336,138.416 78.302665,138.506666 78.644,138.688 L78.244,139.984 C77.9879987,139.855999 77.7000016,139.792 77.38,139.792 C77.0173315,139.792 76.7213345,139.917332 76.492,140.168 C76.2626655,140.418668 76.148,140.751998 76.148,141.168 L76.148,142.16 L78.196,142.16 L78.196,143.504 L76.148,143.504 L76.148,150 L74.676,150 L74.676,143.504 L73.204,143.504 L73.204,142.16 L74.676,142.16 L74.676,141.024 C74.676,140.245329 74.9239975,139.616002 75.42,139.136 C75.9160025,138.655998 76.5533294,138.416 77.332,138.416 L77.332,138.416 Z M79.156,146.08 C79.156,144.874661 79.5346629,143.877337 80.292,143.088 C81.0600038,142.298663 82.0253275,141.904 83.188,141.904 C84.3506725,141.904 85.3106629,142.298663 86.068,143.088 C86.8360038,143.877337 87.22,144.874661 87.22,146.08 C87.22,147.296006 86.8360038,148.293329 86.068,149.072 C85.3106629,149.861337 84.3506725,150.256 83.188,150.256 C82.0253275,150.256 81.0600038,149.861337 80.292,149.072 C79.5346629,148.282663 79.156,147.285339 79.156,146.08 L79.156,146.08 Z M80.628,146.08 C80.628,146.922671 80.8733309,147.605331 81.364,148.128 C81.8546691,148.650669 82.462663,148.912 83.188,148.912 C83.913337,148.912 84.5213309,148.650669 85.012,148.128 C85.5026691,147.605331 85.748,146.922671 85.748,146.08 C85.748,145.247996 85.5026691,144.570669 85.012,144.048 C84.5106642,143.514664 83.9026702,143.248 83.188,143.248 C82.4733298,143.248 81.8653358,143.514664 81.364,144.048 C80.8733309,144.570669 80.628,145.247996 80.628,146.08 L80.628,146.08 Z M90.036,150 L88.564,150 L88.564,142.16 L89.972,142.16 L89.972,143.44 L90.036,143.44 C90.1853341,143.023998 90.4919977,142.669335 90.956,142.376 C91.4200023,142.082665 91.8759978,141.936 92.324,141.936 C92.7506688,141.936 93.1133318,141.999999 93.412,142.128 L92.964,143.552 C92.7826658,143.477333 92.4946686,143.44 92.1,143.44 C91.5453306,143.44 91.0626687,143.663998 90.652,144.112 C90.2413313,144.560002 90.036,145.082664 90.036,145.68 L90.036,150 Z M99.364,138.544 L99.364,150 L97.892,150 L97.892,138.544 L99.364,138.544 Z M104.676,150.256 C103.523994,150.256 102.57467,149.861337 101.828,149.072 C101.08133,148.282663 100.708,147.285339 100.708,146.08 C100.708,144.885327 101.070663,143.890671 101.796,143.096 C102.521337,142.301329 103.449328,141.904 104.58,141.904 C105.742672,141.904 106.667997,142.279996 107.356,143.032 C108.044003,143.784004 108.388,144.837327 108.388,146.192 L108.372,146.352 L102.212,146.352 C102.233333,147.120004 102.489331,147.738664 102.98,148.208 C103.470669,148.677336 104.05733,148.912 104.74,148.912 C105.678671,148.912 106.414664,148.442671 106.948,147.504 L108.26,148.144 C107.907998,148.805337 107.420003,149.322665 106.796,149.696 C106.171997,150.069335 105.465337,150.256 104.676,150.256 L104.676,150.256 Z M102.324,145.136 L106.82,145.136 C106.777333,144.591997 106.556002,144.141335 106.156,143.784 C105.755998,143.426665 105.220003,143.248 104.548,143.248 C103.993331,143.248 103.516002,143.418665 103.116,143.76 C102.715998,144.101335 102.452001,144.559997 102.324,145.136 L102.324,145.136 Z M115.732,147.824 C115.732,148.50667 115.433336,149.082664 114.836,149.552 C114.238664,150.021336 113.486671,150.256 112.58,150.256 C111.790663,150.256 111.097336,150.050669 110.5,149.64 C109.902664,149.229331 109.476001,148.688003 109.22,148.016 L110.532,147.456 C110.724001,147.925336 111.003998,148.290665 111.372,148.552 C111.740002,148.813335 112.142664,148.944 112.58,148.944 C113.049336,148.944 113.441332,148.842668 113.756,148.64 C114.070668,148.437332 114.228,148.197335 114.228,147.92 C114.228,147.418664 113.844004,147.050668 113.076,146.816 L111.732,146.48 C110.206659,146.095998 109.444,145.360005 109.444,144.272 C109.444,143.55733 109.734664,142.984002 110.316,142.552 C110.897336,142.119998 111.641329,141.904 112.548,141.904 C113.241337,141.904 113.867997,142.069332 114.428,142.4 C114.988003,142.730668 115.379999,143.173331 115.604,143.728 L114.292,144.272 C114.142666,143.941332 113.900002,143.682668 113.564,143.496 C113.227998,143.309332 112.852002,143.216 112.436,143.216 C112.051998,143.216 111.708002,143.311999 111.404,143.504 C111.099998,143.696001 110.948,143.930665 110.948,144.208 C110.948,144.656002 111.369329,144.975999 112.212,145.168 L113.396,145.472 C114.953341,145.856002 115.732,146.639994 115.732,147.824 L115.732,147.824 Z M123.012,147.824 C123.012,148.50667 122.713336,149.082664 122.116,149.552 C121.518664,150.021336 120.766671,150.256 119.86,150.256 C119.070663,150.256 118.377336,150.050669 117.78,149.64 C117.182664,149.229331 116.756001,148.688003 116.5,148.016 L117.812,147.456 C118.004001,147.925336 118.283998,148.290665 118.652,148.552 C119.020002,148.813335 119.422664,148.944 119.86,148.944 C120.329336,148.944 120.721332,148.842668 121.036,148.64 C121.350668,148.437332 121.508,148.197335 121.508,147.92 C121.508,147.418664 121.124004,147.050668 120.356,146.816 L119.012,146.48 C117.486659,146.095998 116.724,145.360005 116.724,144.272 C116.724,143.55733 117.014664,142.984002 117.596,142.552 C118.177336,142.119998 118.921329,141.904 119.828,141.904 C120.521337,141.904 121.147997,142.069332 121.708,142.4 C122.268003,142.730668 122.659999,143.173331 122.884,143.728 L121.572,144.272 C121.422666,143.941332 121.180002,143.682668 120.844,143.496 C120.507998,143.309332 120.132002,143.216 119.716,143.216 C119.331998,143.216 118.988002,143.311999 118.684,143.504 C118.379998,143.696001 118.228,143.930665 118.228,144.208 C118.228,144.656002 118.649329,144.975999 119.492,145.168 L120.676,145.472 C122.233341,145.856002 123.012,146.639994 123.012,147.824 L123.012,147.824 Z M130.916,150.128 C130.275997,150.128 129.745335,149.930669 129.324,149.536 C128.902665,149.141331 128.686667,148.592004 128.676,147.888 L128.676,143.504 L127.3,143.504 L127.3,142.16 L128.676,142.16 L128.676,139.76 L130.148,139.76 L130.148,142.16 L132.068,142.16 L132.068,143.504 L130.148,143.504 L130.148,147.408 C130.148,147.930669 130.249332,148.285332 130.452,148.472 C130.654668,148.658668 130.883999,148.752 131.14,148.752 C131.257334,148.752 131.371999,148.738667 131.484,148.712 C131.596001,148.685333 131.7,148.650667 131.796,148.608 L132.26,149.92 C131.875998,150.058667 131.428003,150.128 130.916,150.128 L130.916,150.128 Z M133.476,138.544 L134.948,138.544 L134.948,142.16 L134.884,143.248 L134.948,143.248 C135.172001,142.863998 135.515998,142.544001 135.98,142.288 C136.444002,142.031999 136.926664,141.904 137.428,141.904 C138.388005,141.904 139.126664,142.178664 139.644,142.728 C140.161336,143.277336 140.42,144.058662 140.42,145.072 L140.42,150 L138.948,150 L138.948,145.36 C138.948,143.951993 138.324006,143.248 137.076,143.248 C136.478664,143.248 135.974669,143.495998 135.564,143.992 C135.153331,144.488002 134.948,145.066663 134.948,145.728 L134.948,150 L133.476,150 L133.476,138.544 Z M143.22,147.6 C143.22,147.984002 143.382665,148.303999 143.708,148.56 C144.033335,148.816001 144.414664,148.944 144.852,148.944 C145.47067,148.944 146.022664,148.714669 146.508,148.256 C146.993336,147.797331 147.236,147.25867 147.236,146.64 C146.777331,146.277332 146.137337,146.096 145.316,146.096 C144.718664,146.096 144.220002,146.239999 143.82,146.528 C143.419998,146.816001 143.22,147.173331 143.22,147.6 L143.22,147.6 Z M145.124,141.904 C146.212005,141.904 147.070664,142.194664 147.7,142.776 C148.329336,143.357336 148.644,144.154662 148.644,145.168 L148.644,150 L147.236,150 L147.236,148.912 L147.172,148.912 C146.563997,149.808004 145.753338,150.256 144.74,150.256 C143.875996,150.256 143.153336,150.000003 142.572,149.488 C141.990664,148.975997 141.7,148.336004 141.7,147.568 C141.7,146.757329 142.006664,146.112002 142.62,145.632 C143.233336,145.151998 144.051995,144.912 145.076,144.912 C145.950671,144.912 146.670664,145.071998 147.236,145.392 L147.236,145.056 C147.236,144.543997 147.033335,144.109335 146.628,143.752 C146.222665,143.394665 145.748003,143.216 145.204,143.216 C144.382663,143.216 143.732002,143.562663 143.252,144.256 L141.956,143.44 C142.67067,142.415995 143.72666,141.904 145.124,141.904 L145.124,141.904 Z M150.308,142.16 L151.716,142.16 L151.716,143.248 L151.78,143.248 C152.004001,142.863998 152.347998,142.544001 152.812,142.288 C153.276002,142.031999 153.758664,141.904 154.26,141.904 C155.220005,141.904 155.958664,142.178664 156.476,142.728 C156.993336,143.277336 157.252,144.058662 157.252,145.072 L157.252,150 L155.78,150 L155.78,145.168 C155.748,143.887994 155.102673,143.248 153.844,143.248 C153.25733,143.248 152.766669,143.485331 152.372,143.96 C151.977331,144.434669 151.78,145.002663 151.78,145.664 L151.78,150 L150.308,150 L150.308,142.16 Z M169.22,148.592 L169.22,150 L162.244,150 L162.244,148.528 L165.076,145.664 C166.025338,144.693328 166.681332,143.965336 167.044,143.48 C167.406668,142.994664 167.588,142.485336 167.588,141.952 C167.588,141.471998 167.401335,141.061335 167.028,140.72 C166.654665,140.378665 166.17467,140.208 165.588,140.208 C165.086664,140.208 164.654668,140.357332 164.292,140.656 C163.929332,140.954668 163.694667,141.317331 163.588,141.744 L162.244,141.2 C162.457334,140.527997 162.867997,139.960002 163.476,139.496 C164.084003,139.031998 164.798663,138.8 165.62,138.8 C166.612005,138.8 167.438663,139.103997 168.1,139.712 C168.761337,140.320003 169.092,141.066662 169.092,141.952 C169.092,143.008005 168.510672,144.149327 167.348,145.376 L164.148,148.592 L169.22,148.592 Z M170.628,144.528 C170.628,142.863992 171.038663,141.493339 171.86,140.416 C172.681337,139.338661 173.737327,138.8 175.028,138.8 C176.318673,138.8 177.374663,139.343995 178.196,140.432 C179.017337,141.509339 179.428,142.874658 179.428,144.528 C179.428,146.170675 179.017337,147.541328 178.196,148.64 C177.374663,149.717339 176.318673,150.256 175.028,150.256 C173.737327,150.256 172.681337,149.717339 171.86,148.64 C171.038663,147.541328 170.628,146.170675 170.628,144.528 L170.628,144.528 Z M177.924,144.528 C177.924,143.269327 177.657336,142.234671 177.124,141.424 C176.601331,140.613329 175.902671,140.208 175.028,140.208 C174.153329,140.208 173.454669,140.613329 172.932,141.424 C172.398664,142.234671 172.132,143.269327 172.132,144.528 C172.132,145.786673 172.398664,146.826663 172.932,147.648 C173.454669,148.448004 174.153329,148.848 175.028,148.848 C175.902671,148.848 176.601331,148.442671 177.124,147.632 C177.657336,146.810663 177.924,145.776006 177.924,144.528 L177.924,144.528 Z M180.836,144.528 C180.836,142.863992 181.246663,141.493339 182.068,140.416 C182.889337,139.338661 183.945327,138.8 185.236,138.8 C186.526673,138.8 187.582663,139.343995 188.404,140.432 C189.225337,141.509339 189.636,142.874658 189.636,144.528 C189.636,146.170675 189.225337,147.541328 188.404,148.64 C187.582663,149.717339 186.526673,150.256 185.236,150.256 C183.945327,150.256 182.889337,149.717339 182.068,148.64 C181.246663,147.541328 180.836,146.170675 180.836,144.528 L180.836,144.528 Z M188.132,144.528 C188.132,143.269327 187.865336,142.234671 187.332,141.424 C186.809331,140.613329 186.110671,140.208 185.236,140.208 C184.361329,140.208 183.662669,140.613329 183.14,141.424 C182.606664,142.234671 182.34,143.269327 182.34,144.528 C182.34,145.786673 182.606664,146.826663 183.14,147.648 C183.662669,148.448004 184.361329,148.848 185.236,148.848 C186.110671,148.848 186.809331,148.442671 187.332,147.632 C187.865336,146.810663 188.132,145.776006 188.132,144.528 L188.132,144.528 Z M191.044,144.528 C191.044,142.863992 191.454663,141.493339 192.276,140.416 C193.097337,139.338661 194.153327,138.8 195.444,138.8 C196.734673,138.8 197.790663,139.343995 198.612,140.432 C199.433337,141.509339 199.844,142.874658 199.844,144.528 C199.844,146.170675 199.433337,147.541328 198.612,148.64 C197.790663,149.717339 196.734673,150.256 195.444,150.256 C194.153327,150.256 193.097337,149.717339 192.276,148.64 C191.454663,147.541328 191.044,146.170675 191.044,144.528 L191.044,144.528 Z M198.34,144.528 C198.34,143.269327 198.073336,142.234671 197.54,141.424 C197.017331,140.613329 196.318671,140.208 195.444,140.208 C194.569329,140.208 193.870669,140.613329 193.348,141.424 C192.814664,142.234671 192.548,143.269327 192.548,144.528 C192.548,145.786673 192.814664,146.826663 193.348,147.648 C193.870669,148.448004 194.569329,148.848 195.444,148.848 C196.318671,148.848 197.017331,148.442671 197.54,147.632 C198.073336,146.810663 198.34,145.776006 198.34,144.528 L198.34,144.528 Z M210.964,147.824 C210.964,148.50667 210.665336,149.082664 210.068,149.552 C209.470664,150.021336 208.718671,150.256 207.812,150.256 C207.022663,150.256 206.329336,150.050669 205.732,149.64 C205.134664,149.229331 204.708001,148.688003 204.452,148.016 L205.764,147.456 C205.956001,147.925336 206.235998,148.290665 206.604,148.552 C206.972002,148.813335 207.374664,148.944 207.812,148.944 C208.281336,148.944 208.673332,148.842668 208.988,148.64 C209.302668,148.437332 209.46,148.197335 209.46,147.92 C209.46,147.418664 209.076004,147.050668 208.308,146.816 L206.964,146.48 C205.438659,146.095998 204.676,145.360005 204.676,144.272 C204.676,143.55733 204.966664,142.984002 205.548,142.552 C206.129336,142.119998 206.873329,141.904 207.78,141.904 C208.473337,141.904 209.099997,142.069332 209.66,142.4 C210.220003,142.730668 210.611999,143.173331 210.836,143.728 L209.524,144.272 C209.374666,143.941332 209.132002,143.682668 208.796,143.496 C208.459998,143.309332 208.084002,143.216 207.668,143.216 C207.283998,143.216 206.940002,143.311999 206.636,143.504 C206.331998,143.696001 206.18,143.930665 206.18,144.208 C206.18,144.656002 206.601329,144.975999 207.444,145.168 L208.628,145.472 C210.185341,145.856002 210.964,146.639994 210.964,147.824 L210.964,147.824 Z M215.348,150.128 C214.707997,150.128 214.177335,149.930669 213.756,149.536 C213.334665,149.141331 213.118667,148.592004 213.108,147.888 L213.108,143.504 L211.732,143.504 L211.732,142.16 L213.108,142.16 L213.108,139.76 L214.58,139.76 L214.58,142.16 L216.5,142.16 L216.5,143.504 L214.58,143.504 L214.58,147.408 C214.58,147.930669 214.681332,148.285332 214.884,148.472 C215.086668,148.658668 215.315999,148.752 215.572,148.752 C215.689334,148.752 215.803999,148.738667 215.916,148.712 C216.028001,148.685333 216.132,148.650667 216.228,148.608 L216.692,149.92 C216.307998,150.058667 215.860003,150.128 215.348,150.128 L215.348,150.128 Z M224.788,150 L223.38,150 L223.38,148.912 L223.316,148.912 C223.091999,149.296002 222.748002,149.615999 222.284,149.872 C221.819998,150.128001 221.337336,150.256 220.836,150.256 C219.875995,150.256 219.137336,149.981336 218.62,149.432 C218.102664,148.882664 217.844,148.101338 217.844,147.088 L217.844,142.16 L219.316,142.16 L219.316,146.992 C219.348,148.272006 219.993327,148.912 221.252,148.912 C221.83867,148.912 222.329331,148.674669 222.724,148.2 C223.118669,147.725331 223.316,147.157337 223.316,146.496 L223.316,142.16 L224.788,142.16 L224.788,150 Z M230.1,148.912 C230.825337,148.912 231.417331,148.650669 231.876,148.128 C232.356002,147.605331 232.596,146.922671 232.596,146.08 C232.596,145.258663 232.356002,144.581336 231.876,144.048 C231.406664,143.514664 230.81467,143.248 230.1,143.248 C229.395996,143.248 228.804002,143.514664 228.324,144.048 C227.843998,144.581336 227.604,145.258663 227.604,146.08 C227.604,146.912004 227.843998,147.589331 228.324,148.112 C228.804002,148.645336 229.395996,148.912 230.1,148.912 L230.1,148.912 Z M229.86,150.256 C228.835995,150.256 227.956004,149.850671 227.22,149.04 C226.494663,148.218663 226.132,147.232006 226.132,146.08 C226.132,144.927994 226.494663,143.941337 227.22,143.12 C227.956004,142.309329 228.835995,141.904 229.86,141.904 C230.436003,141.904 230.961331,142.026665 231.436,142.272 C231.910669,142.517335 232.275999,142.842665 232.532,143.248 L232.596,143.248 L232.532,142.16 L232.532,138.544 L234.004,138.544 L234.004,150 L232.596,150 L232.596,148.912 L232.532,148.912 C232.275999,149.317335 231.910669,149.642665 231.436,149.888 C230.961331,150.133335 230.436003,150.256 229.86,150.256 L229.86,150.256 Z M239.316,150.256 C238.163994,150.256 237.21467,149.861337 236.468,149.072 C235.72133,148.282663 235.348,147.285339 235.348,146.08 C235.348,144.885327 235.710663,143.890671 236.436,143.096 C237.161337,142.301329 238.089328,141.904 239.22,141.904 C240.382672,141.904 241.307997,142.279996 241.996,143.032 C242.684003,143.784004 243.028,144.837327 243.028,146.192 L243.012,146.352 L236.852,146.352 C236.873333,147.120004 237.129331,147.738664 237.62,148.208 C238.110669,148.677336 238.69733,148.912 239.38,148.912 C240.318671,148.912 241.054664,148.442671 241.588,147.504 L242.9,148.144 C242.547998,148.805337 242.060003,149.322665 241.436,149.696 C240.811997,150.069335 240.105337,150.256 239.316,150.256 L239.316,150.256 Z M236.964,145.136 L241.46,145.136 C241.417333,144.591997 241.196002,144.141335 240.796,143.784 C240.395998,143.426665 239.860003,143.248 239.188,143.248 C238.633331,143.248 238.156002,143.418665 237.756,143.76 C237.355998,144.101335 237.092001,144.559997 236.964,145.136 L236.964,145.136 Z M244.372,142.16 L245.78,142.16 L245.78,143.248 L245.844,143.248 C246.068001,142.863998 246.411998,142.544001 246.876,142.288 C247.340002,142.031999 247.822664,141.904 248.324,141.904 C249.284005,141.904 250.022664,142.178664 250.54,142.728 C251.057336,143.277336 251.316,144.058662 251.316,145.072 L251.316,150 L249.844,150 L249.844,145.168 C249.812,143.887994 249.166673,143.248 247.908,143.248 C247.32133,143.248 246.830669,143.485331 246.436,143.96 C246.041331,144.434669 245.844,145.002663 245.844,145.664 L245.844,150 L244.372,150 L244.372,142.16 Z M256.148,150.128 C255.507997,150.128 254.977335,149.930669 254.556,149.536 C254.134665,149.141331 253.918667,148.592004 253.908,147.888 L253.908,143.504 L252.532,143.504 L252.532,142.16 L253.908,142.16 L253.908,139.76 L255.38,139.76 L255.38,142.16 L257.3,142.16 L257.3,143.504 L255.38,143.504 L255.38,147.408 C255.38,147.930669 255.481332,148.285332 255.684,148.472 C255.886668,148.658668 256.115999,148.752 256.372,148.752 C256.489334,148.752 256.603999,148.738667 256.716,148.712 C256.828001,148.685333 256.932,148.650667 257.028,148.608 L257.492,149.92 C257.107998,150.058667 256.660003,150.128 256.148,150.128 L256.148,150.128 Z M264.708,147.824 C264.708,148.50667 264.409336,149.082664 263.812,149.552 C263.214664,150.021336 262.462671,150.256 261.556,150.256 C260.766663,150.256 260.073336,150.050669 259.476,149.64 C258.878664,149.229331 258.452001,148.688003 258.196,148.016 L259.508,147.456 C259.700001,147.925336 259.979998,148.290665 260.348,148.552 C260.716002,148.813335 261.118664,148.944 261.556,148.944 C262.025336,148.944 262.417332,148.842668 262.732,148.64 C263.046668,148.437332 263.204,148.197335 263.204,147.92 C263.204,147.418664 262.820004,147.050668 262.052,146.816 L260.708,146.48 C259.182659,146.095998 258.42,145.360005 258.42,144.272 C258.42,143.55733 258.710664,142.984002 259.292,142.552 C259.873336,142.119998 260.617329,141.904 261.524,141.904 C262.217337,141.904 262.843997,142.069332 263.404,142.4 C263.964003,142.730668 264.355999,143.173331 264.58,143.728 L263.268,144.272 C263.118666,143.941332 262.876002,143.682668 262.54,143.496 C262.203998,143.309332 261.828002,143.216 261.412,143.216 C261.027998,143.216 260.684002,143.311999 260.38,143.504 C260.075998,143.696001 259.924,143.930665 259.924,144.208 C259.924,144.656002 260.345329,144.975999 261.188,145.168 L262.372,145.472 C263.929341,145.856002 264.708,146.639994 264.708,147.824 L264.708,147.824 Z M273.348,148.912 C274.052004,148.912 274.643998,148.645336 275.124,148.112 C275.604002,147.589331 275.844,146.912004 275.844,146.08 C275.844,145.258663 275.604002,144.581336 275.124,144.048 C274.643998,143.514664 274.052004,143.248 273.348,143.248 C272.63333,143.248 272.036002,143.514664 271.556,144.048 C271.086664,144.581336 270.852,145.258663 270.852,146.08 C270.852,146.912004 271.086664,147.594664 271.556,148.128 C272.036002,148.650669 272.63333,148.912 273.348,148.912 L273.348,148.912 Z M273.588,150.256 C273.011997,150.256 272.486669,150.133335 272.012,149.888 C271.537331,149.642665 271.172001,149.317335 270.916,148.912 L270.852,148.912 L270.916,150 L270.916,153.456 L269.444,153.456 L269.444,142.16 L270.852,142.16 L270.852,143.248 L270.916,143.248 C271.172001,142.842665 271.537331,142.517335 272.012,142.272 C272.486669,142.026665 273.011997,141.904 273.588,141.904 C274.622672,141.904 275.49733,142.309329 276.212,143.12 C276.948004,143.941337 277.316,144.927994 277.316,146.08 C277.316,147.242672 276.948004,148.229329 276.212,149.04 C275.49733,149.850671 274.622672,150.256 273.588,150.256 L273.588,150.256 Z M282.18,150.256 C281.027994,150.256 280.07867,149.861337 279.332,149.072 C278.58533,148.282663 278.212,147.285339 278.212,146.08 C278.212,144.885327 278.574663,143.890671 279.3,143.096 C280.025337,142.301329 280.953328,141.904 282.084,141.904 C283.246672,141.904 284.171997,142.279996 284.86,143.032 C285.548003,143.784004 285.892,144.837327 285.892,146.192 L285.876,146.352 L279.716,146.352 C279.737333,147.120004 279.993331,147.738664 280.484,148.208 C280.974669,148.677336 281.56133,148.912 282.244,148.912 C283.182671,148.912 283.918664,148.442671 284.452,147.504 L285.764,148.144 C285.411998,148.805337 284.924003,149.322665 284.3,149.696 C283.675997,150.069335 282.969337,150.256 282.18,150.256 L282.18,150.256 Z M279.828,145.136 L284.324,145.136 C284.281333,144.591997 284.060002,144.141335 283.66,143.784 C283.259998,143.426665 282.724003,143.248 282.052,143.248 C281.497331,143.248 281.020002,143.418665 280.62,143.76 C280.219998,144.101335 279.956001,144.559997 279.828,145.136 L279.828,145.136 Z M288.708,150 L287.236,150 L287.236,142.16 L288.644,142.16 L288.644,143.44 L288.708,143.44 C288.857334,143.023998 289.163998,142.669335 289.628,142.376 C290.092002,142.082665 290.547998,141.936 290.996,141.936 C291.422669,141.936 291.785332,141.999999 292.084,142.128 L291.636,143.552 C291.454666,143.477333 291.166669,143.44 290.772,143.44 C290.217331,143.44 289.734669,143.663998 289.324,144.112 C288.913331,144.560002 288.708,145.082664 288.708,145.68 L288.708,150 Z M303.572,142.16 L298.66,153.456 L297.14,153.456 L298.964,149.504 L295.732,142.16 L297.332,142.16 L299.668,147.792 L299.7,147.792 L301.972,142.16 L303.572,142.16 Z M308.052,150.256 C306.899994,150.256 305.95067,149.861337 305.204,149.072 C304.45733,148.282663 304.084,147.285339 304.084,146.08 C304.084,144.885327 304.446663,143.890671 305.172,143.096 C305.897337,142.301329 306.825328,141.904 307.956,141.904 C309.118672,141.904 310.043997,142.279996 310.732,143.032 C311.420003,143.784004 311.764,144.837327 311.764,146.192 L311.748,146.352 L305.588,146.352 C305.609333,147.120004 305.865331,147.738664 306.356,148.208 C306.846669,148.677336 307.43333,148.912 308.116,148.912 C309.054671,148.912 309.790664,148.442671 310.324,147.504 L311.636,148.144 C311.283998,148.805337 310.796003,149.322665 310.172,149.696 C309.547997,150.069335 308.841337,150.256 308.052,150.256 L308.052,150.256 Z M305.7,145.136 L310.196,145.136 C310.153333,144.591997 309.932002,144.141335 309.532,143.784 C309.131998,143.426665 308.596003,143.248 307.924,143.248 C307.369331,143.248 306.892002,143.418665 306.492,143.76 C306.091998,144.101335 305.828001,144.559997 305.7,145.136 L305.7,145.136 Z M314.18,147.6 C314.18,147.984002 314.342665,148.303999 314.668,148.56 C314.993335,148.816001 315.374664,148.944 315.812,148.944 C316.43067,148.944 316.982664,148.714669 317.468,148.256 C317.953336,147.797331 318.196,147.25867 318.196,146.64 C317.737331,146.277332 317.097337,146.096 316.276,146.096 C315.678664,146.096 315.180002,146.239999 314.78,146.528 C314.379998,146.816001 314.18,147.173331 314.18,147.6 L314.18,147.6 Z M316.084,141.904 C317.172005,141.904 318.030664,142.194664 318.66,142.776 C319.289336,143.357336 319.604,144.154662 319.604,145.168 L319.604,150 L318.196,150 L318.196,148.912 L318.132,148.912 C317.523997,149.808004 316.713338,150.256 315.7,150.256 C314.835996,150.256 314.113336,150.000003 313.532,149.488 C312.950664,148.975997 312.66,148.336004 312.66,147.568 C312.66,146.757329 312.966664,146.112002 313.58,145.632 C314.193336,145.151998 315.011995,144.912 316.036,144.912 C316.910671,144.912 317.630664,145.071998 318.196,145.392 L318.196,145.056 C318.196,144.543997 317.993335,144.109335 317.588,143.752 C317.182665,143.394665 316.708003,143.216 316.164,143.216 C315.342663,143.216 314.692002,143.562663 314.212,144.256 L312.916,143.44 C313.63067,142.415995 314.68666,141.904 316.084,141.904 L316.084,141.904 Z M322.74,150 L321.268,150 L321.268,142.16 L322.676,142.16 L322.676,143.44 L322.74,143.44 C322.889334,143.023998 323.195998,142.669335 323.66,142.376 C324.124002,142.082665 324.579998,141.936 325.028,141.936 C325.454669,141.936 325.817332,141.999999 326.116,142.128 L325.668,143.552 C325.486666,143.477333 325.198669,143.44 324.804,143.44 C324.249331,143.44 323.766669,143.663998 323.356,144.112 C322.945331,144.560002 322.74,145.082664 322.74,145.68 L322.74,150 Z"
            id="for-less-than-2000-s" fill="#000000"/>
        <path
            d="M185.789062,63.2460938 L178.125,63.2460938 C179.320318,65.003915 180.093748,67.0663944 180.445312,69.4335938 L187.546875,69.4335938 L185.789062,75.8320312 L180.480469,75.8320312 C179.964841,79.6992381 178.417982,82.6581929 175.839844,84.7089844 C173.261706,86.7597759 169.617211,87.984373 164.90625,88.3828125 L181.289062,107.542969 L181.289062,108 L171.199219,108 L153.304688,87.1523438 L153.269531,81.7734375 L162.164062,81.7734375 C164.789076,81.7734375 166.869133,81.2285211 168.404297,80.1386719 C169.939461,79.0488227 170.964841,77.6132902 171.480469,75.8320312 L152.566406,75.8320312 L154.359375,69.4335938 L171.339844,69.4335938 C170.191401,65.8007631 167.085963,63.984375 162.023438,63.984375 L152.566406,63.984375 L154.464844,56.8125 L187.582031,56.8125 L185.789062,63.2460938 Z M244.113281,86.4492188 C244.113281,93.8086305 242.736342,99.3574032 239.982422,103.095703 C237.228502,106.834003 233.039091,108.703125 227.414062,108.703125 C221.882785,108.703125 217.716811,106.880878 214.916016,103.236328 C212.11522,99.5917787 210.679688,94.1953482 210.609375,87.046875 L210.609375,78.1875 C210.609375,70.8280882 211.986314,65.3086121 214.740234,61.6289062 C217.494154,57.9492004 221.695284,56.109375 227.34375,56.109375 C232.945341,56.109375 237.123033,57.9023258 239.876953,61.4882812 C242.630873,65.0742367 244.042968,70.4413705 244.113281,77.5898438 L244.113281,86.4492188 Z M235.570312,76.8867188 C235.570312,72.0820072 234.914069,68.5605581 233.601562,66.3222656 C232.289056,64.0839732 230.203139,62.9648438 227.34375,62.9648438 C224.554674,62.9648438 222.503913,64.02538 221.191406,66.1464844 C219.8789,68.2675887 219.1875,71.5781025 219.117188,76.078125 L219.117188,87.6796875 C219.117188,92.4609614 219.78515,96.0234258 221.121094,98.3671875 C222.457038,100.710949 224.554673,101.882812 227.414062,101.882812 C230.156264,101.882812 232.183587,100.798839 233.496094,98.6308594 C234.8086,96.4628798 235.5,93.0703356 235.570312,88.453125 L235.570312,76.8867188 Z"
            id="₹-0" fill="#323043"/>
        <path d="M25,-5.55111512e-17 L25,201" id="Line-Copy-7" stroke="#D7D7D7" stroke-linecap="square"
              stroke-dasharray="7"/>
        <path d="M374,-5.55111512e-17 L374,201" id="Line-Copy-6" stroke="#D7D7D7" stroke-linecap="square"
              stroke-dasharray="7"/>
      </g>
    </g>
  </g>
</svg>