<svg xmlns="http://www.w3.org/2000/svg" width="48" height="47" viewBox="0 0 48 47">
  <defs>
    <linearGradient id="a" x1="0%" x2="102%" y1="0%" y2="101%">
      <stop stop-color="#3023AE" offset="0%"/>
      <stop stop-color="#613BBB" offset="32.228%"/>
      <stop stop-color="#C96DD8" offset="100%"/>
    </linearGradient>
  </defs>
  <g fill="none" fill-rule="evenodd">
    <rect width="47.473" height="47" fill="url(#a)" rx="4"/>
    <path fill="#FFFFFF" d="M29.7920384 26.0934959C29.7920384 30.4455327 26.2648673 33.9735135 21.9138884 33.9735135 17.5628616 33.9735135 14.0362662 30.4455327 14.0362662 26.0934959 14.0362662 21.7418909 17.5628616 18.2138621 21.9138884 18.2138621 26.2648673 18.2138621 29.7920384 21.7418909 29.7920384 26.0934959M33.8065959 17.1887103C33.8065959 18.8402291 32.4675786 20.1791402 30.8165092 20.1791402 29.1653919 20.1791402 27.8272381 18.8402291 27.8272381 17.1887103 27.8272381 15.5370476 29.1653919 14.1983284 30.8165092 14.1983284 32.4675786 14.1983284 33.8065959 15.5370476 33.8065959 17.1887103"/>
  </g>
</svg>
