<svg xmlns="http://www.w3.org/2000/svg" width="48" height="47" viewBox="0 0 48 47">
  <defs>
    <linearGradient id="a" x1="0%" y1="0%" y2="100%">
      <stop stop-color="#1CD8D2" offset="0%"/>
      <stop stop-color="#93EDC7" offset="100%"/>
    </linearGradient>
  </defs>
  <g fill="none" fill-rule="evenodd">
    <rect width="47.473" height="47" fill="url(#a)" rx="4"/>
    <g transform="translate(12 13)">
      <g transform="translate(7.389)">
        <path fill="#414042" d="M15.219246,12.7629464 C14.5558968,11.57475 14.1486508,8.43032143 13.9345317,6.23916071 C13.8085794,4.92446429 13.7498016,3.953125 13.7498016,3.953125 C13.7498016,1.95623214 12.2467698,0.338839286 10.3910714,0.338839286 L8.29186508,0.338839286 L6.19265873,0.338839286 C4.33696032,0.338839286 2.83392857,1.95623214 2.83392857,3.953125 C2.83392857,3.953125 2.77095238,5.00578571 2.63240476,6.40632143 L2.63240476,6.40632143 C2.4140873,8.58392857 2.01103968,11.6018571 1.36448413,12.7629464 C0.113357143,15.0128393 4.30337302,16.603125 4.30337302,16.603125 C4.30337302,16.603125 5.73503175,15.7989464 6.19265873,15.2477679 L6.19265873,14.7959821 L6.19265873,13.8110893 C4.62245238,12.9391429 3.67361111,11.0777857 3.67361111,8.92276786 L3.67361111,6.43794643 L8.29186508,4.85669643 C8.29186508,4.85669643 11.5120476,3.97119643 12.910119,6.43794643 L12.910119,8.92276786 C12.910119,11.0777857 11.9612778,12.9391429 10.3910714,13.8110893 L10.3910714,14.7959821 L10.3910714,15.2477679 C10.8486984,15.7989464 12.2803571,16.603125 12.2803571,16.603125 C12.2803571,16.603125 16.470373,15.0128393 15.219246,12.7629464 L15.219246,12.7629464 Z"/>
        <path fill="#DC5B69" d="M16.2688492,20.4433036 L16.2688492,21.5727679 L0.314880952,21.5727679 L0.314880952,20.4433036 C0.314880952,20.4433036 0.340071429,18.8394643 2.4140873,17.5021786 L2.4140873,17.5066964 C5.87777778,17.5066964 4.8281746,19.3138393 8.29186508,19.3138393 C11.7555556,19.3138393 10.7059524,17.5066964 14.1696429,17.5066964 L14.1780397,17.4931429 C16.2604524,18.8304286 16.2688492,20.4433036 16.2688492,20.4433036 L16.2688492,20.4433036 Z"/>
        <path fill="#FFE1B2" d="M12.2803571,16.603125 C13.0528651,16.8651607 13.6742302,17.172375 14.1780397,17.4931429 L14.1696429,17.5066964 C10.7059524,17.5066964 11.7555556,19.3138393 8.29186508,19.3138393 C4.8281746,19.3138393 5.87777778,17.5066964 2.4140873,17.5066964 L2.4140873,17.5021786 C2.91369841,17.1814107 3.53506349,16.8696786 4.30337302,16.603125 C4.30337302,16.603125 5.73503175,15.7989464 6.19265873,15.2477679 L6.19265873,14.7959821 L6.19265873,13.8110893 C6.80562698,14.1544464 7.51096032,14.3441964 8.29186508,14.3441964 C9.07276984,14.3441964 9.77810317,14.1544464 10.3910714,13.8110893 L10.3910714,14.7959821 L10.3910714,15.2477679 C10.8486984,15.7989464 12.2803571,16.603125 12.2803571,16.603125 L12.2803571,16.603125 Z"/>
        <path fill="#FFE1B2" d="M10.3910714,13.8110893 C9.77810317,14.1544464 9.07276984,14.3441964 8.29186508,14.3441964 C7.51096032,14.3441964 6.80562698,14.1544464 6.19265873,13.8110893 C4.62245238,12.9391429 3.67361111,11.0777857 3.67361111,8.92276786 L3.67361111,6.43794643 L8.29186508,4.85669643 C8.29186508,4.85669643 11.5120476,3.97119643 12.910119,6.43794643 L12.910119,8.92276786 C12.910119,11.0777857 11.9612778,12.9391429 10.3910714,13.8110893 L10.3910714,13.8110893 Z"/>
        <path fill="#FFFFFF" d="M7.45218254 7.34151786L7.45218254 8.92276786C7.45218254 9.17125 7.26325397 9.37455357 7.03234127 9.37455357L5.35297619 9.37455357C5.12206349 9.37455357 4.93313492 9.17125 4.93313492 8.92276786L4.93313492 7.34151786 7.45218254 7.34151786 7.45218254 7.34151786zM11.6505952 7.34151786L11.6505952 8.92276786C11.6505952 9.17125 11.4616667 9.37455357 11.230754 9.37455357L9.55138889 9.37455357C9.32047619 9.37455357 9.13154762 9.17125 9.13154762 8.92276786L9.13154762 7.34151786 11.6505952 7.34151786 11.6505952 7.34151786z"/>
        <path fill="#231F20" d="M14.338419,17.2015604 C13.9767678,16.9713304 13.5783804,16.7626957 13.1487148,16.5772377 C13.9975499,16.1457823 15.2944396,15.3295411 15.6632282,14.229488 C15.8475805,13.67971 15.7890966,13.1277634 15.489162,12.5884216 C15.0064285,11.7237037 14.5655112,9.45623643 14.2477753,6.20437321 C14.1309335,4.98428071 14.071484,4.05043964 14.0647245,3.94160446 C14.0588467,1.76715982 12.413111,0 10.3910714,0 L8.29186508,0 L6.19265873,0 C4.17061921,0 2.52488341,1.76729536 2.51904762,3.94174 C2.51212024,4.05459607 2.4482204,5.06704786 2.31932913,6.36995268 C2.00243294,9.53078107 1.5674354,11.7393355 1.09427429,12.5889638 C0.794633571,13.1277634 0.736191667,13.6797552 0.920501984,14.2295332 C1.29017222,15.3322066 2.59243587,16.149758 3.441145,16.5804002 C3.01210921,16.7684334 2.61397373,16.9792818 2.25223849,17.2115448 C0.0534457937,18.6292936 0.00117555556,20.364467 0,20.4376111 L0,21.9116071 L16.5837302,21.9116071 L16.5837302,20.4414061 C16.5833523,20.367765 16.5489253,18.6210711 14.338419,17.2015604 L14.338419,17.2015604 Z M6.42747595,15.4735252 L6.50753968,15.3770689 L6.50753968,14.3350252 C7.06097444,14.5657973 7.65891238,14.6829905 8.29186508,14.6829905 C8.92498571,14.6829905 9.52309159,14.5657521 10.0761905,14.3350704 L10.0761905,15.3770237 L10.1562542,15.47348 C10.63819,16.0539795 12.1856829,16.9262421 12.1856829,16.9262421 C12.4745757,17.0242345 12.7501175,17.132663 13.0127283,17.2497659 C12.0176205,17.4087041 11.5280436,17.7749216 11.050936,18.1320582 C10.4718909,18.5655918 9.92492167,18.975 8.29186508,18.975 C6.65880849,18.975 6.11183929,18.5655466 5.53279421,18.1321034 C5.05740794,17.7762318 4.56980429,17.4112793 3.58187579,17.2514375 C3.84192548,17.1338377 4.11448643,17.0246411 4.40002048,16.9256096 C4.40002048,16.9256096 5.94549817,16.0540246 6.42747595,15.4735252 L6.42747595,15.4735252 Z M12.5952381,7.90625 L11.9654762,7.90625 L11.9654762,7.00267857 L8.81666667,7.00267857 L8.81666667,7.90625 L7.76706349,7.90625 L7.76706349,7.00267857 L4.61825397,7.00267857 L4.61825397,7.90625 L3.98849206,7.90625 L3.98849206,6.68570571 L8.37713484,5.18306643 C8.46001151,5.16178732 9.19847032,4.98107304 10.0679616,5.06153607 C11.2194183,5.16802196 12.069177,5.66381161 12.5951961,6.5356225 L12.5952381,7.90625 L12.5952381,7.90625 L12.5952381,7.90625 Z M11.3357143,7.68035714 L11.3357143,8.92276786 C11.3357143,8.98398482 11.2876425,9.03571429 11.230754,9.03571429 L9.55138889,9.03571429 C9.4945004,9.03571429 9.44642857,8.98398482 9.44642857,8.92276786 L9.44642857,7.68035714 L11.3357143,7.68035714 L11.3357143,7.68035714 Z M7.13730159,7.68035714 L7.13730159,8.92276786 C7.13730159,8.98398482 7.08922976,9.03571429 7.03234127,9.03571429 L5.35297619,9.03571429 C5.2960877,9.03571429 5.24801587,8.98398482 5.24801587,8.92276786 L5.24801587,7.68035714 L7.13730159,7.68035714 L7.13730159,7.68035714 Z M3.98849206,8.58392857 L4.61825397,8.58392857 L4.61825397,8.92276786 C4.61825397,9.35869589 4.94787135,9.71339286 5.35297619,9.71339286 L7.03234127,9.71339286 C7.43744611,9.71339286 7.76706349,9.35869589 7.76706349,8.92276786 L7.76706349,8.58392857 L8.81666667,8.58392857 L8.81666667,8.92276786 C8.81666667,9.35869589 9.14628405,9.71339286 9.55138889,9.71339286 L11.230754,9.71339286 C11.6358588,9.71339286 11.9654762,9.35869589 11.9654762,8.92276786 L11.9654762,8.58392857 L12.5952381,8.58392857 L12.5952381,8.92276786 C12.5952381,9.92532554 12.3769206,10.8802198 11.9638808,11.6841273 C11.5536539,12.4825682 10.9598304,13.1139388 10.2456804,13.5105162 C9.65949802,13.8388741 9.00215254,14.0053571 8.29186508,14.0053571 C7.58157762,14.0053571 6.92423214,13.8388741 6.33704214,13.5099741 C5.62389976,13.1139388 5.03007627,12.4825682 4.61984937,11.6841273 C4.20680952,10.8802198 3.98849206,9.92532554 3.98849206,8.92276786 L3.98849206,8.58392857 L3.98849206,8.58392857 Z M1.51273008,13.998987 C1.39420889,13.645058 1.43409381,13.2976348 1.63456802,12.9371098 C2.16848016,11.9783302 2.60952341,9.79326857 2.94552238,6.44219321 C3.08314635,5.05069321 3.14755,3.98551804 3.14813778,3.97490107 L3.14880952,3.953125 C3.14880952,2.14702125 4.51425929,0.677678571 6.19265873,0.677678571 L8.29186508,0.677678571 L10.3910714,0.677678571 C12.0694709,0.677678571 13.4349206,2.14702125 13.4349206,3.953125 L13.4355924,3.97512696 C13.4362221,3.98493071 13.4962175,4.96797125 13.6214141,6.27458071 C13.8529146,8.64365464 14.2712025,11.7227098 14.9490782,12.9369291 C15.1496363,13.2976348 15.1895633,13.6450129 15.0710001,13.998987 C14.7200548,15.047175 13.0614298,15.9195732 12.3036163,16.2325704 C11.8847827,15.9888771 11.0725578,15.4819736 10.7059524,15.1098377 L10.7059524,14.0120887 C11.4541515,13.5518095 12.077154,12.864282 12.5150064,12.0120334 C12.9794768,11.107965 13.225,10.0397177 13.225,8.92276786 L13.225,6.34280036 L13.1789434,6.26152411 C12.5527502,5.15668214 11.4889563,4.50764679 10.1025985,4.38462554 C9.08196437,4.2940425 8.24887333,4.51880589 8.21394254,4.52842893 L3.35873016,6.19018714 L3.35873016,8.92276786 C3.35873016,10.0397177 3.60425333,11.107965 4.06872373,12.0120334 C4.50670214,12.864553 5.12999849,13.5522612 5.87777778,14.0121339 L5.87777778,15.1098377 C5.51146627,15.4817025 4.70037492,15.9880187 4.2812054,16.2319379 C4.06326579,16.1402705 3.59316952,15.9295577 3.09679119,15.6248734 C2.24069286,15.0994918 1.69292595,14.5372445 1.51273008,13.998987 L1.51273008,13.998987 Z M15.9539683,21.2339286 L0.629761905,21.2339286 L0.629761905,20.4496286 C0.631357302,20.4177325 0.654196667,20.0678696 0.886704762,19.5872148 C1.27665333,18.7810484 1.96091063,18.202582 2.4950327,17.8461682 C4.06486119,17.8596314 4.6038954,18.2622629 5.17315817,18.6884323 C5.80644675,19.1624911 6.46123119,19.6526786 8.29186508,19.6526786 C10.122499,19.6526786 10.7772834,19.1624911 11.410572,18.6884323 C11.9825637,18.260275 12.523949,17.8558364 14.111075,17.8460327 C15.0366571,18.4642562 15.4875246,19.1270711 15.7037009,19.5807091 C15.9366708,20.0695864 15.9531286,20.4241479 15.9539683,20.4470534 L15.9539683,21.2339286 L15.9539683,21.2339286 L15.9539683,21.2339286 Z"/>
        <path fill="#231F20" d="M8.29186508,11.06875 L9.13154762,11.06875 L9.13154762,10.3910714 L8.60674603,10.3910714 L8.60674603,9.60044643 L7.97698413,9.60044643 L7.97698413,10.7299107 C7.97698413,10.9170404 8.11792484,11.06875 8.29186508,11.06875 L8.29186508,11.06875 Z"/>
      </g>
      <path fill="#E7ECED" d="M16.2957103,20.5257732 L16.2957103,21.6597938 L0.315400844,21.6597938 L0.315400844,20.5257732 C0.315400844,20.5257732 0.353248945,18.0445361 4.3104782,16.6701031 C4.3104782,16.6701031 5.7445007,15.8626804 6.20288326,15.3092784 C6.20288326,15.3092784 7.06918425,16.443299 8.30555556,16.443299 C9.54192686,16.443299 10.4082278,15.3092784 10.4082278,15.3092784 C10.8666104,15.8626804 12.3006329,16.6701031 12.3006329,16.6701031 C16.2830942,18.0309278 16.2957103,20.5257732 16.2957103,20.5257732 L16.2957103,20.5257732 Z"/>
      <path fill="#AFB6BB" d="M5.15154712,4.42268041 C5.15154712,5.76536082 3.67967651,6.01030928 3.67967651,6.01030928 L3.67967651,3.74226804 C3.67967651,3.74226804 3.87312236,0.340206186 8.30555556,0.340206186 C12.7379887,0.340206186 12.9314346,3.74226804 12.9314346,3.74226804 L12.9314346,6.01030928 C12.9314346,6.01030928 11.459564,5.80164948 11.459564,4.42268041 L8.30555556,5.78350515 L5.15154712,4.42268041 L5.15154712,4.42268041 Z"/>
      <path fill="#FFE1B2" d="M6.20288326 13.8668041C6.81686357 14.2115464 7.52336146 14.4020619 8.30555556 14.4020619 9.08774965 14.4020619 9.79424754 14.2115464 10.4082278 13.8668041L10.4082278 15.3092784C10.4082278 15.3092784 9.54192686 16.443299 8.30555556 16.443299 7.06918425 16.443299 6.20288326 15.3092784 6.20288326 15.3092784L6.20288326 13.8668041 6.20288326 13.8668041zM3.67967651 8.95876289C3.67967651 9.26268041 3.69649789 9.56206186 3.73434599 9.85237113 3.08251758 9.7571134 2.41807314 9.0857732 2.41807314 8.50515464 2.41807314 7.87917526 2.98158931 7.59793814 3.67967651 7.59793814L3.67967651 8.95876289 3.67967651 8.95876289zM12.9314346 7.59793814C13.6295218 7.59793814 14.193038 7.87917526 14.193038 8.50515464 14.193038 9.0857732 13.5285935 9.7571134 12.8767651 9.85237113 12.9146132 9.56206186 12.9314346 9.26268041 12.9314346 8.95876289L12.9314346 7.59793814 12.9314346 7.59793814z"/>
      <path fill="#FFE1B2" d="M12.9314346,7.59793814 L12.9314346,8.95876289 C12.9314346,9.26268041 12.9146132,9.56206186 12.8767651,9.85237113 C12.6496765,11.6259794 11.7581435,13.1138144 10.4082278,13.8668041 C9.79424754,14.2115464 9.08774965,14.4020619 8.30555556,14.4020619 C7.52336146,14.4020619 6.81686357,14.2115464 6.20288326,13.8668041 C4.85296765,13.1138144 3.9614346,11.6259794 3.73434599,9.85237113 C3.69649789,9.56206186 3.67967651,9.26268041 3.67967651,8.95876289 L3.67967651,7.59793814 L3.67967651,6.01030928 C3.67967651,6.01030928 5.15154712,5.76536082 5.15154712,4.42268041 L8.30555556,5.78350515 L11.459564,4.42268041 C11.459564,5.80164948 12.9314346,6.01030928 12.9314346,6.01030928 L12.9314346,7.59793814 L12.9314346,7.59793814 Z"/>
      <path fill="#231F20" d="M12.42263,16.3549814 C12.0469665,16.1415134 11.122043,15.5761814 10.7236287,15.1705649 L10.7236287,14.0682969 C12.0014647,13.2802433 12.8752512,11.8663464 13.1544861,10.1356495 C13.878352,9.91211134 14.5084388,9.17926186 14.5084388,8.50515464 C14.5084388,7.82274639 14.0328985,7.36995464 13.2468354,7.27614845 L13.2468354,3.74226804 L13.2462467,3.72144742 C13.2440179,3.68252784 13.1845122,2.75689485 12.5312961,1.83466392 C11.457209,0.318342268 9.64050014,0 8.30555556,0 C6.97061097,0 5.15390211,0.318342268 4.07981505,1.83466392 C3.42659887,2.75689485 3.36709325,3.68248247 3.36486442,3.72144742 L3.36427567,5.71854845 L3.36427567,7.27610309 C2.57821266,7.36990928 2.10267229,7.82274639 2.10267229,8.50510928 C2.10267229,9.17921649 2.73275907,9.91206598 3.45662504,10.1356495 C3.73615429,11.8669814 4.61006695,13.2807876 5.88748242,14.0682969 L5.88748242,15.1705196 C5.48881575,15.5763629 4.56309325,16.1421485 4.18785035,16.355299 C0.0883542897,17.7898804 0.00172419128,20.4091052 4.20534459e-05,20.5201485 L0,22 L16.6111111,22 L16.6111111,20.5239134 C16.6105224,20.4121897 16.5499233,17.7764536 12.42263,16.3549814 L12.42263,16.3549814 Z M6.51828411,15.1775505 L6.51828411,14.392899 C7.07263263,14.6246474 7.67155781,14.7423134 8.30555556,14.7423134 C8.93967947,14.7423134 9.5387308,14.6246021 10.092827,14.3929897 L10.092827,15.1782763 C9.87709283,15.421501 9.19342996,16.1030928 8.30555556,16.1030928 C7.42340042,16.1030928 6.73502757,15.4201856 6.51828411,15.1775505 L6.51828411,15.1775505 Z M13.8776371,8.50515464 C13.8776371,8.78303505 13.5989489,9.16134433 13.2356492,9.37018557 C13.242588,9.23578144 13.2468354,7.96000825 13.2468354,7.96000825 C13.8089639,8.04501443 13.8776371,8.35854845 13.8776371,8.50515464 L13.8776371,8.50515464 Z M4.58109212,2.24781031 C5.31774233,1.20773196 6.57085091,0.680412371 8.30555556,0.680412371 C12.3041233,0.680412371 12.5998011,3.54331546 12.6160338,3.75478763 L12.6160338,5.57126186 C12.2624063,5.43096082 11.7749648,5.1125732 11.7749648,4.42268041 L11.7749648,3.9201732 L8.30555556,5.41708041 L4.83614627,3.9201732 L4.83614627,4.42268041 C4.83614627,5.09098144 4.35009255,5.41499381 3.99507736,5.56268866 L3.99507736,3.75510515 C4.00180591,3.67236701 4.0730865,2.96496495 4.58109212,2.24781031 L4.58109212,2.24781031 Z M2.73347398,8.50515464 C2.73347398,8.35854845 2.80214726,8.04501443 3.36427567,7.96000825 C3.36427567,7.96000825 3.36852307,9.23578144 3.37546188,9.37018557 C3.01216217,9.16129897 2.73347398,8.78303505 2.73347398,8.50515464 L2.73347398,8.50515464 Z M4.04667693,9.80501443 C4.01244543,9.54237526 3.99507736,9.25769072 3.99507736,8.95876289 L3.99507736,6.28206598 C4.51885302,6.11971959 5.20945471,5.70253608 5.41004965,4.90064742 L8.30555556,6.1499299 L11.1988326,4.90155464 C11.3963156,5.72249485 12.0887677,6.1336 12.6160338,6.28732784 L12.6160338,8.95876289 C12.6160338,9.25769072 12.5986657,9.54237526 12.5643501,9.80583093 C12.3474384,11.4999216 11.5087665,12.8699093 10.2626388,13.5650639 C9.67544655,13.894701 9.0169737,14.0618557 8.30555556,14.0618557 C7.59413741,14.0618557 6.93566456,13.894701 6.34775738,13.5646103 C5.10238664,12.8699093 4.26371477,11.4999216 4.04667693,9.80501443 L4.04667693,9.80501443 Z M15.9803094,21.3195876 L0.630801688,21.3195876 L0.630801688,20.529901 C0.633156681,20.4611794 0.747415893,18.2650351 4.40715907,16.993934 C4.40715907,16.993934 5.60400014,16.3189649 6.19220169,15.7873361 C6.39599269,15.9943175 6.72527117,16.2822227 7.14908579,16.4953278 L7.14908579,20.6391753 L9.14662447,20.6391753 L9.14662447,19.9587629 L7.77988748,19.9587629 L7.77988748,16.7242186 C7.9466294,16.7618227 8.12220253,16.7835052 8.30555556,16.7835052 C9.29267609,16.7835052 10.0553153,16.1566186 10.4189094,15.7873361 C11.007111,16.3189649 12.2053819,16.9943876 12.2053819,16.9943876 C13.2759364,17.3601773 14.7168557,18.0493443 15.5022038,19.2549897 C15.9529326,19.9469237 15.9792581,20.5005072 15.9803094,20.5294474 L15.9803094,21.3195876 L15.9803094,21.3195876 L15.9803094,21.3195876 Z"/>
      <path fill="#231F20" d="M8.30555556,11.1134021 L9.14662447,11.1134021 L9.14662447,10.4329897 L8.6209564,10.4329897 L8.6209564,8.95876289 L7.99015471,8.95876289 L7.99015471,10.7731959 C7.99015471,10.9611258 8.13137018,11.1134021 8.30555556,11.1134021 L8.30555556,11.1134021 Z"/>
      <rect width=".841" height=".649" x="8.095" y="17.464" fill="#231F20"/>
      <rect width=".841" height=".649" x="8.095" y="18.598" fill="#231F20"/>
    </g>
  </g>
</svg>
