<svg xmlns="http://www.w3.org/2000/svg" width="28" height="28" viewBox="0 0 28 28" xmlns:xlink="http://www.w3.org/1999/xlink">
  <defs>
    <rect id="a" width="28" height="28" rx="4"/>
    <mask id="b" width="28" height="28" x="0" y="0" fill="white">
      <use xlink:href="#a"/>
    </mask>
  </defs>
  <g fill="none" fill-rule="evenodd">
    <use fill="#FFFFFF" stroke="#4A4A4A" stroke-width="2" mask="url(#b)" xlink:href="#a"/>
    <path fill="#20A0FF" d="M18.1617316,15.4117235 C18.1617316,18.4877208 15.6687452,20.9812795 12.5934957,20.9812795 C9.5182123,20.9812795 7.02563273,18.4877208 7.02563273,15.4117235 C7.02563273,12.3360315 9.5182123,9.84243884 12.5934957,9.84243884 C15.6687452,9.84243884 18.1617316,12.3360315 18.1617316,15.4117235"/>
    <path fill="#424242" d="M20.9992003,9.11786683 C20.9992003,10.2851518 20.0527897,11.2314873 18.8858223,11.2314873 C17.7188211,11.2314873 16.7730208,10.2851518 16.7730208,9.11786683 C16.7730208,7.95048008 17.7188211,7.00428026 18.8858223,7.00428026 C20.0527897,7.00428026 20.9992003,7.95048008 20.9992003,9.11786683"/>
  </g>
</svg>
