<svg xmlns="http://www.w3.org/2000/svg" width="48" height="48" viewBox="0 0 48 48">
  <g fill="none" fill-rule="evenodd">
    <rect width="47.127" height="47.127" fill="#F3B52C" fill-rule="nonzero" rx="3.927"/>
    <path fill="#F4F1EF" fill-rule="nonzero" d="M10.9745455,20.2254545 L10.9745455,33.9072953 C10.9745455,35.0084484 11.8672031,35.9011646 12.9683563,35.9011646 L33.6270723,35.9011646 C34.7282255,35.9011646 35.6208247,35.0084484 35.6208247,33.9072953 L35.6208247,20.2254545 L10.9745455,20.2254545"/>
    <path fill="#DA382F" fill-rule="nonzero" d="M35.5919255,14.9392516 C35.5919255,13.8146398 34.6718311,12.8945455 33.5473364,12.8945455 L13.0191932,12.8945455 C11.8946398,12.8945455 10.9745455,13.8146398 10.9745455,14.9392516 L10.9745455,21.5409053 L35.5919255,21.5409053 L35.5919255,14.9392516"/>
    <path fill="#FFFFFF" d="M17.0418764,18.8290909 L18.7698764,14.7682909 L19.5877964,14.7682909 L21.3157964,18.8290909 L20.3884364,18.8290909 L20.0197964,17.9247709 L18.3148364,17.9247709 L17.9461964,18.8290909 L17.0418764,18.8290909 Z M18.6316364,17.1414109 L19.7029964,17.1414109 L19.1673164,15.8338909 L18.6316364,17.1414109 Z M23.4757964,18.8924509 C24.5586764,18.8924509 25.2441164,18.2934109 25.2441164,17.0722909 L25.2441164,14.7970909 L24.3570764,14.7970909 L24.3570764,17.1068509 C24.3570764,17.7462109 24.0287564,18.0745309 23.4873164,18.0745309 C22.9458764,18.0745309 22.6175564,17.7346909 22.6175564,17.0780509 L22.6175564,14.7970909 L21.7305164,14.7970909 L21.7305164,17.1010909 C21.7305164,18.2876509 22.3929164,18.8924509 23.4757964,18.8924509 Z M28.0895564,18.8982109 C28.8268364,18.8982109 29.3970764,18.6102109 29.8117964,18.2588509 L29.8117964,16.5078109 L28.0607564,16.5078109 L28.0607564,17.2738909 L28.9535564,17.2738909 L28.9535564,17.8498909 C28.7289164,18.0111709 28.4409164,18.0918109 28.1183564,18.0918109 C27.4041164,18.0918109 26.8972364,17.5503709 26.8972364,16.8130909 L26.8972364,16.8015709 C26.8972364,16.1161309 27.4098764,15.5458909 28.0549964,15.5458909 C28.5215564,15.5458909 28.7980364,15.6956509 29.1090764,15.9548509 L29.6677964,15.2809309 C29.2473164,14.9238109 28.8095564,14.7279709 28.0837964,14.7279709 C26.8626764,14.7279709 25.9698764,15.6668509 25.9698764,16.8130909 L25.9698764,16.8246109 C25.9698764,18.0169309 26.8338764,18.8982109 28.0895564,18.8982109 Z"/>
    <path fill="#000000" d="M16.6286836,33.1854545 L22.8672873,33.1854545 L22.8672873,31.5836509 L19.1939782,31.5836509 L20.5669527,30.5238109 C22.0603636,29.3676218 22.7829818,28.6690909 22.7829818,27.2599855 L22.7829818,27.2358982 C22.7829818,25.6581818 21.6267927,24.6344727 19.8804655,24.6344727 C18.3750109,24.6344727 17.5680873,25.2486982 16.7370764,26.3808 L18.0377891,27.4285964 C18.6640582,26.6578036 19.1096727,26.2964945 19.7600291,26.2964945 C20.4224291,26.2964945 20.8921309,26.6818909 20.8921309,27.3924655 C20.8921309,28.0909964 20.4826473,28.5486545 19.4348509,29.4157964 L16.6286836,31.7161309 L16.6286836,33.1854545 Z M24.1318691,33.1854545 L30.3704727,33.1854545 L30.3704727,31.5836509 L26.6971636,31.5836509 L28.0701382,30.5238109 C29.5635491,29.3676218 30.2861673,28.6690909 30.2861673,27.2599855 L30.2861673,27.2358982 C30.2861673,25.6581818 29.1299782,24.6344727 27.3836509,24.6344727 C25.8781964,24.6344727 25.0712727,25.2486982 24.2402618,26.3808 L25.5409745,27.4285964 C26.1672436,26.6578036 26.6128582,26.2964945 27.2632145,26.2964945 C27.9256145,26.2964945 28.3953164,26.6818909 28.3953164,27.3924655 C28.3953164,28.0909964 27.9858327,28.5486545 26.9380364,29.4157964 L24.1318691,31.7161309 L24.1318691,33.1854545 Z"/>
  </g>
</svg>
