<svg xmlns="http://www.w3.org/2000/svg" width="48" height="47" viewBox="0 0 48 47">
  <defs>
    <linearGradient id="a" x1="0%" y1="50%" y2="50%">
      <stop stop-color="#53A8E2" offset="0%"/>
      <stop stop-color="#64C2EF" offset="49.338%"/>
      <stop stop-color="#76DDFB" offset="100%"/>
    </linearGradient>
    <linearGradient id="b" x1="50%" x2="50%" y1="100%" y2="0%">
      <stop stop-color="#53A8E2" offset="0%"/>
      <stop stop-color="#76DDFB" offset="100%"/>
    </linearGradient>
  </defs>
  <g fill="none" fill-rule="evenodd">
    <rect width="47.473" height="47" fill="url(#a)" rx="4"/>
    <g transform="translate(15 14)">
      <rect width="12.957" height="19.203" x="4.616" y=".398" fill="url(#b)"/>
      <rect width="2.879" height="19.203" x="1.736" y=".398" fill="#FFFFFF"/>
      <rect width="6.83" height="4.124" x="7.679" y="3.523" fill="#FFFFFF"/>
      <path fill="#000000" d="M17.5722545,20 C17.8026545,20 17.9894864,19.8216016 17.9894864,19.6016016 L17.9894864,0.398398437 C17.9894864,0.178398438 17.8026545,0 17.5722545,0 L1.73646818,0 C1.50606818,0 1.31923636,0.178398438 1.31923636,0.398398437 L1.31923636,1.66621094 L0.427745455,1.66621094 C0.197345455,1.66621094 0.0105136364,1.84460938 0.0105136364,2.06460937 C0.0105136364,2.28460938 0.197345455,2.46300781 0.427745455,2.46300781 L1.31923636,2.46300781 L1.31923636,5.58179688 L0.427745455,5.58179688 C0.197345455,5.58179688 0.0105136364,5.76019531 0.0105136364,5.98019531 C0.0105136364,6.20019531 0.197345455,6.37859375 0.427745455,6.37859375 L1.31923636,6.37859375 L1.31923636,9.49734375 L0.427745455,9.49734375 C0.197345455,9.49734375 0.0105136364,9.67574219 0.0105136364,9.89574219 C0.0105136364,10.1157422 0.197345455,10.2941406 0.427745455,10.2941406 L1.31923636,10.2941406 L1.31923636,13.4129297 L0.427745455,13.4129297 C0.197345455,13.4129297 0.0105136364,13.5913281 0.0105136364,13.8113281 C0.0105136364,14.0313281 0.197345455,14.2097266 0.427745455,14.2097266 L1.31923636,14.2097266 L1.31923636,17.3285156 L0.427745455,17.3285156 C0.197345455,17.3285156 0.0105136364,17.5069141 0.0105136364,17.7269141 C0.0105136364,17.9469141 0.197345455,18.1253125 0.427745455,18.1253125 L1.31923636,18.1253125 L1.31923636,19.6014453 C1.31923636,19.8214453 1.50606818,19.9998438 1.73646818,19.9998438 L17.5722545,19.9998438 L17.5722545,20 Z M2.1537,18.1255078 L3.04523182,18.1255078 C3.27563182,18.1255078 3.46246364,17.9471094 3.46246364,17.7271094 C3.46246364,17.5071094 3.27563182,17.3287109 3.04523182,17.3287109 L2.1537,17.3287109 L2.1537,14.2099219 L3.04523182,14.2099219 C3.27563182,14.2099219 3.46246364,14.0315234 3.46246364,13.8115234 C3.46246364,13.5915234 3.27563182,13.413125 3.04523182,13.413125 L2.1537,13.413125 L2.1537,10.2943359 L3.04523182,10.2943359 C3.27563182,10.2943359 3.46246364,10.1159375 3.46246364,9.8959375 C3.46246364,9.6759375 3.27563182,9.49753906 3.04523182,9.49753906 L2.1537,9.49753906 L2.1537,6.37878906 L3.04523182,6.37878906 C3.27563182,6.37878906 3.46246364,6.20039062 3.46246364,5.98039062 C3.46246364,5.76039062 3.27563182,5.58199219 3.04523182,5.58199219 L2.1537,5.58199219 L2.1537,2.46304688 L3.04523182,2.46304688 C3.27563182,2.46304688 3.46246364,2.28464844 3.46246364,2.06464844 C3.46246364,1.84464844 3.27563182,1.66625 3.04523182,1.66625 L2.1537,1.66625 L2.1537,0.796796875 L4.19845909,0.796796875 L4.19845909,19.2031641 L2.1537,19.2031641 L2.1537,18.1255078 L2.1537,18.1255078 Z M17.1549818,19.2032031 L5.03296364,19.2032031 L5.03296364,0.796796875 L17.1549818,0.796796875 L17.1549818,19.2032031 L17.1549818,19.2032031 Z"/>
      <path fill="#000000" d="M7.67916818,8.04484375 L14.5088182,8.04484375 C14.7392182,8.04484375 14.92605,7.86644531 14.92605,7.64644531 L14.92605,3.52253906 C14.92605,3.30253906 14.7392182,3.12414062 14.5088182,3.12414062 L7.67916818,3.12414062 C7.44876818,3.12414062 7.26193636,3.30253906 7.26193636,3.52253906 L7.26193636,7.64644531 C7.26193636,7.86644531 7.44872727,8.04484375 7.67916818,8.04484375 L7.67916818,8.04484375 Z M8.09644091,3.9209375 L14.0915864,3.9209375 L14.0915864,7.24804687 L8.09644091,7.24804687 L8.09644091,3.9209375 L8.09644091,3.9209375 Z"/>
      <path fill="#000000" d="M13.0353136 4.58210937L12.7299273 4.58210937C12.4995273 4.58210937 12.3126955 4.76050781 12.3126955 4.98050781 12.3126955 5.20050781 12.4995273 5.37890625 12.7299273 5.37890625L13.0353136 5.37890625C13.2657136 5.37890625 13.4525455 5.20050781 13.4525455 4.98050781 13.4525455 4.76050781 13.2657136 4.58210937 13.0353136 4.58210937L13.0353136 4.58210937zM11.3339455 4.58210937L9.23993182 4.58210937C9.00953182 4.58210937 8.8227 4.76050781 8.8227 4.98050781 8.8227 5.20050781 9.00953182 5.37890625 9.23993182 5.37890625L11.3339455 5.37890625C11.5643455 5.37890625 11.7511773 5.20050781 11.7511773 4.98050781 11.7511773 4.76050781 11.5643455 4.58210937 11.3339455 4.58210937L11.3339455 4.58210937z"/>
    </g>
  </g>
</svg>
