<svg xmlns="http://www.w3.org/2000/svg" width="14" height="16" viewBox="0 0 14 16">
  <g fill="none" fill-rule="evenodd">
    <rect width="10.077" height="15.363" x="3.59" y=".319" fill="#20A0FF"/>
    <rect width="2.24" height="15.363" x="1.351" y=".319" fill="#FFFFFF"/>
    <rect width="5.312" height="3.299" x="5.973" y="2.818" fill="#FFFFFF"/>
    <path fill="#603813" d="M13.6673091,16 C13.8465091,16 13.9918227,15.8572812 13.9918227,15.6812812 L13.9918227,0.31871875 C13.9918227,0.14271875 13.8465091,0 13.6673091,0 L1.35058636,0 C1.17138636,0 1.02607273,0.14271875 1.02607273,0.31871875 L1.02607273,1.33296875 L0.332690909,1.33296875 C0.153490909,1.33296875 0.00817727273,1.4756875 0.00817727273,1.6516875 C0.00817727273,1.8276875 0.153490909,1.97040625 0.332690909,1.97040625 L1.02607273,1.97040625 L1.02607273,4.4654375 L0.332690909,4.4654375 C0.153490909,4.4654375 0.00817727273,4.60815625 0.00817727273,4.78415625 C0.00817727273,4.96015625 0.153490909,5.102875 0.332690909,5.102875 L1.02607273,5.102875 L1.02607273,7.597875 L0.332690909,7.597875 C0.153490909,7.597875 0.00817727273,7.74059375 0.00817727273,7.91659375 C0.00817727273,8.09259375 0.153490909,8.2353125 0.332690909,8.2353125 L1.02607273,8.2353125 L1.02607273,10.7303438 L0.332690909,10.7303438 C0.153490909,10.7303438 0.00817727273,10.8730625 0.00817727273,11.0490625 C0.00817727273,11.2250625 0.153490909,11.3677813 0.332690909,11.3677813 L1.02607273,11.3677813 L1.02607273,13.8628125 L0.332690909,13.8628125 C0.153490909,13.8628125 0.00817727273,14.0055313 0.00817727273,14.1815313 C0.00817727273,14.3575313 0.153490909,14.50025 0.332690909,14.50025 L1.02607273,14.50025 L1.02607273,15.6811563 C1.02607273,15.8571563 1.17138636,15.999875 1.35058636,15.999875 L13.6673091,15.999875 L13.6673091,16 Z M1.6751,14.5004062 L2.36851364,14.5004062 C2.54771364,14.5004062 2.69302727,14.3576875 2.69302727,14.1816875 C2.69302727,14.0056875 2.54771364,13.8629687 2.36851364,13.8629687 L1.6751,13.8629687 L1.6751,11.3679375 L2.36851364,11.3679375 C2.54771364,11.3679375 2.69302727,11.2252187 2.69302727,11.0492187 C2.69302727,10.8732187 2.54771364,10.7305 2.36851364,10.7305 L1.6751,10.7305 L1.6751,8.23546875 L2.36851364,8.23546875 C2.54771364,8.23546875 2.69302727,8.09275 2.69302727,7.91675 C2.69302727,7.74075 2.54771364,7.59803125 2.36851364,7.59803125 L1.6751,7.59803125 L1.6751,5.10303125 L2.36851364,5.10303125 C2.54771364,5.10303125 2.69302727,4.9603125 2.69302727,4.7843125 C2.69302727,4.6083125 2.54771364,4.46559375 2.36851364,4.46559375 L1.6751,4.46559375 L1.6751,1.9704375 L2.36851364,1.9704375 C2.54771364,1.9704375 2.69302727,1.82771875 2.69302727,1.65171875 C2.69302727,1.47571875 2.54771364,1.333 2.36851364,1.333 L1.6751,1.333 L1.6751,0.6374375 L3.26546818,0.6374375 L3.26546818,15.3625312 L1.6751,15.3625312 L1.6751,14.5004062 L1.6751,14.5004062 Z M13.3427636,15.3625625 L3.91452727,15.3625625 L3.91452727,0.6374375 L13.3427636,0.6374375 L13.3427636,15.3625625 L13.3427636,15.3625625 Z"/>
    <path fill="#603813" d="M5.97268636,6.435875 L11.2846364,6.435875 C11.4638364,6.435875 11.60915,6.29315625 11.60915,6.11715625 L11.60915,2.81803125 C11.60915,2.64203125 11.4638364,2.4993125 11.2846364,2.4993125 L5.97268636,2.4993125 C5.79348636,2.4993125 5.64817273,2.64203125 5.64817273,2.81803125 L5.64817273,6.11715625 C5.64817273,6.29315625 5.79345455,6.435875 5.97268636,6.435875 L5.97268636,6.435875 Z M6.29723182,3.13675 L10.9601227,3.13675 L10.9601227,5.7984375 L6.29723182,5.7984375 L6.29723182,3.13675 L6.29723182,3.13675 Z"/>
    <path fill="#603813" d="M10.1385773 3.6656875L9.90105455 3.6656875C9.72185455 3.6656875 9.57654091 3.80840625 9.57654091 3.98440625 9.57654091 4.16040625 9.72185455 4.303125 9.90105455 4.303125L10.1385773 4.303125C10.3177773 4.303125 10.4630909 4.16040625 10.4630909 3.98440625 10.4630909 3.80840625 10.3177773 3.6656875 10.1385773 3.6656875L10.1385773 3.6656875zM8.81529091 3.6656875L7.18661364 3.6656875C7.00741364 3.6656875 6.8621 3.80840625 6.8621 3.98440625 6.8621 4.16040625 7.00741364 4.303125 7.18661364 4.303125L8.81529091 4.303125C8.99449091 4.303125 9.13980455 4.16040625 9.13980455 3.98440625 9.13980455 3.80840625 8.99449091 3.6656875 8.81529091 3.6656875L8.81529091 3.6656875z"/>
  </g>
</svg>
