<svg xmlns="http://www.w3.org/2000/svg" width="48" height="47" viewBox="0 0 48 47">
  <defs>
    <linearGradient id="a" x1="0%" y1="0%" y2="50%">
      <stop stop-color="#B24592" offset="0%"/>
      <stop stop-color="#F15F79" offset="100%"/>
    </linearGradient>
  </defs>
  <g fill="none" fill-rule="evenodd">
    <rect width="47.473" height="47" fill="url(#a)" rx="4"/>
    <path fill="#FFFFFF" d="M27.3333331,24.0000004 C27.3333331,23.0798613 27.0078121,22.2942707 26.3567709,21.6432294 C25.7057289,20.9921874 24.9201391,20.6666664 24,20.6666664 C23.0798609,20.6666664 22.2942704,20.9921874 21.6432291,21.6432294 C20.9921871,22.2942707 20.6666669,23.0798613 20.6666669,24.0000004 C20.6666669,24.9201387 20.9921871,25.7057293 21.6432291,26.3567706 C22.2942704,27.0078126 23.0798609,27.3333336 24,27.3333336 C24.9201391,27.3333336 25.7057289,27.0078126 26.3567709,26.3567706 C27.0078121,25.7057293 27.3333331,24.9201387 27.3333331,24.0000004 Z M34,22.5807293 L34,25.4713545 C34,25.5755208 33.9652777,25.675347 33.895833,25.7708332 C33.8263883,25.8663194 33.7395829,25.9227433 33.6354167,25.9401041 L31.2265627,26.3046875 C31.0616318,26.7734378 30.8923609,27.1684027 30.71875,27.4895837 C31.0225695,27.9236109 31.486979,28.5225698 32.1119787,29.2864589 C32.1987849,29.3906251 32.2421872,29.4991321 32.2421872,29.6119791 C32.2421872,29.7248269 32.2031249,29.8246531 32.1249995,29.9114586 C31.8906247,30.2326388 31.4609375,30.7013891 30.835937,31.3177088 C30.2109374,31.9340277 29.8029509,32.242188 29.6119793,32.242188 C29.5078123,32.242188 29.3949653,32.2031256 29.2734375,32.1250002 L27.4765624,30.7187499 C27.0946183,30.9184031 26.6996526,31.0833333 26.2916662,31.2135418 C26.1527776,32.3940973 26.0269099,33.2013894 25.9140621,33.6354167 C25.8532982,33.8784722 25.6970481,34 25.4453125,34 L22.5546875,34 C22.4331597,34 22.3268227,33.9631077 22.2356772,33.889323 C22.144531,33.8155383 22.0946179,33.7222229 22.0859371,33.6093751 L21.7213538,31.2135418 C21.2960066,31.0746533 20.9053817,30.9140631 20.5494791,30.7317715 L18.7135417,32.1250002 C18.6267363,32.2031256 18.5182293,32.242188 18.3880207,32.242188 C18.266493,32.242188 18.157986,32.1944448 18.0624997,32.0989586 C16.9687497,31.1093756 16.2526039,30.3802089 15.9140629,29.9114586 C15.8532982,29.8246531 15.8229166,29.7248269 15.8229166,29.6119791 C15.8229166,29.5078129 15.857639,29.4079867 15.9270836,29.3125004 C16.0572914,29.1302088 16.2786462,28.8415801 16.5911456,28.4466144 C16.9036459,28.0516495 17.1380206,27.74566 17.2942707,27.528646 C17.059896,27.094618 16.8819443,26.6649308 16.7604165,26.2395836 L14.3776041,25.888021 C14.2647571,25.8706594 14.1736109,25.8164063 14.104167,25.7252609 C14.0347223,25.6341147 14,25.5321184 14,25.4192707 L14,22.5286462 C14,22.4244792 14.0347223,22.324653 14.104167,22.2291668 C14.1736109,22.1336806 14.2560763,22.0772567 14.3515626,22.0598959 L16.7734373,21.6953125 C16.8949651,21.2960069 17.064236,20.8967012 17.28125,20.4973955 C16.9340274,20.0026044 16.4696179,19.4036455 15.8880205,18.7005204 C15.8012151,18.5963541 15.7578128,18.4921871 15.7578128,18.3880209 C15.7578128,18.3012155 15.7968751,18.2013885 15.8749998,18.0885414 C16.1006945,17.7760412 16.5282117,17.3094616 17.1575522,16.688802 C17.7868926,16.0681423 18.1970483,15.757812 18.3880207,15.757812 C18.5008677,15.757812 18.6137155,15.8012152 18.7265625,15.8880206 L20.5234376,17.2812501 C20.9053817,17.0815969 21.3003474,16.9166667 21.708333,16.7864582 C21.8472224,15.6059027 21.9730901,14.7986106 22.0859371,14.3645833 C22.146701,14.1215278 22.3029511,14 22.5546875,14 L25.4453125,14 C25.5668403,14 25.6731773,14.0368923 25.7643228,14.110677 C25.855469,14.1844617 25.9053821,14.2777779 25.9140621,14.3906249 L26.2786454,16.7864582 C26.7039926,16.9253467 27.0946183,17.0859376 27.4505209,17.2682293 L29.2994791,15.8749998 C29.3776037,15.7968752 29.4817707,15.757812 29.6119793,15.757812 C29.7248263,15.757812 29.8333333,15.8012152 29.9374995,15.8880206 C31.0572918,16.9210067 31.7734369,17.6588542 32.0859371,18.1015622 C32.146701,18.1710069 32.1770834,18.2664931 32.1770834,18.3880209 C32.1770834,18.4921871 32.142361,18.5920141 32.0729164,18.6874996 C31.9427078,18.8697912 31.7213538,19.1584199 31.4088536,19.5533856 C31.0963541,19.9483505 30.8619794,20.25434 30.7057293,20.471354 C30.9314233,20.905382 31.1093749,21.3307292 31.2395835,21.7473957 L33.6223959,22.111979 C33.7352429,22.1293406 33.8263883,22.1835937 33.895833,22.2747399 C33.9652777,22.3658853 34,22.4678816 34,22.5807293 Z"/>
  </g>
</svg>
