<svg xmlns="http://www.w3.org/2000/svg" width="21" height="22" viewBox="0 0 21 22">
  <path fill="#B3B3B3" fill-rule="evenodd" d="M342,89.0000004 C342,87.9878474 341.658203,87.1236977 340.974609,86.4075524 C340.291015,85.6914062 339.466146,85.333333 338.5,85.333333 C337.533854,85.333333 336.708984,85.6914062 336.025391,86.4075524 C335.341797,87.1236977 335,87.9878474 335,89.0000004 C335,90.0121526 335.341797,90.8763023 336.025391,91.5924476 C336.708984,92.3085938 337.533854,92.666667 338.5,92.666667 C339.466146,92.666667 340.291015,92.3085938 340.974609,91.5924476 C341.658203,90.8763023 342,90.0121526 342,89.0000004 Z M349,87.4388023 L349,90.61849 C349,90.7330728 348.963542,90.8428817 348.890625,90.9479165 C348.817708,91.0529514 348.726562,91.1150177 348.617188,91.1341145 L346.087891,91.5351562 C345.914713,92.0507816 345.736979,92.485243 345.554688,92.8385421 C345.873698,93.315972 346.361328,93.9748268 347.017578,94.8151048 C347.108724,94.9296876 347.154297,95.0490453 347.154297,95.173177 C347.154297,95.2973096 347.113281,95.4071184 347.031249,95.5026044 C346.785156,95.8559027 346.333984,96.371528 345.677734,97.0494797 C345.021484,97.7274305 344.593098,98.0664067 344.392578,98.0664067 C344.283203,98.0664067 344.164714,98.0234382 344.037109,97.9375002 L342.150391,96.3906249 C341.749349,96.6102435 341.334635,96.7916666 340.90625,96.934896 C340.760417,98.233507 340.628255,99.1215284 340.509765,99.5989583 C340.445963,99.8663194 340.2819,100 340.017578,100 L336.982422,100 C336.854818,100 336.743164,99.9594184 336.647461,99.8782553 C336.551758,99.7970922 336.499349,99.6944452 336.490234,99.5703126 L336.107421,96.934896 C335.660807,96.7821186 335.250651,96.6054695 334.876953,96.4049486 L332.949219,97.9375002 C332.858073,98.0234382 332.744141,98.0664067 332.607422,98.0664067 C332.479818,98.0664067 332.365885,98.0138893 332.265625,97.9088545 C331.117187,96.8203131 330.365234,96.0182298 330.009766,95.5026044 C329.945963,95.4071184 329.914062,95.2973096 329.914062,95.173177 C329.914062,95.0585942 329.950521,94.9487853 330.023438,94.8437505 C330.160156,94.6432296 330.392579,94.3257381 330.720703,93.8912758 C331.048828,93.4568145 331.294922,93.1202261 331.458984,92.8815106 C331.212891,92.4040798 331.026042,91.9314239 330.898437,91.4635419 L328.396484,91.0768231 C328.277995,91.0577254 328.182291,90.998047 328.109375,90.897787 C328.036458,90.7975261 328,90.6853303 328,90.5611977 L328,87.3815109 C328,87.2669272 328.036458,87.1571183 328.109375,87.0520835 C328.182291,86.9470486 328.26888,86.8849823 328.369141,86.8658855 L330.912109,86.4648438 C331.039713,86.0256076 331.217448,85.5863713 331.445312,85.1471351 C331.080729,84.6028648 330.593099,83.94401 329.982422,83.1705724 C329.891276,83.0559895 329.845703,82.9414058 329.845703,82.826823 C329.845703,82.731337 329.886719,82.6215273 329.96875,82.4973956 C330.205729,82.1536453 330.654622,81.6404078 331.31543,80.9576822 C331.976237,80.2749565 332.406901,79.9335933 332.607422,79.9335933 C332.725911,79.9335933 332.844401,79.9813367 332.962891,80.0768227 L334.849609,81.6093751 C335.250651,81.3897565 335.665365,81.2083334 336.09375,81.065104 C336.239583,79.766493 336.371745,78.8784716 336.490234,78.4010417 C336.554036,78.1336806 336.718099,78 336.982422,78 L340.017578,78 C340.145182,78 340.256836,78.0405816 340.352539,78.1217447 C340.448242,78.2029078 340.500651,78.3055557 340.509765,78.4296874 L340.892578,81.065104 C341.339192,81.2178814 341.749349,81.3945314 342.123047,81.5950522 L344.064453,80.0624998 C344.146484,79.9765627 344.255859,79.9335933 344.392578,79.9335933 C344.511068,79.9335933 344.625,79.9813367 344.734374,80.0768227 C345.910156,81.2131074 346.662109,82.0247396 346.990234,82.5117184 C347.054036,82.5881076 347.085938,82.6931424 347.085938,82.826823 C347.085938,82.9414058 347.049479,83.0512155 346.976562,83.1562495 C346.839843,83.3567704 346.607421,83.6742619 346.279296,84.1087242 C345.951172,84.5431855 345.705078,84.8797739 345.541016,85.1184894 C345.777994,85.5959202 345.964844,86.0638021 346.101563,86.5221352 L348.603516,86.9231769 C348.722005,86.9422746 348.817708,87.001953 348.890625,87.1022139 C348.963542,87.2024739 349,87.3146697 349,87.4388023 Z" transform="translate(-328 -78)"/>
</svg>
