<svg xmlns="http://www.w3.org/2000/svg" width="600" height="274" viewBox="0 0 600 274" xmlns:xlink="http://www.w3.org/1999/xlink">
  <defs>
    <rect id="a" width="390" height="66" x="49" y="132" rx="2"/>
    <mask id="e" width="390" height="66" x="0" y="0" fill="white">
      <use xlink:href="#a"/>
    </mask>
    <rect id="b" width="36" height="36" y="91" rx="2"/>
    <mask id="f" width="36" height="36" x="0" y="0" fill="white">
      <use xlink:href="#b"/>
    </mask>
    <rect id="c" width="36" height="36" rx="2"/>
    <mask id="g" width="36" height="36" x="0" y="0" fill="white">
      <use xlink:href="#c"/>
    </mask>
    <rect id="d" width="36" height="36" y="238" rx="2"/>
    <mask id="h" width="36" height="36" x="0" y="0" fill="white">
      <use xlink:href="#d"/>
    </mask>
  </defs>
  <g fill="none" fill-rule="evenodd">
    <use fill="#FFFFFF" stroke="#E7E7E7" stroke-width="2" mask="url(#e)" xlink:href="#a"/>
    <use fill="#F7F7F7" stroke="#E7E7E7" stroke-width="2" mask="url(#f)" xlink:href="#b"/>
    <path fill="#E7E7E7" d="M24.575893,6.647321 C24.888393,6.959821 25.15625,7.383929 25.379464,7.919643 C25.602679,8.455357 25.714286,8.946429 25.714286,9.392857 L25.714286,28.678571 C25.714286,29.125 25.558036,29.504464 25.245536,29.816964 C24.933036,30.129464 24.553571,30.285714 24.107143,30.285714 L1.607143,30.285714 C1.160714,30.285714 0.78125,30.129464 0.46875,29.816964 C0.15625,29.504464 0,29.125 0,28.678571 L0,1.892857 C0,1.446429 0.15625,1.066964 0.46875,0.754464 C0.78125,0.441964 1.160714,0.285714 1.607143,0.285714 L16.607143,0.285714 C17.053571,0.285714 17.544643,0.397321 18.080357,0.620536 C18.616071,0.84375 19.040179,1.111607 19.352679,1.424107 L24.575893,6.647321 Z M17.142857,2.5625 L17.142857,8.857143 L23.4375,8.857143 C23.325893,8.533482 23.203125,8.304688 23.069196,8.170759 L17.829241,2.930804 C17.695312,2.796875 17.466518,2.674107 17.142857,2.5625 L17.142857,2.5625 Z M23.571429,28.142857 L23.571429,11 L16.607143,11 C16.160714,11 15.78125,10.84375 15.46875,10.53125 C15.15625,10.21875 15,9.839286 15,9.392857 L15,2.428571 L2.142857,2.428571 L2.142857,28.142857 L23.571429,28.142857 Z M14.966518,18.215402 C15.334821,18.50558 15.803571,18.81808 16.372768,19.152902 C17.03125,19.074777 17.684152,19.035714 18.331473,19.035714 C19.972098,19.035714 20.959821,19.309152 21.294643,19.856027 C21.473214,20.101562 21.484375,20.391741 21.328125,20.726562 C21.328125,20.737723 21.322545,20.748884 21.311384,20.760045 C21.300223,20.771205 21.289062,20.782366 21.277902,20.793527 L21.277902,20.810268 C21.210938,21.234375 20.814732,21.446429 20.089286,21.446429 C19.553571,21.446429 18.91183,21.334821 18.164062,21.111607 C17.416295,20.888393 16.690848,20.592634 15.987723,20.22433 C13.521205,20.492188 11.333705,20.955357 9.425223,21.613839 C7.717634,24.537946 6.367188,26 5.373884,26 C5.206473,26 5.050223,25.960938 4.905134,25.882812 L4.503348,25.68192 C4.492188,25.670759 4.458705,25.642857 4.402902,25.598214 C4.291295,25.486607 4.257812,25.285714 4.302455,24.995536 C4.402902,24.549107 4.715402,24.038504 5.239955,23.463728 C5.764509,22.888951 6.501116,22.350446 7.449777,21.848214 C7.606027,21.747768 7.734375,21.78125 7.834821,21.948661 C7.857143,21.970982 7.868304,21.993304 7.868304,22.015625 C8.448661,21.066964 9.045759,19.967634 9.659598,18.717634 C10.418527,17.199777 10.998884,15.737723 11.40067,14.331473 C11.132812,13.416295 10.962612,12.526228 10.890067,11.661272 C10.817522,10.796317 10.853795,10.084821 10.998884,9.526786 C11.121652,9.080357 11.356027,8.857143 11.702009,8.857143 L12.053571,8.857143 L12.070312,8.857143 C12.327009,8.857143 12.522321,8.940848 12.65625,9.108259 C12.857143,9.342634 12.907366,9.722098 12.80692,10.246652 C12.784598,10.313616 12.762277,10.358259 12.739955,10.38058 C12.751116,10.414062 12.756696,10.458705 12.756696,10.514509 L12.756696,11.016741 C12.734375,12.389509 12.65625,13.460938 12.522321,14.231027 C13.136161,16.061384 13.950893,17.389509 14.966518,18.215402 L14.966518,18.215402 Z M5.323661,25.095982 C5.904018,24.828125 6.668527,23.946429 7.617188,22.450893 C7.047991,22.897321 6.55971,23.366071 6.152344,23.857143 C5.744978,24.348214 5.46875,24.761161 5.323661,25.095982 L5.323661,25.095982 Z M11.986607,9.694196 C11.819196,10.162946 11.808036,10.899554 11.953125,11.904018 C11.964286,11.825893 12.003348,11.580357 12.070312,11.167411 C12.070312,11.133929 12.109375,10.893973 12.1875,10.447545 C12.198661,10.402902 12.220982,10.358259 12.254464,10.313616 C12.243304,10.302455 12.237723,10.291295 12.237723,10.280134 C12.237723,10.268973 12.234933,10.260603 12.229353,10.255022 C12.223772,10.249442 12.220982,10.241071 12.220982,10.229911 C12.209821,9.984375 12.137277,9.783482 12.003348,9.627232 C12.003348,9.638393 11.997768,9.649554 11.986607,9.660714 L11.986607,9.694196 Z M9.910714,20.760045 C11.417411,20.157366 13.002232,19.705357 14.665179,19.404018 C14.642857,19.392857 14.570312,19.339844 14.447545,19.244978 C14.324777,19.150112 14.235491,19.074777 14.179688,19.018973 C13.331473,18.271205 12.622768,17.289062 12.053571,16.072545 C11.752232,17.032366 11.289062,18.131696 10.664062,19.370536 C10.329241,19.995536 10.078125,20.458705 9.910714,20.760045 L9.910714,20.760045 Z M20.725446,20.492188 C20.457589,20.22433 19.676339,20.090402 18.381696,20.090402 C19.229911,20.402902 19.921875,20.559152 20.457589,20.559152 C20.613839,20.559152 20.714286,20.553571 20.758929,20.542411 C20.758929,20.53125 20.747768,20.514509 20.725446,20.492188 L20.725446,20.492188 Z" transform="translate(65 149)"/>
    <use fill="#F7F7F7" stroke="#E7E7E7" stroke-width="2" mask="url(#g)" xlink:href="#c"/>
    <rect width="390" height="17" x="50" y="18" fill="#F7F7F7"/>
    <rect width="132" height="12" x="50" fill="#F7F7F7"/>
    <rect width="250" height="17" x="50" y="109" fill="#F7F7F7"/>
    <rect width="112" height="12" x="50" y="91" fill="#F7F7F7"/>
    <path fill="#E7E7E7" fill-rule="nonzero" d="M15.6 108.8C15.048 108.8 14.6 109.248 14.6 109.8 14.6 110.352 15.048 110.8 15.6 110.8 16.152 110.8 16.6 110.352 16.6 109.8 16.6 109.248 16.152 108.8 15.6 108.8zM20.4 108.8C19.848 108.8 19.4 109.248 19.4 109.8 19.4 110.352 19.848 110.8 20.4 110.8 20.952 110.8 21.4 110.352 21.4 109.8 21.4 109.248 20.952 108.8 20.4 108.8zM18 101C13.584 101 10 104.584 10 109 10 113.416 13.584 117 18 117 22.416 117 26 113.416 26 109 26 104.584 22.416 101 18 101zM18 115.4C14.472 115.4 11.6 112.528 11.6 109 11.6 108.768 11.616 108.536 11.64 108.312 13.528 107.472 15.024 105.928 15.808 104.016 17.256 106.064 19.64 107.4 22.336 107.4 22.96 107.4 23.56 107.328 24.136 107.192 24.304 107.76 24.4 108.368 24.4 109 24.4 112.528 21.528 115.4 18 115.4zM15.6 17.8C15.048 17.8 14.6 18.248 14.6 18.8 14.6 19.352 15.048 19.8 15.6 19.8 16.152 19.8 16.6 19.352 16.6 18.8 16.6 18.248 16.152 17.8 15.6 17.8zM20.4 17.8C19.848 17.8 19.4 18.248 19.4 18.8 19.4 19.352 19.848 19.8 20.4 19.8 20.952 19.8 21.4 19.352 21.4 18.8 21.4 18.248 20.952 17.8 20.4 17.8zM18 10C13.584 10 10 13.584 10 18 10 22.416 13.584 26 18 26 22.416 26 26 22.416 26 18 26 13.584 22.416 10 18 10zM18 24.4C14.472 24.4 11.6 21.528 11.6 18 11.6 17.768 11.616 17.536 11.64 17.312 13.528 16.472 15.024 14.928 15.808 13.016 17.256 15.064 19.64 16.4 22.336 16.4 22.96 16.4 23.56 16.328 24.136 16.192 24.304 16.76 24.4 17.368 24.4 18 24.4 21.528 21.528 24.4 18 24.4z"/>
    <rect width="132" height="12" x="106" y="153" fill="#F7F7F7"/>
    <rect width="27" height="10" x="106" y="170" fill="#F7F7F7"/>
    <use fill="#F7F7F7" stroke="#E7E7E7" stroke-width="2" mask="url(#h)" xlink:href="#d"/>
    <rect width="550" height="17" x="50" y="256" fill="#F7F7F7"/>
    <rect width="92" height="12" x="50" y="238" fill="#F7F7F7"/>
    <path fill="#E7E7E7" fill-rule="nonzero" d="M15.6,255.8 C15.048,255.8 14.6,256.248 14.6,256.8 C14.6,257.352 15.048,257.8 15.6,257.8 C16.152,257.8 16.6,257.352 16.6,256.8 C16.6,256.248 16.152,255.8 15.6,255.8 Z M20.4,255.8 C19.848,255.8 19.4,256.248 19.4,256.8 C19.4,257.352 19.848,257.8 20.4,257.8 C20.952,257.8 21.4,257.352 21.4,256.8 C21.4,256.248 20.952,255.8 20.4,255.8 Z M18,248 C13.584,248 10,251.584 10,256 C10,260.416 13.584,264 18,264 C22.416,264 26,260.416 26,256 C26,251.584 22.416,248 18,248 Z M18,262.4 C14.472,262.4 11.6,259.528 11.6,256 C11.6,255.768 11.616,255.536 11.64,255.312 C13.528,254.472 15.024,252.928 15.808,251.016 C17.256,253.064 19.64,254.4 22.336,254.4 C22.96,254.4 23.56,254.328 24.136,254.192 C24.304,254.76 24.4,255.368 24.4,256 C24.4,259.528 21.528,262.4 18,262.4 Z"/>
  </g>
</svg>
