<svg xmlns="http://www.w3.org/2000/svg" width="20" height="16" viewBox="0 0 20 16">
  <path fill="#000000" d="M255.333334,764 C255.791667,764 256.184028,764.163194 256.510417,764.489583 C256.836805,764.815972 257,765.208333 257,765.666666 L257,778.333334 C257,778.791667 256.836805,779.184028 256.510417,779.510417 C256.184028,779.836806 255.791667,780 255.333334,780 L238.666666,780 C238.208333,780 237.815972,779.836806 237.489583,779.510417 C237.163195,779.184028 237,778.791667 237,778.333334 L237,765.666666 C237,765.208333 237.163195,764.815972 237.489583,764.489583 C237.815972,764.163194 238.208333,764 238.666666,764 L255.333334,764 Z M238.666666,765.333333 C238.576389,765.333333 238.498264,765.366319 238.432291,765.432292 C238.36632,765.498264 238.333333,765.576389 238.333333,765.666666 L238.333333,768 L255.666667,768 L255.666667,765.666666 C255.666667,765.576389 255.633681,765.498264 255.567709,765.432292 C255.501736,765.366319 255.423611,765.333333 255.333334,765.333333 L238.666666,765.333333 Z M255.333334,778.666667 C255.423611,778.666667 255.501736,778.633681 255.567709,778.567708 C255.633681,778.501736 255.666667,778.423611 255.666667,778.333334 L255.666667,772 L238.333333,772 L238.333333,778.333334 C238.333333,778.423611 238.36632,778.501736 238.432291,778.567708 C238.498264,778.633681 238.576389,778.666667 238.666666,778.666667 L255.333334,778.666667 Z M239.666667,777.333333 L239.666667,776 L242.333334,776 L242.333334,777.333333 L239.666667,777.333333 Z M243.666667,777.333333 L243.666667,776 L247.666667,776 L247.666667,777.333333 L243.666667,777.333333 Z" transform="translate(-237 -764)"/>
</svg>
