<svg xmlns="http://www.w3.org/2000/svg" width="20" height="16" viewBox="0 0 20 16">
  <g fill="none" fill-rule="evenodd">
    <path fill="#000000" fill-rule="nonzero" d="M18.3333336,0 C18.7916668,0 19.1840277,0.16319396 19.5104169,0.489583125 C19.8368054,0.815972289 20,1.20833319 20,1.66666645 L20,14.3333336 C20,14.7916668 19.8368054,15.1840283 19.5104169,15.5104169 C19.1840277,15.836806 18.7916668,16 18.3333336,16 L1.66666641,16 C1.20833316,16 0.81597227,15.836806 0.489583113,15.5104169 C0.163194579,15.1840283 0,14.7916668 0,14.3333336 L0,1.66666645 C0,1.20833319 0.163194579,0.815972289 0.489583113,0.489583125 C0.81597227,0.16319396 1.20833316,0 1.66666641,0 L18.3333336,0 Z M18.3333336,14.6666667 C18.4236112,14.6666667 18.5017362,14.600695 18.5677085,14.4687503 C18.6336809,14.3368055 18.6666667,14.1805556 18.6666667,14.0000004 L18.6666667,2.3272654 C18.6666667,1.77833185 18.2207813,1.33333328 17.6598325,1.33333328 L2.34016747,1.33333328 C1.78410828,1.33333328 1.33333325,1.78414667 1.33333325,2.3272654 L1.33333325,14.0000004 C1.33333325,14.1805556 1.36631974,14.3368055 1.43229147,14.4687503 C1.49826383,14.600695 1.57638881,14.6666667 1.66666641,14.6666667 L18.3333336,14.6666667 Z"/>
    <path fill="#000000" d="M4.65625,6 L4,6 L4,8.77148438 C4,9.68847656 4.65039062,10.3300781 5.7109375,10.3300781 C6.77148438,10.3300781 7.42480469,9.68847656 7.42480469,8.77148438 L7.42480469,6 L6.76855469,6 L6.76855469,8.71289062 C6.76855469,9.3046875 6.38476562,9.71484375 5.7109375,9.71484375 C5.04003906,9.71484375 4.65625,9.3046875 4.65625,8.71289062 L4.65625,6 Z M8.49414062,6 L10.1494141,6 C10.9755859,6 11.5439453,6.57128906 11.5439453,7.40917969 C11.5439453,8.23535156 10.9580078,8.80371094 10.1289062,8.80371094 L9.15039062,8.80371094 L9.15039062,10.2275391 L8.49414062,10.2275391 L8.49414062,6 Z M9.15039062,6.58007812 L9.15039062,8.2265625 L9.9765625,8.2265625 C10.5419922,8.2265625 10.8730469,7.93359375 10.8730469,7.40917969 C10.8730469,6.87304688 10.5537109,6.58007812 9.9765625,6.58007812 L9.15039062,6.58007812 Z M13.0439453,10.2275391 L13.0439453,6 L12.3876953,6 L12.3876953,10.2275391 L13.0439453,10.2275391 Z"/>
    <path fill="#4A4A4A" fill-rule="nonzero" d="M17,8.49999991 C17,8.55078124 16.9780092,8.59472654 16.9340279,8.63183581 L15.3784723,9.94433582 C15.3344907,9.98144527 15.2824074,10 15.2222223,10 C15.162037,10 15.1099537,9.98144527 15.0659721,9.94433582 C15.0219908,9.90722655 15,9.86328125 15,9.81249992 L15,7.1874999 C15,7.13671875 15.0219908,7.09277328 15.0659721,7.055664 C15.1099537,7.01855455 15.162037,7 15.2222223,7 C15.2824074,7 15.3344907,7.01855455 15.3784723,7.055664 L16.9340279,8.36816401 C16.9780092,8.40527329 17,8.44921876 17,8.49999991 Z"/>
    <path fill="#000000" fill-rule="nonzero" d="M16,8.49999991 C16,8.55078124 15.9780092,8.59472654 15.9340279,8.63183581 L14.3784723,9.94433582 C14.3344907,9.98144527 14.2824074,10 14.2222223,10 C14.162037,10 14.1099537,9.98144527 14.0659721,9.94433582 C14.0219908,9.90722655 14,9.86328125 14,9.81249992 L14,7.1874999 C14,7.13671875 14.0219908,7.09277328 14.0659721,7.055664 C14.1099537,7.01855455 14.162037,7 14.2222223,7 C14.2824074,7 14.3344907,7.01855455 14.3784723,7.055664 L15.9340279,8.36816401 C15.9780092,8.40527329 16,8.44921876 16,8.49999991 Z"/>
  </g>
</svg>
