<svg xmlns="http://www.w3.org/2000/svg" width="20" height="16" viewBox="0 0 20 16">
  <g fill="#000000" fill-rule="evenodd">
    <path d="M0.84,4.19576098 C0.84,3.89386105 1.08726471,3.64912281 1.39306969,3.64912281 L17.9460942,3.64912281 C18.7048814,3.64912281 19.32,4.26160473 19.32,5.01807296 L19.32,14.6310498 C19.32,15.3871001 18.7051373,16 17.9460942,16 L2.21390582,16 C1.45511859,16 0.84,15.3875181 0.84,14.6310498 L0.84,4.19576098 Z M1.96,5.46650549 L1.96,14.1826173 C1.96,14.5636815 2.26316443,14.877193 2.6371367,14.877193 L17.5228633,14.877193 C17.8900859,14.877193 18.2,14.5662209 18.2,14.1826173 L18.2,5.46650549 C18.2,5.08544132 17.8968356,4.77192982 17.5228633,4.77192982 L2.6371367,4.77192982 C2.2699141,4.77192982 1.96,5.08290194 1.96,5.46650549 Z"/>
    <path d="M14.56 11.7894737C13.4775219 11.7894737 12.6 10.9097525 12.6 9.8245614 12.6 8.73937032 13.4775219 7.85964912 14.56 7.85964912 15.6424781 7.85964912 16.52 8.73937032 16.52 9.8245614 16.52 10.9097525 15.6424781 11.7894737 14.56 11.7894737zM14.56 10.6666667C15.0239192 10.6666667 15.4 10.2896433 15.4 9.8245614 15.4 9.35947951 15.0239192 8.98245614 14.56 8.98245614 14.0960808 8.98245614 13.72 9.35947951 13.72 9.8245614 13.72 10.2896433 14.0960808 10.6666667 14.56 10.6666667zM.84 3.81840549C.84 3.05916468 1.45467458 2.35132834 2.20406744 2.23873793L15.1559326.292821591C15.9092862.179636105 16.52.696191632 16.52 1.46066229L16.52 4.21052632.84 4.21052632.84 3.81840549zM1.96 4.21052632L15.4 4.21052632 15.4 1.97272747C15.4 1.6087784 15.093329 1.3486849 14.7150311 1.412469L2.64496895 3.44757972C2.26596535 3.51148281 1.96 3.85294665 1.96 4.21052632z"/>
  </g>
</svg>
