<svg xmlns="http://www.w3.org/2000/svg" width="44" height="44" viewBox="0 0 44 44">
  <g fill="none" fill-rule="evenodd">
    <rect width="43.2" height="43.2" x=".365" y=".8" fill="#A3C6A2" rx="3.6"/>
    <path fill="#314731" d="M15.5631049,32.0202383 C15.5631049,32.4376036 15.224816,32.7758633 14.8074799,32.7758633 C14.3901438,32.7758633 14.0518549,32.4376036 14.0518549,32.0202383 C14.0518549,31.6029563 14.3901979,31.2646133 14.8074799,31.2646133 C15.2247619,31.2646133 15.5631049,31.6029563 15.5631049,32.0202383 L15.5631049,32.0202383 Z M16.2500367,32.0202383 C16.2500367,31.2235744 15.6041438,30.5776815 14.8074799,30.5776815 C14.010816,30.5776815 13.3649231,31.2235744 13.3649231,32.0202383 C13.3649231,32.8169988 14.0107751,33.4627951 14.8074799,33.4627951 C15.6041846,33.4627951 16.2500367,32.8169988 16.2500367,32.0202383 L16.2500367,32.0202383 Z M21.6538546,25.2425568 C21.6538546,25.6598929 21.3155948,25.9981818 20.8982296,25.9981818 C20.4809476,25.9981818 20.1426046,25.6598388 20.1426046,25.2425568 C20.1426046,24.8252748 20.4809476,24.4869318 20.8982296,24.4869318 C21.3155948,24.4869318 21.6538546,24.8252208 21.6538546,25.2425568 L21.6538546,25.2425568 Z M22.3407864,25.2425568 C22.3407864,24.4458521 21.6949901,23.8 20.8982296,23.8 C20.1015656,23.8 19.4556727,24.4458929 19.4556727,25.2425568 C19.4556727,26.0392208 20.1015656,26.6851136 20.8982296,26.6851136 C21.6949901,26.6851136 22.3407864,26.0392616 22.3407864,25.2425568 L22.3407864,25.2425568 Z M26.1189114,29.3298011 C26.1189114,29.7471372 25.7806516,30.0854261 25.3632864,30.0854261 C24.9460044,30.0854261 24.6076614,29.7470831 24.6076614,29.3298011 C24.6076614,28.9125192 24.9460044,28.5741761 25.3632864,28.5741761 C25.7806516,28.5741761 26.1189114,28.9124651 26.1189114,29.3298011 L26.1189114,29.3298011 Z M26.8058432,29.3298011 C26.8058432,28.5330964 26.1600469,27.8872443 25.3632864,27.8872443 C24.5666224,27.8872443 23.9207296,28.5331372 23.9207296,29.3298011 C23.9207296,30.1264651 24.5666224,30.772358 25.3632864,30.772358 C26.1600469,30.772358 26.8058432,30.1265059 26.8058432,29.3298011 L26.8058432,29.3298011 Z M33.4003886,27.3720455 C33.4003886,27.7893815 33.0621289,28.1276705 32.6447636,28.1276705 C32.2274817,28.1276705 31.8891386,27.7893274 31.8891386,27.3720455 C31.8891386,26.9547635 32.2274817,26.6164205 32.6447636,26.6164205 C33.0621289,26.6164205 33.4003886,26.9547094 33.4003886,27.3720455 L33.4003886,27.3720455 Z M34.0873205,27.3720455 C34.0873205,26.5753407 33.4415242,25.9294886 32.6447636,25.9294886 C31.8480997,25.9294886 31.2022068,26.5753815 31.2022068,27.3720455 C31.2022068,28.1687094 31.8480997,28.8146023 32.6447636,28.8146023 C33.4415242,28.8146023 34.0873205,28.1687502 34.0873205,27.3720455 L34.0873205,27.3720455 Z M15.5026623,31.3413358 L20.3455316,26.2580403 L19.8481782,25.7842103 L15.0053088,30.8675058 L15.5026623,31.3413358 L15.5026623,31.3413358 Z M15.0053088,30.8675058 L15.5026623,31.3413358 L20.3455316,26.2580403 L19.8481782,25.7842103 L15.0053088,30.8675058 L15.0053088,30.8675058 Z M21.3211609,26.219509 L24.1375813,29.2763556 L24.6427762,28.8108951 L21.8263558,25.7540485 L21.3211609,26.219509 L21.3211609,26.219509 Z M21.8263558,25.7540485 L21.3211609,26.219509 L24.1375813,29.2763556 L24.6427762,28.8108951 L21.8263558,25.7540485 L21.8263558,25.7540485 Z M26.4763494,29.3052653 L31.6626846,27.8283619 L31.4745479,27.1676956 L26.2882127,28.644599 L26.4763494,29.3052653 L26.4763494,29.3052653 Z M26.2882127,28.644599 L26.4763494,29.3052653 L31.6626846,27.8283619 L31.4745479,27.1676956 L26.2882127,28.644599 L26.2882127,28.644599 Z"/>
    <path fill="#FFFFFF" d="M11.5631049,26.9965451 C11.5631049,27.4138812 11.2248452,27.7521701 10.8074799,27.7521701 C10.3901979,27.7521701 10.0518549,27.4138271 10.0518549,26.9965451 C10.0518549,26.5792631 10.3901979,26.2409201 10.8074799,26.2409201 C11.2248452,26.2409201 11.5631049,26.5792091 11.5631049,26.9965451 L11.5631049,26.9965451 Z M12.2500367,26.9965451 C12.2500367,26.1998404 11.6042404,25.5539883 10.8074799,25.5539883 C10.010816,25.5539883 9.36492308,26.1998812 9.36492308,26.9965451 C9.36492308,27.7932091 10.010816,28.4391019 10.8074799,28.4391019 C11.6042404,28.4391019 12.2500367,27.7932499 12.2500367,26.9965451 L12.2500367,26.9965451 Z M17.4936621,18.9594428 C17.4936621,19.3767248 17.155319,19.7150678 16.7380371,19.7150678 C16.3207551,19.7150678 15.9824121,19.3767248 15.9824121,18.9594428 C15.9824121,18.5421609 16.3207551,18.2038178 16.7380371,18.2038178 C17.155319,18.2038178 17.4936621,18.5421609 17.4936621,18.9594428 L17.4936621,18.9594428 Z M18.1805939,18.9594428 C18.1805939,18.1627789 17.534701,17.516886 16.7380371,17.516886 C15.9413731,17.516886 15.2954802,18.1627789 15.2954802,18.9594428 C15.2954802,19.7561068 15.9413731,20.4019997 16.7380371,20.4019997 C17.534701,20.4019997 18.1805939,19.7561068 18.1805939,18.9594428 L18.1805939,18.9594428 Z M25.5078208,20.8828519 C25.5078208,21.300188 25.1695611,21.6384769 24.7521958,21.6384769 C24.3349138,21.6384769 23.9965708,21.3001339 23.9965708,20.8828519 C23.9965708,20.46557 24.3349138,20.1272269 24.7521958,20.1272269 C25.1695611,20.1272269 25.5078208,20.4655159 25.5078208,20.8828519 L25.5078208,20.8828519 Z M26.1947526,20.8828519 C26.1947526,20.0861472 25.5489563,19.4402951 24.7521958,19.4402951 C23.9555319,19.4402951 23.309639,20.086188 23.309639,20.8828519 C23.309639,21.6795159 23.9555319,22.3254087 24.7521958,22.3254087 C25.5489563,22.3254087 26.1947526,21.6795567 26.1947526,20.8828519 L26.1947526,20.8828519 Z M31.1406617,14.2425568 C31.1406617,14.6598929 30.802402,14.9981818 30.3850367,14.9981818 C29.9677547,14.9981818 29.6294117,14.6598388 29.6294117,14.2425568 C29.6294117,13.8251915 29.9677007,13.4869318 30.3850367,13.4869318 C30.8024561,13.4869318 31.1406617,13.8251375 31.1406617,14.2425568 L31.1406617,14.2425568 Z M31.8275935,14.2425568 C31.8275935,13.4457555 31.181838,12.8 30.3850367,12.8 C29.588332,12.8 28.9424799,13.4457963 28.9424799,14.2425568 C28.9424799,15.0392208 29.5883728,15.6851136 30.3850367,15.6851136 C31.1817972,15.6851136 31.8275935,15.0392616 31.8275935,14.2425568 L31.8275935,14.2425568 Z M11.6883557,26.2991833 L16.3594921,20.1167969 L15.8114116,19.7026917 L11.1402752,25.8850781 L11.6883557,26.2991833 L11.6883557,26.2991833 Z M11.1402752,25.8850781 L11.6883557,26.2991833 L16.3594921,20.1167969 L15.8114116,19.7026917 L11.1402752,25.8850781 L11.1402752,25.8850781 Z M17.7194787,19.1438643 L23.7644787,20.6551143 L23.9310841,19.9886925 L17.8860841,18.4774425 L17.7194787,19.1438643 L17.7194787,19.1438643 Z M17.8860841,18.4774425 L17.7194787,19.1438643 L23.7644787,20.6551143 L23.9310841,19.9886925 L17.8860841,18.4774425 L17.8860841,18.4774425 Z M25.7692526,20.3244623 L29.7878037,15.0694339 L29.242134,14.6521571 L25.2235829,19.9071855 L25.7692526,20.3244623 L25.7692526,20.3244623 Z M25.2235829,19.9071855 L25.7692526,20.3244623 L29.7878037,15.0694339 L29.242134,14.6521571 L25.2235829,19.9071855 L25.2235829,19.9071855 Z"/>
  </g>
</svg>
