<svg xmlns="http://www.w3.org/2000/svg" width="44" height="44" viewBox="0 0 44 44">
  <g fill="none" fill-rule="evenodd">
    <rect width="43.2" height="43.2" fill="#F3B52C" rx="3.6"/>
    <path fill="#DDA62D" d="M30.8248163,33.477662 L11.8876599,33.477662 C11.5250451,33.477662 11.1870444,33.37202 10.90283,33.1899082 C10.9387053,33.1705495 10.9631049,33.13269 10.9631049,33.0890925 C10.9631049,33.0258146 10.911839,32.9746024 10.8486147,32.9746024 C10.7922008,32.9746024 10.7452786,33.0154113 10.7358406,33.0691439 C10.3235151,32.7340389 10.06,32.2227747 10.06,31.6500021 L10.06,23.34 L10.06,31.2954311 C10.06,32.3048215 10.8782695,33.1231446 11.8876599,33.1231446 L25.2943245,33.1231446 C25.301564,33.1793977 25.3496123,33.2228878 25.4078494,33.2228878 C25.4660866,33.2228878 25.5141886,33.1793977 25.521428,33.1231446 L30.8248163,33.1231446 C31.8342067,33.1231446 32.6524226,32.3048215 32.6524226,31.2954311 L32.6524226,31.6500021 C32.6524226,32.6594461 31.8342067,33.477662 30.8248163,33.477662 M14.104211,33.2228878 C14.0410403,33.2228878 13.9897745,33.2741001 13.9897745,33.337378 C13.9897745,33.4006023 14.0410403,33.4518682 14.104211,33.4518682 C14.1674353,33.4518682 14.2187012,33.4006023 14.2187012,33.337378 C14.2187012,33.2741001 14.1674353,33.2228878 14.104211,33.2228878"/>
    <path fill="#F4F1EF" d="M10.06,18.54 L10.06,31.0816874 C10.06,32.0910777 10.8782695,32.9094009 11.8876599,32.9094009 L30.8248163,32.9094009 C31.8342067,32.9094009 32.6524226,32.0910777 32.6524226,31.0816874 L32.6524226,18.54 L10.06,18.54"/>
    <path fill="#DA382F" d="M32.6259317,13.694314 C32.6259317,12.6634198 31.7825118,11.82 30.751725,11.82 L11.9342604,11.82 C10.9034198,11.82 10.06,12.6634198 10.06,13.694314 L10.06,19.7458299 L32.6259317,19.7458299 L32.6259317,13.694314"/>
    <text fill="#FFFFFF" font-family="Gotham-Bold, Gotham" font-size="5.28" font-weight="bold">
      <tspan x="15.495" y="17.26">AUG</tspan>
    </text>
    <text fill="#000000" font-family="Gotham-Bold, Gotham" font-size="11.04" font-weight="bold">
      <tspan x="14.702" y="30.42">22</tspan>
    </text>
  </g>
</svg>
