<?xml version="1.0" encoding="UTF-8" standalone="no"?>
<svg width="48px" height="47px" viewBox="0 0 48 47" version="1.1" xmlns="http://www.w3.org/2000/svg" xmlns:xlink="http://www.w3.org/1999/xlink">
    <g id="Page-1" stroke="none" stroke-width="1" fill="none" fill-rule="evenodd">
        <g id="Operator-Copy-4" transform="translate(-85.000000, -148.000000)">
            <g id="Group-3" transform="translate(58.000000, 61.000000)">
                <g id="Rectangle-18-Copy-+-Group" transform="translate(27.000000, 87.000000)">
                    <rect id="Rectangle-18-Copy" fill="#B9EBEB" x="0.263736264" y="0" width="47.4725275" height="47" rx="4"></rect>
                    <g id="Group" transform="translate(8.439560, 6.788889)">
                        <path d="M28.0434363,20.802621 C28.0434363,20.802621 27.8036604,17.842326 29.1957132,17.6934927 C30.5879538,17.5442873 30.2376857,23.5954785 27.139767,24.0897913 L28.0434363,20.802621" id="Fill-49" fill="#D8A274"></path>
                        <path d="M5.41694176,18.2521758 C5.41694176,18.2521758 4.66510549,18.4756119 4.77804066,20.3752833 C4.89097582,22.2749548 6.29712198,23.4258085 6.29712198,23.4258085 L6.29712198,21.865291 C6.29712198,21.865291 6.17009341,19.8538085 6.13251099,19.7047892 C6.09492857,19.5559558 5.41694176,18.2521758 5.41694176,18.2521758" id="Fill-50" fill="#D8A274"></path>
                        <path d="M5.3989022,17.6934927 C5.3989022,17.6934927 5.3709033,32.4441783 17.193956,32.4441783 C27.2395484,32.4441783 28.3681484,18.6990479 28.3681484,18.6990479 C28.3681484,18.6990479 26.8443692,11.4914217 26.8443692,11.1559885 C26.8443692,10.8209275 23.9661198,9.31231562 23.6275022,9.20050458 C23.2890725,9.08887958 14.9929418,9.25631708 14.5979505,9.20050458 C14.2027714,9.14469208 9.91386593,9.98280979 9.23644286,9.98280979 C8.55920769,9.98280979 7.43060769,10.3180569 7.31767253,10.5414929 C7.20473736,10.764929 5.3989022,17.6934927 5.3989022,17.6934927" id="Fill-51" fill="#F8CA9B"></path>
                        <path d="M28.0434363,20.802621 C28.0434363,20.802621 27.4648549,20.9691283 26.9383253,20.802621 L25.7719549,16.6875654 L25.9980132,16.0172573 C25.9980132,16.0172573 25.3585484,12.5901837 23.9287253,11.5472342 C23.9287253,11.5472342 20.8432088,13.0000335 16.7050088,12.8882225 C12.5660571,12.7764115 8.72851648,11.6962535 8.72851648,11.6962535 C8.72851648,11.6962535 7.67508132,12.1433117 6.69681099,15.0859327 L6.69681099,16.7249598 C6.69681099,16.7249598 5.68358901,18.4754258 5.53175604,19.1833144 C5.53175604,19.1833144 4.59482637,17.1673669 5.3989022,12.5901837 L4.51477582,11.8824812 L5.3989022,11.7708562 L2.18203516,9.16124979 L4.76657802,8.7536325 C4.76657802,8.7536325 2.33236484,7.33804146 1.65531758,6.40690292 C0.978082418,5.47576437 0,4.54443979 0,4.54443979 C0,4.54443979 8.05146923,3.91115396 8.69093407,3.68771792 C8.69093407,3.68771792 7.13878022,2.19789625 6.29712198,0.856721875 C6.29712198,0.856721875 14.5227857,2.49574896 15.8770681,2.90541271 C15.8770681,2.90541271 14.1839802,0.409849792 13.5067451,0 C13.5067451,0 20.2417022,2.57035167 24.4554429,5.99705313 C24.4554429,5.99705313 23.6648967,3.35247083 23.3638615,2.57016563 C23.3638615,2.57016563 27.3427121,7.934305 28.0434363,9.90839312 C28.0434363,9.90839312 30.3904582,16.2014385 28.0434363,20.802621" id="Fill-52" fill="#674D55"></path>
                        <path d="M12.3732593,20.3181685 C12.3732593,20.9148042 11.9857846,21.3985125 11.5079242,21.3985125 C11.0300637,21.3985125 10.642589,20.9148042 10.642589,20.3181685 C10.642589,19.7215329 11.0300637,19.2380106 11.5079242,19.2380106 C11.9857846,19.2380106 12.3732593,19.7215329 12.3732593,20.3181685" id="Fill-53" fill="#37333B"></path>
                        <path d="M21.8308747,20.3181685 C21.8308747,20.9148042 21.4432121,21.3985125 20.9655396,21.3985125 C20.4876791,21.3985125 20.1003923,20.9148042 20.1003923,20.3181685 C20.1003923,19.7215329 20.4876791,19.2380106 20.9655396,19.2380106 C21.4432121,19.2380106 21.8308747,19.7215329 21.8308747,20.3181685" id="Fill-54" fill="#37333B"></path>
                        <path d="M12.1099945,16.81519 C12.1099945,16.81519 11.643033,16.3681319 11.0424659,16.4799429 C10.4422747,16.5915679 9.97512527,17.2620621 9.97512527,17.2620621 C9.97512527,17.2620621 10.0640077,15.9770723 11.1760714,15.8652613 C11.1760714,15.8652613 11.5763242,15.7908446 12.1099945,16.051489 L12.1099945,16.81519" id="Fill-55" fill="#674D55"></path>
                        <path d="M19.8651264,15.6820102 L19.8651264,16.6317529 C19.8651264,16.6317529 21.2571791,15.6260117 22.480111,17.0602069 C22.480111,17.0602069 22.2732198,14.9927258 19.8651264,15.6820102" id="Fill-56" fill="#674D55"></path>
                        <path d="M14.5432681,22.8524281 C14.5432681,22.8524281 13.4879538,24.1746262 15.0493154,25.236366 C15.0493154,25.236366 13.4460495,25.3409215 13.2613319,24.1934165 C13.0540648,22.9082406 14.5432681,22.8524281 14.5432681,22.8524281" id="Fill-57" fill="#D8A274"></path>
                        <path d="M12.9048626,26.5587502 C12.9048626,26.5587502 12.9170769,26.892881 13.062333,27.3421717 C14.2347165,27.6545356 17.6564077,28.3624242 20.6671352,26.9981806 C20.9467484,26.2089919 20.9655396,25.553009 20.9655396,25.553009 C17.8142538,27.7879275 12.9048626,26.5587502 12.9048626,26.5587502" id="Fill-58" fill="#FFF7ED"></path>
                        <path d="M13.062333,27.3421717 C13.1923681,27.7449519 13.4317681,28.2398227 13.8634022,28.6714394 C14.252944,28.2733102 14.8148011,27.9756435 15.4226967,27.7529517 C14.3841066,27.6610471 13.5379385,27.4690521 13.062333,27.3421717" id="Fill-59" fill="#8C2454"></path>
                        <path d="M16.9350132,29.687785 C19.2713242,29.62081 20.2541044,28.1639177 20.6671352,26.9981806 C18.8782121,27.8089502 16.944033,27.8878319 15.4226967,27.7529517 C14.8148011,27.9756435 14.252944,28.2733102 13.8634022,28.6714394 C14.4521308,29.2602613 15.4005231,29.7315048 16.9350132,29.687785" id="Fill-60" fill="#CC6B74"></path>
                        <path d="M16.1027505,30.4699042 C16.1027505,30.4699042 17.4762,30.8795679 18.3417231,30.3953015 C18.3417231,30.3953015 17.4196385,31.5130398 16.1027505,30.4699042" id="Fill-61" fill="#D8A274"></path>
                        <path d="M11.5079242,19.8374369 C11.5079242,20.0043163 11.3870967,20.1397546 11.2378945,20.1397546 C11.0886923,20.1397546 10.9676769,20.0043163 10.9676769,19.8374369 C10.9676769,19.6703715 11.0886923,19.5351192 11.2378945,19.5351192 C11.3870967,19.5351192 11.5079242,19.6703715 11.5079242,19.8374369" id="Fill-142" fill="#FFFFFF"></path>
                        <path d="M20.9371648,19.8374369 C20.9371648,20.0043163 20.8163374,20.1397546 20.6671352,20.1397546 C20.517933,20.1397546 20.3969176,20.0043163 20.3969176,19.8374369 C20.3969176,19.6703715 20.517933,19.5351192 20.6671352,19.5351192 C20.8163374,19.5351192 20.9371648,19.6703715 20.9371648,19.8374369" id="Fill-143" fill="#FFFFFF"></path>
                    </g>
                </g>
            </g>
        </g>
    </g>
</svg>