<?xml version="1.0" encoding="UTF-8" standalone="no"?>
<svg width="111px" height="161px" viewBox="0 0 111 161" version="1.1" xmlns="http://www.w3.org/2000/svg" xmlns:xlink="http://www.w3.org/1999/xlink">
    <!-- Generator: Sketch 39.1 (31720) - http://www.bohemiancoding.com/sketch -->
    <title>Group 4</title>
    <desc>Created with Sketch.</desc>
    <defs></defs>
    <g id="Page-1" stroke="none" stroke-width="1" fill="none" fill-rule="evenodd" opacity="0.100000001">
        <g id="Dashboard-Copy-7" transform="translate(-608.000000, -337.000000)">
            <g id="Group-4" transform="translate(608.000000, 337.000000)">
                <path d="M31.489,55.215 C32.753,60.377 30.675,65.356 26.848,66.335 C23.021,67.315 18.894,63.925 17.63,58.763 C16.366,53.601 18.444,48.622 22.271,47.643 C26.098,46.663 30.225,50.053 31.489,55.215" id="Fill-42" fill="#FFFFFF"></path>
                <path d="M79.615,55.215 C78.351,60.377 80.429,65.356 84.256,66.335 C88.083,67.315 92.21,63.925 93.473,58.763 C94.737,53.601 92.66,48.622 88.833,47.643 C85.006,46.663 80.879,50.053 79.615,55.215" id="Fill-44" fill="#F7F3EE"></path>
                <path d="M55.552,156.944 L55.552,3.986 C56.637,4.577 57.647,5.24 58.437,5.974 C58.437,5.974 61.477,4.054 64.485,4.054 C65.237,4.054 65.987,4.174 66.687,4.474 C66.687,4.474 64.437,7.057 68.187,8.641 C68.187,8.641 79.437,9.724 83.687,14.224 C87.927,18.714 91.595,30.599 88.848,47.533 L88.846,47.646 C88.841,47.645 88.837,47.644 88.833,47.643 C88.389,47.529 87.94,47.474 87.493,47.474 C84.086,47.474 80.732,50.652 79.615,55.215 C78.351,60.377 80.429,65.356 84.256,66.335 C84.475,66.392 84.695,66.433 84.916,66.461 C84.542,67.471 84.143,68.469 83.725,69.458 C83.685,69.552 83.646,69.648 83.606,69.742 C83.416,70.187 83.221,70.63 83.023,71.07 C82.973,71.181 82.922,71.29 82.872,71.399 C82.257,72.747 81.605,74.067 80.918,75.356 C80.84,75.502 80.762,75.647 80.684,75.792 C80.466,76.193 80.248,76.592 80.025,76.986 L79.972,77.077 C79.525,77.863 79.064,78.632 78.593,79.388 C78.49,79.555 78.386,79.723 78.281,79.888 C78.066,80.228 77.849,80.563 77.629,80.896 C77.505,81.083 77.38,81.267 77.256,81.451 C76.886,81.997 76.512,82.533 76.131,83.059 C75.986,83.26 75.841,83.464 75.694,83.663 C75.488,83.941 75.279,84.213 75.07,84.484 C74.9,84.705 74.73,84.923 74.558,85.139 C74.357,85.392 74.157,85.645 73.954,85.892 C73.657,86.253 73.358,86.606 73.057,86.953 C72.845,87.197 72.632,87.434 72.418,87.672 C72.195,87.919 71.972,88.163 71.747,88.403 C71.563,88.598 71.38,88.791 71.195,88.98 C70.932,89.25 70.668,89.512 70.404,89.771 C70.236,89.934 70.069,90.1 69.901,90.259 C69.548,90.592 69.193,90.913 68.837,91.226 C68.678,91.366 68.519,91.5 68.359,91.635 L68.152,91.812 L68.442,96.93 C68.889,104.803 74.089,111.55 81.478,114.051 C81.875,114.186 82.275,114.316 82.684,114.425 L98.616,118.68 C105.901,120.626 110.822,127.15 110.963,134.423 C96.351,147.982 76.935,156.434 55.552,156.944 M93.023,60.226 C93.198,59.757 93.35,59.268 93.473,58.763 C93.72,57.755 93.84,56.754 93.843,55.788 C93.84,56.753 93.72,57.755 93.473,58.763 C93.35,59.268 93.198,59.757 93.023,60.226 M93.843,55.785 L93.843,55.759 L93.843,55.785 M93.843,55.758 C93.844,55.748 93.844,55.739 93.844,55.73 C93.844,55.739 93.844,55.749 93.843,55.758 M93.844,55.726 C93.843,55.718 93.843,55.71 93.843,55.702 C93.843,55.71 93.843,55.718 93.844,55.726 M93.843,55.695 L93.843,55.673 L93.843,55.695 M93.843,55.663 L93.843,55.644 L93.843,55.663 M93.843,55.634 L93.843,55.616 L93.843,55.634 M93.843,55.603 L93.843,55.587 L93.843,55.603 M93.842,55.572 L93.842,55.559 L93.842,55.572 M93.842,55.541 L93.842,55.53 L93.842,55.541 M93.841,55.511 L93.841,55.502 L93.841,55.511 M93.841,55.478 L93.841,55.473 L93.841,55.478 M93.84,55.447 L93.84,55.445 L93.84,55.447" id="Fill-45" fill="#8ACCD8"></path>
                <path d="M85.597,66.5 C85.37,66.5 85.143,66.486 84.917,66.458 C84.917,66.459 84.916,66.46 84.916,66.461 C84.695,66.433 84.475,66.392 84.256,66.335 C80.429,65.356 78.351,60.377 79.615,55.215 C80.732,50.652 84.086,47.474 87.493,47.474 C87.94,47.474 88.389,47.529 88.833,47.643 C88.837,47.644 88.841,47.645 88.846,47.646 L88.846,47.647 C91.829,48.419 93.746,51.622 93.84,55.445 L93.84,55.447 C93.84,55.456 93.84,55.465 93.841,55.473 L93.841,55.478 L93.841,55.502 L93.841,55.511 C93.841,55.517 93.842,55.524 93.842,55.53 L93.842,55.541 L93.842,55.559 L93.842,55.572 C93.842,55.577 93.842,55.582 93.843,55.587 L93.843,55.603 L93.843,55.616 L93.843,55.634 L93.843,55.644 L93.843,55.663 L93.843,55.673 L93.843,55.695 L93.843,55.702 C93.843,55.71 93.843,55.718 93.844,55.726 L93.844,55.73 C93.844,55.739 93.844,55.748 93.843,55.758 C93.843,55.758 93.843,55.758 93.843,55.759 L93.843,55.785 L93.843,55.788 C93.84,56.754 93.72,57.755 93.473,58.763 C93.35,59.268 93.198,59.757 93.023,60.226 C91.613,63.99 88.626,66.5 85.597,66.5" id="Fill-46" fill="#F4F0EA"></path>
                <path d="M82.684,114.426 C74.657,112.282 68.913,105.226 68.442,96.93 L66.885,69.474 L41.359,69.474 L39.73,98.082 C39.252,106.463 33.395,113.567 25.259,115.633 L12.937,118.762 C4.308,120.953 -1.136,129.47 0.499,138.222 L4.592,160.133 L106.512,160.133 L110.64,138.031 C112.26,129.358 106.927,120.9 98.403,118.624 L82.684,114.426" id="Fill-47" fill="#F7F3EE"></path>
                <path d="M88.885,45.974 C88.885,69.354 70.853,97.307 55.552,97.307 C40.25,97.307 22.219,69.354 22.219,45.974 C22.219,22.594 37.142,8.641 55.552,8.641 C73.961,8.641 88.885,22.594 88.885,45.974" id="Fill-48" fill="#FFFFFF"></path>
                <path d="M26.237,66.589 C32.412,83.166 44.669,97.307 55.552,97.307 C66.434,97.307 78.691,83.166 84.867,66.589 C84.867,66.589 67.508,85.474 55.552,85.474 C43.596,85.474 26.237,66.589 26.237,66.589" id="Fill-49" fill="#494945"></path>
                <path d="M82.684,114.426 C82.275,114.316 81.875,114.186 81.478,114.051 C77.063,125.151 67.12,132.896 55.552,132.896 C43.951,132.896 33.983,125.108 29.587,113.957 C28.239,114.677 26.79,115.244 25.259,115.633 L12.937,118.762 C4.308,120.953 -1.136,129.47 0.499,138.222 L4.592,160.133 L106.512,160.133 L110.64,138.031 C112.26,129.358 106.927,120.9 98.403,118.624 L82.684,114.426" id="Fill-50" fill="#556E80"></path>
                <path d="M22.271,47.643 C22.271,47.643 21.834,29.724 17.26,21.474 L22.219,21.474 C22.219,21.474 22.183,15.724 24.56,10.224 C24.56,10.224 25.687,12.974 29.687,13.224 C29.687,13.224 27.437,2.974 20.187,2.974 C20.187,2.974 33.437,-3.526 50.187,5.974 C50.187,5.974 49.687,2.634 47.187,0.804 C47.187,0.804 54.938,2.719 58.437,5.974 C58.437,5.974 63.187,2.974 66.687,4.474 C66.687,4.474 64.437,7.057 68.187,8.641 C68.187,8.641 79.437,9.724 83.687,14.224 C87.937,18.724 91.614,30.65 88.833,47.643 C88.833,47.643 86.77,47.474 84.867,50.641 C83.437,37.974 74.937,26.224 74.937,26.224 C74.937,26.224 71.687,20.724 64.687,24.223 C62.156,25.488 56.919,26.724 53.553,26.474 C50.187,26.224 38.873,24.803 35.312,27.474 C30.513,31.073 28.103,39.641 26.237,50.641 C25.603,47.474 22.271,47.643 22.271,47.643" id="Fill-51" fill="#494945"></path>
                <path d="M46.596,87.491 C46.593,85.068 46.419,82.585 46.421,80.227 C46.418,78.013 46.577,75.928 47.064,74.189 C47.306,73.317 47.623,72.532 48.032,71.828 C48.443,71.123 48.941,70.495 49.586,69.917 C51.459,68.256 53.363,67.632 55.258,67.62 C57.51,67.615 59.799,68.597 61.537,70.301 C63.274,72.008 64.424,74.362 64.509,77.084 C64.544,78.207 64.556,79.343 64.556,80.489 C64.556,82.783 64.508,85.121 64.508,87.491 L70.508,87.491 C70.508,85.203 70.556,82.865 70.556,80.489 C70.556,79.302 70.544,78.104 70.507,76.899 C70.374,72.561 68.513,68.729 65.735,66.015 C62.959,63.299 59.233,61.625 55.258,61.62 C51.932,61.608 48.468,62.849 45.585,65.446 C44.456,66.455 43.547,67.603 42.844,68.815 C41.786,70.637 41.189,72.586 40.849,74.514 C40.51,76.445 40.422,78.37 40.421,80.227 C40.423,82.859 40.598,85.368 40.596,87.491 L46.596,87.491" id="Fill-52" fill="#494945"></path>
            </g>
        </g>
    </g>
</svg>