<svg xmlns="http://www.w3.org/2000/svg" width="42" height="42" viewBox="0 0 42 42">
  <defs>
    <linearGradient id="a" x1="0%" x2="102%" y1="0%" y2="101%">
      <stop stop-color="#3023AE" offset="0%"/>
      <stop stop-color="#C96DD8" offset="100%"/>
    </linearGradient>
  </defs>
  <g fill="none" fill-rule="evenodd">
    <circle cx="21" cy="21" r="21" fill="url(#a)"/>
    <path fill="#FFFFFF" d="M20.9470899,20.4827586 C23.343246,20.4827586 25.2857143,18.5838284 25.2857143,16.2413793 C25.2857143,13.8989302 23.343246,12 20.9470899,12 C18.5509339,12 16.6084656,13.8989302 16.6084656,16.2413793 C16.6084656,18.5838284 18.5509339,20.4827586 20.9470899,20.4827586 Z M19.095356,23.6382851 C17.8974779,21.6100033 15.2444599,20.9150627 13.1696743,22.0860917 C11.0948888,23.2571207 10.3840147,25.8506745 11.5818927,27.8789563 C12.7797707,29.9072381 15.4327888,30.6021787 17.5075743,29.4311497 C19.5823599,28.2601207 20.293234,25.6665668 19.095356,23.6382851 Z M23.593505,22.7595126 C21.8991668,24.4158743 21.8991668,27.1013671 23.593505,28.7577288 C25.2878432,30.4140904 28.0349082,30.4140904 29.7292464,28.7577288 C31.4235845,27.1013671 31.4235845,24.4158743 29.7292464,22.7595126 C28.0349082,21.103151 25.2878432,21.103151 23.593505,22.7595126 Z"/>
  </g>
</svg>
