<svg xmlns="http://www.w3.org/2000/svg" width="160" height="160" viewBox="0 0 160 160" xmlns:xlink="http://www.w3.org/1999/xlink">
  <defs>
    <linearGradient id="a" x1="50%" x2="50%" y1="100%" y2="1.937%">
      <stop stop-color="#498FCA" offset="0%"/>
      <stop stop-color="#7CBFF8" offset="100%"/>
    </linearGradient>
    <path id="c" d="M106.350134,53.3326617 C107.015458,53.8165324 107.287634,54.4616939 107.166667,55.2681463 L99.4247317,101.719758 C99.3239245,102.304436 99.0013446,102.758065 98.4569885,103.080646 C98.1747304,103.241935 97.8622306,103.322581 97.5194889,103.322581 C97.2977144,103.322581 97.05578,103.272177 96.7936819,103.171372 L83.0940858,97.5766142 L75.7755379,106.497985 C75.4126344,106.961694 74.9186819,107.193548 74.2936822,107.193548 C74.0315859,107.193548 73.8098115,107.153227 73.6283606,107.072581 C73.2452953,106.931452 72.9378355,106.694558 72.705981,106.361896 C72.4741266,106.029234 72.3581993,105.661291 72.3581993,105.258066 L72.3581993,94.7036299 L98.4872303,62.6774196 L66.1586019,90.6512098 L54.2130378,85.7520173 C53.467069,85.4697592 53.0638437,84.9153231 53.0033601,84.0887107 C52.9630383,83.2822583 53.2856182,82.6875004 53.9711015,82.3044351 L104.293682,53.2721781 C104.596102,53.0907272 104.918682,53 105.261424,53 C105.664651,53 106.027554,53.1108872 106.350134,53.3326617 Z"/>
    <filter id="b" width="200%" height="200%" x="-50%" y="-50%" filterUnits="objectBoundingBox">
      <feOffset dy="2" in="SourceAlpha" result="shadowOffsetOuter1"/>
      <feGaussianBlur stdDeviation="2" in="shadowOffsetOuter1" result="shadowBlurOuter1"/>
      <feColorMatrix values="0 0 0 0 0 0 0 0 0 0 0 0 0 0 0 0 0 0 0.1 0" in="shadowBlurOuter1"/>
    </filter>
  </defs>
  <g fill="none" fill-rule="evenodd">
    <rect width="160" height="160" fill="url(#a)" rx="80"/>
    <use fill="black" filter="url(#b)" xlink:href="#c"/>
    <use fill="#FFFFFF" xlink:href="#c"/>
  </g>
</svg>
