<svg xmlns="http://www.w3.org/2000/svg" width="160" height="160" viewBox="0 0 160 160" xmlns:xlink="http://www.w3.org/1999/xlink">
  <defs>
    <linearGradient id="a" x1="50%" x2="50%" y1="100%" y2="1.937%">
      <stop stop-color="#498FCA" offset="0%"/>
      <stop stop-color="#7CBFF8" offset="100%"/>
    </linearGradient>
    <path id="c" d="M52.8461535,108.142857 L63.7500006,108.142857 L63.7500006,97.2142873 L52.8461535,97.2142873 L52.8461535,108.142857 Z M66.1730762,108.142857 L78.2884611,108.142857 L78.2884611,97.2142873 L66.1730762,97.2142873 L66.1730762,108.142857 Z M52.8461535,94.7857149 L63.7500006,94.7857149 L63.7500006,82.6428575 L52.8461535,82.6428575 L52.8461535,94.7857149 Z M66.1730762,94.7857149 L78.2884611,94.7857149 L78.2884611,82.6428575 L66.1730762,82.6428575 L66.1730762,94.7857149 Z M52.8461535,80.2142873 L63.7500006,80.2142873 L63.7500006,69.2857149 L52.8461535,69.2857149 L52.8461535,80.2142873 Z M80.7115389,108.142857 L92.8269238,108.142857 L92.8269238,97.2142873 L80.7115389,97.2142873 L80.7115389,108.142857 Z M66.1730762,80.2142873 L78.2884611,80.2142873 L78.2884611,69.2857149 L66.1730762,69.2857149 L66.1730762,80.2142873 Z M95.2499994,108.142857 L106.153847,108.142857 L106.153847,97.2142873 L95.2499994,97.2142873 L95.2499994,108.142857 Z M80.7115389,94.7857149 L92.8269238,94.7857149 L92.8269238,82.6428575 L80.7115389,82.6428575 L80.7115389,94.7857149 Z M67.3846163,62 L67.3846163,51.0714299 C67.3846163,50.7425592 67.2647231,50.4579611 67.0249389,50.2176355 C66.785157,49.9773076 66.5012028,49.8571425 66.1730762,49.8571425 L63.7500006,49.8571425 C63.421874,49.8571425 63.1379197,49.9773076 62.8981378,50.2176355 C62.6583537,50.4579611 62.5384605,50.7425592 62.5384605,51.0714299 L62.5384605,62 C62.5384605,62.3288707 62.6583537,62.6134688 62.8981378,62.8537944 C63.1379197,63.0941223 63.421874,63.2142873 63.7500006,63.2142873 L66.1730762,63.2142873 C66.5012028,63.2142873 66.785157,63.0941223 67.0249389,62.8537944 C67.2647231,62.6134688 67.3846163,62.3288707 67.3846163,62 Z M95.2499994,94.7857149 L106.153847,94.7857149 L106.153847,82.6428575 L95.2499994,82.6428575 L95.2499994,94.7857149 Z M80.7115389,80.2142873 L92.8269238,80.2142873 L92.8269238,69.2857149 L80.7115389,69.2857149 L80.7115389,80.2142873 Z M95.2499994,80.2142873 L106.153847,80.2142873 L106.153847,69.2857149 L95.2499994,69.2857149 L95.2499994,80.2142873 Z M96.4615372,62 L96.4615372,51.0714299 C96.4615372,50.7425592 96.3416463,50.4579611 96.1018622,50.2176355 C95.862078,49.9773076 95.5781238,49.8571425 95.2499994,49.8571425 L92.8269238,49.8571425 C92.4987972,49.8571425 92.214843,49.9773076 91.9750588,50.2176355 C91.7352769,50.4579611 91.6153837,50.7425592 91.6153837,51.0714299 L91.6153837,62 C91.6153837,62.3288707 91.7352769,62.6134688 91.9750588,62.8537944 C92.214843,63.0941223 92.4987972,63.2142873 92.8269238,63.2142873 L95.2499994,63.2142873 C95.5781238,63.2142873 95.862078,63.0941223 96.1018622,62.8537944 C96.3416463,62.6134688 96.4615372,62.3288707 96.4615372,62 Z M111,59.5714299 L111,108.142857 C111,109.458333 110.520432,110.596726 109.561297,111.558037 C108.602163,112.519347 107.466346,113 106.153847,113 L52.8461535,113 C51.5336538,113 50.3978368,112.519347 49.4387026,111.558037 C48.4795683,110.596726 48,109.458333 48,108.142857 L48,59.5714299 C48,58.255954 48.4795683,57.1175592 49.4387026,56.15625 C50.3978368,55.1949408 51.5336538,54.7142873 52.8461535,54.7142873 L57.692307,54.7142873 L57.692307,51.0714299 C57.692307,49.4017873 58.2854565,47.9724704 59.4717556,46.7834836 C60.6580523,45.5944945 62.0841355,45 63.7500006,45 L66.1730762,45 C67.8389412,45 69.2650244,45.5944945 70.4513212,46.7834836 C71.6376202,47.9724704 72.2307698,49.4017873 72.2307698,51.0714299 L72.2307698,54.7142873 L86.7692302,54.7142873 L86.7692302,51.0714299 C86.7692302,49.4017873 87.3623798,47.9724704 88.5486788,46.7834836 C89.7349756,45.5944945 91.1610565,45 92.8269238,45 L95.2499994,45 C96.9158645,45 98.3419477,45.5944945 99.5282444,46.7834836 C100.714543,47.9724704 101.307693,49.4017873 101.307693,51.0714299 L101.307693,54.7142873 L106.153847,54.7142873 C107.466346,54.7142873 108.602163,55.1949408 109.561297,56.15625 C110.520432,57.1175592 111,58.255954 111,59.5714299 Z"/>
    <filter id="b" width="200%" height="200%" x="-50%" y="-50%" filterUnits="objectBoundingBox">
      <feOffset dy="2" in="SourceAlpha" result="shadowOffsetOuter1"/>
      <feGaussianBlur stdDeviation="2" in="shadowOffsetOuter1" result="shadowBlurOuter1"/>
      <feColorMatrix values="0 0 0 0 0 0 0 0 0 0 0 0 0 0 0 0 0 0 0.1 0" in="shadowBlurOuter1"/>
    </filter>
  </defs>
  <g fill="none" fill-rule="evenodd">
    <rect width="160" height="160" fill="url(#a)" rx="80"/>
    <use fill="black" filter="url(#b)" xlink:href="#c"/>
    <use fill="#FFFFFF" xlink:href="#c"/>
  </g>
</svg>
