<?xml version="1.0" encoding="UTF-8" standalone="no"?>
<svg width="116px" height="167px" viewBox="0 0 116 167" version="1.1" xmlns="http://www.w3.org/2000/svg" xmlns:xlink="http://www.w3.org/1999/xlink">
    <!-- Generator: Sketch 39.1 (31720) - http://www.bohemiancoding.com/sketch -->
    <title>Group</title>
    <desc>Created with Sketch.</desc>
    <defs></defs>
    <g id="Page-1" stroke="none" stroke-width="1" fill="none" fill-rule="evenodd" opacity="0.200000018">
        <g id="Dashboard-Copy-7" transform="translate(-353.000000, -331.000000)">
            <g id="Group" transform="translate(353.000000, 331.000000)">
                <path d="M23.058429,67.3430126 C23.058429,67.3430126 26.9124643,90.9446289 9.83295865,109.062553 C70.5755204,133.63361 100.153753,111.337535 100.153753,111.337535 C100.153753,111.337535 91.4516319,87.8640566 92.0614278,67.3430126 L23.058429,67.3430126" id="Fill-99" fill="#F9C866"></path>
                <path d="M40.4522301,106.465126 C40.451186,106.464075 40.4501418,106.463025 40.4480534,106.461975 C38.0067816,89.4531824 23.3132067,67.7190252 23.0626057,67.3482642 C24.0587449,68.0194151 25.121711,68.3859748 26.1888538,68.3859748 C26.5177676,68.3859748 26.8477257,68.3513145 27.1745512,68.2798931 C30.6234482,77.6728553 35.927837,86.3358491 41.8649935,92.3457484 L41.342908,101.553855 C41.2468443,103.250113 40.9429905,104.897006 40.4522301,106.465126" id="Fill-101" fill="#F6BA53"></path>
                <path d="M32.4340407,53.9336478 C33.7538729,60.5422264 31.5840855,66.9165849 27.588043,68.1706604 C23.5920004,69.4247358 19.2827065,65.0837862 17.9628743,58.4752075 C16.6430422,51.8666289 18.8128296,45.4922704 22.8088721,44.238195 C26.8049147,42.9841195 31.1142086,47.3250692 32.4340407,53.9336478" id="Fill-102" fill="#FFFFFF"></path>
                <path d="M82.6858161,53.9336478 C81.3659839,60.5422264 83.5357713,66.9165849 87.5318138,68.1706604 C91.5278564,69.4247358 95.8371503,65.0837862 97.1559383,58.4752075 C98.4768146,51.8666289 96.3070272,45.4922704 92.3109847,44.238195 C88.3149421,42.9841195 84.0056482,47.3250692 82.6858161,53.9336478" id="Fill-103" fill="#F7F3EE"></path>
                <path d="M108.145838,125.636516 C108.144794,125.635465 108.144794,125.635465 108.14375,125.634415 C108.144794,125.635465 108.144794,125.635465 108.145838,125.636516 M108.099895,125.603956 C108.098851,125.603956 108.097807,125.602906 108.096762,125.602906 C108.097807,125.602906 108.098851,125.603956 108.099895,125.603956 M108.052907,125.572447 C108.051863,125.572447 108.050819,125.571396 108.049775,125.570346 C108.050819,125.571396 108.051863,125.572447 108.052907,125.572447 M107.813792,125.413849 C107.813792,125.413849 107.812748,125.412799 107.811704,125.412799 C107.812748,125.412799 107.812748,125.412799 107.813792,125.413849 M107.767849,125.38339 C107.76576,125.38234 107.763672,125.381289 107.762628,125.380239 C107.763672,125.381289 107.76576,125.38234 107.767849,125.38339 M107.720861,125.353981 C107.717728,125.351881 107.716684,125.35083 107.713552,125.34873 C107.716684,125.35083 107.718772,125.351881 107.720861,125.353981 M107.673873,125.323522 C107.671785,125.321421 107.668652,125.320371 107.666564,125.31827 C107.669696,125.320371 107.670741,125.321421 107.673873,125.323522 M107.623753,125.290962 C107.621665,125.289912 107.621665,125.289912 107.62062,125.288862 C107.621665,125.289912 107.622709,125.290962 107.623753,125.290962 M107.428493,125.169126 C107.426405,125.168075 107.42536,125.167025 107.423272,125.165975 C107.42536,125.167025 107.426405,125.168075 107.428493,125.169126 M107.382549,125.140767 C107.379417,125.138667 107.37524,125.136566 107.372108,125.134465 C107.37524,125.136566 107.378373,125.138667 107.382549,125.140767 M107.334518,125.111358 C107.331385,125.110308 107.327208,125.107157 107.32512,125.106107 C107.328253,125.108208 107.331385,125.109258 107.334518,125.111358 M107.285442,125.08195 C107.282309,125.080899 107.280221,125.078799 107.277088,125.076698 C107.280221,125.078799 107.282309,125.080899 107.285442,125.08195 M107.236365,125.052541 C107.233233,125.051491 107.231145,125.04939 107.229056,125.04834 C107.231145,125.04939 107.234277,125.051491 107.236365,125.052541 M107.035885,124.934906 C107.032752,124.932805 107.030664,124.930704 107.026487,124.929654 C107.02962,124.930704 107.032752,124.932805 107.035885,124.934906 M106.987853,124.906547 C106.98472,124.904447 106.980544,124.902346 106.976367,124.900245 C106.980544,124.902346 106.983676,124.904447 106.987853,124.906547 M106.939821,124.879239 C106.935644,124.877138 106.931468,124.873987 106.928335,124.871887 C106.932512,124.875038 106.935644,124.877138 106.939821,124.879239 M106.890745,124.850881 C106.887612,124.84878 106.882391,124.846679 106.879259,124.844579 C106.883436,124.846679 106.887612,124.84878 106.890745,124.850881 M106.840625,124.822522 C106.837492,124.821472 106.83436,124.819371 106.831227,124.81727 C106.83436,124.819371 106.837492,124.821472 106.840625,124.822522 M106.787372,124.793113 C106.785284,124.792063 106.784239,124.792063 106.783195,124.791013 C106.784239,124.791013 106.785284,124.792063 106.787372,124.793113 M106.683999,124.735346 C106.681911,124.734296 106.679822,124.733245 106.677734,124.732195 C106.679822,124.733245 106.681911,124.734296 106.683999,124.735346 M106.635967,124.709088 C106.63179,124.706987 106.627614,124.704887 106.623437,124.702786 C106.627614,124.704887 106.63179,124.706987 106.635967,124.709088 M106.586891,124.68283 C106.582714,124.68073 106.577494,124.677579 106.573317,124.675478 C106.577494,124.677579 106.582714,124.68073 106.586891,124.68283 M106.537815,124.656572 C106.533638,124.654472 106.528418,124.651321 106.523197,124.64922 C106.528418,124.651321 106.533638,124.654472 106.537815,124.656572 M106.488739,124.630314 C106.484562,124.628214 106.479341,124.625063 106.474121,124.622962 C106.479341,124.625063 106.484562,124.628214 106.488739,124.630314 M106.438619,124.603006 C106.434442,124.600906 106.429221,124.598805 106.426089,124.596704 C106.429221,124.598805 106.434442,124.600906 106.438619,124.603006 M106.383278,124.574648 C106.381189,124.573597 106.379101,124.572547 106.377013,124.571497 C106.379101,124.572547 106.381189,124.573597 106.383278,124.574648 M106.276772,124.518981 C106.274684,124.517931 106.272596,124.516881 106.269463,124.51583 C106.272596,124.516881 106.274684,124.517931 106.276772,124.518981 M106.227696,124.493774 C106.222475,124.491673 106.219343,124.489572 106.215166,124.487472 C106.219343,124.489572 106.22352,124.491673 106.227696,124.493774 M106.17862,124.468566 C106.173399,124.466465 106.168178,124.463314 106.162958,124.461214 C106.168178,124.464365 106.173399,124.466465 106.17862,124.468566 M106.1285,124.444409 C106.123279,124.441258 106.119102,124.439157 106.112837,124.436006 C106.118058,124.439157 106.123279,124.441258 106.1285,124.444409 M106.079424,124.419201 C106.074203,124.41605 106.067938,124.41395 106.062717,124.410799 C106.067938,124.41395 106.073159,124.41605 106.079424,124.419201 M106.027215,124.392943 C106.021995,124.390843 106.017818,124.388742 106.013641,124.386642 C106.017818,124.388742 106.023039,124.390843 106.027215,124.392943 M105.972919,124.366686 C105.969786,124.365635 105.966653,124.363535 105.963521,124.362484 C105.966653,124.363535 105.969786,124.365635 105.972919,124.366686 M105.863281,124.313119 C105.859104,124.311019 105.855971,124.309969 105.852839,124.307868 C105.855971,124.309969 105.859104,124.311019 105.863281,124.313119 M105.81316,124.288962 C105.807939,124.286862 105.802719,124.283711 105.797498,124.28161 C105.802719,124.283711 105.807939,124.286862 105.81316,124.288962 M105.76304,124.265855 C105.756775,124.262704 105.751554,124.259553 105.745289,124.257453 C105.751554,124.259553 105.756775,124.262704 105.76304,124.265855 M105.71292,124.241698 C105.706655,124.238547 105.70039,124.236447 105.695169,124.233296 C105.701434,124.236447 105.706655,124.238547 105.71292,124.241698 M105.661756,124.217541 C105.656535,124.21544 105.65027,124.212289 105.644005,124.210189 C105.65027,124.212289 105.656535,124.21544 105.661756,124.217541 M105.610591,124.194434 C105.60537,124.191283 105.599105,124.189182 105.593884,124.186031 C105.599105,124.189182 105.60537,124.191283 105.610591,124.194434 M105.556294,124.169226 C105.552118,124.167126 105.547941,124.165025 105.543764,124.162925 C105.547941,124.165025 105.552118,124.167126 105.556294,124.169226 M105.441435,124.117761 C105.438303,124.11566 105.433082,124.11356 105.428905,124.111459 C105.433082,124.11356 105.438303,124.11566 105.441435,124.117761 M105.391315,124.094654 C105.386094,124.092553 105.379829,124.089403 105.374609,124.087302 C105.379829,124.089403 105.386094,124.092553 105.391315,124.094654 M105.340151,124.072597 C105.333886,124.069447 105.328665,124.067346 105.3224,124.064195 C105.328665,124.067346 105.33493,124.069447 105.340151,124.072597 M105.288986,124.049491 C105.282721,124.04739 105.276456,124.044239 105.271236,124.042138 C105.276456,124.044239 105.282721,124.04739 105.288986,124.049491 M105.237822,124.027434 C105.231557,124.024283 105.225292,124.022182 105.219027,124.019031 C105.225292,124.022182 105.231557,124.024283 105.237822,124.027434 M105.184569,124.004327 C105.179349,124.002226 105.174128,124.000126 105.167863,123.996975 C105.174128,124.000126 105.179349,124.002226 105.184569,124.004327 M105.129228,123.98017 C105.125052,123.979119 105.120875,123.977019 105.116698,123.975969 C105.120875,123.977019 105.125052,123.979119 105.129228,123.98017 M105.01437,123.931855 C105.009149,123.929755 105.004972,123.928704 104.999751,123.926604 C105.004972,123.928704 105.009149,123.929755 105.01437,123.931855 M104.962161,123.910849 C104.955896,123.908748 104.950675,123.905597 104.94441,123.903497 C104.950675,123.905597 104.95694,123.908748 104.962161,123.910849 M104.910997,123.889843 C104.904732,123.886692 104.898467,123.884591 104.891157,123.88144 C104.898467,123.884591 104.904732,123.886692 104.910997,123.889843 M104.858788,123.868836 C104.852523,123.865686 104.846258,123.863585 104.838949,123.860434 C104.846258,123.863585 104.852523,123.865686 104.858788,123.868836 M104.806579,123.84783 C104.800314,123.844679 104.794049,123.842579 104.787784,123.839428 C104.794049,123.842579 104.800314,123.844679 104.806579,123.84783 M104.752283,123.825774 C104.747062,123.823673 104.741841,123.821572 104.735576,123.819472 C104.740797,123.821572 104.747062,123.823673 104.752283,123.825774 M104.695897,123.803717 C104.691721,123.801616 104.687544,123.800566 104.684411,123.798465 C104.687544,123.800566 104.691721,123.801616 104.695897,123.803717 M104.57895,123.757503 C104.574773,123.756453 104.569553,123.754352 104.564332,123.752252 C104.569553,123.754352 104.573729,123.755403 104.57895,123.757503 M104.526742,123.737547 C104.520477,123.735447 104.514212,123.733346 104.507947,123.730195 C104.514212,123.733346 104.520477,123.735447 104.526742,123.737547 M104.474533,123.717591 C104.468268,123.715491 104.460959,123.71234 104.45365,123.710239 C104.460959,123.71234 104.468268,123.715491 104.474533,123.717591 M104.422325,123.698686 C104.415015,123.695535 104.40875,123.693434 104.401441,123.690283 C104.40875,123.693434 104.415015,123.695535 104.422325,123.698686 M104.369072,123.67873 C104.362807,123.675579 104.355498,123.673478 104.348188,123.671377 C104.355498,123.673478 104.362807,123.675579 104.369072,123.67873 M104.315819,123.658774 C104.30851,123.656673 104.302245,123.653522 104.29598,123.651421 C104.302245,123.653522 104.309554,123.656673 104.315819,123.658774 M104.261522,123.638818 C104.255257,123.636717 104.248992,123.634616 104.242727,123.632516 C104.248992,123.634616 104.255257,123.636717 104.261522,123.638818 M104.13831,123.594704 C104.132045,123.592604 104.126824,123.590503 104.120559,123.588403 C104.126824,123.590503 104.132045,123.592604 104.13831,123.594704 M104.085057,123.575799 C104.077748,123.573698 104.071483,123.571597 104.065218,123.569497 C104.071483,123.571597 104.077748,123.573698 104.085057,123.575799 M104.031805,123.557943 C104.02554,123.554792 104.017186,123.552692 104.010921,123.550591 C104.01823,123.552692 104.024495,123.554792 104.031805,123.557943 M103.978552,123.539038 C103.971243,123.536937 103.964978,123.533786 103.957668,123.531686 C103.963933,123.533786 103.971243,123.536937 103.978552,123.539038 M103.924255,123.520132 C103.91799,123.518031 103.910681,123.515931 103.904416,123.51383 C103.910681,123.515931 103.91799,123.518031 103.924255,123.520132 M103.869958,123.502277 C103.863693,123.500176 103.856384,123.498075 103.850119,123.495975 C103.857428,123.498075 103.862649,123.500176 103.869958,123.502277 M103.811484,123.482321 C103.806264,123.48127 103.802087,123.47917 103.79791,123.478119 C103.802087,123.47917 103.806264,123.48127 103.811484,123.482321 M103.689316,123.442409 C103.684096,123.441358 103.678875,123.439258 103.673654,123.437157 C103.678875,123.439258 103.684096,123.441358 103.689316,123.442409 M103.636064,123.425604 C103.629799,123.423503 103.623534,123.421403 103.617269,123.419302 C103.623534,123.421403 103.629799,123.423503 103.636064,123.425604 M103.581767,123.407748 C103.575502,123.405648 103.568193,123.403547 103.561928,123.401447 C103.568193,123.403547 103.575502,123.405648 103.581767,123.407748 M103.52747,123.390943 C103.521205,123.388843 103.513896,123.386742 103.507631,123.384642 C103.513896,123.386742 103.521205,123.388843 103.52747,123.390943 M103.473173,123.374138 C103.465864,123.372038 103.459599,123.369937 103.45229,123.367836 C103.459599,123.369937 103.466908,123.372038 103.473173,123.374138 M103.417832,123.357333 C103.411567,123.355233 103.405302,123.353132 103.399037,123.351031 C103.405302,123.353132 103.411567,123.355233 103.417832,123.357333 M103.360403,123.339478 C103.355182,123.337377 103.349961,123.336327 103.343696,123.334226 C103.349961,123.336327 103.355182,123.337377 103.360403,123.339478 M103.236146,123.301667 C103.229881,123.300616 103.22466,123.298516 103.218395,123.297465 C103.223616,123.298516 103.229881,123.300616 103.236146,123.301667 M103.180805,123.285912 C103.17454,123.283811 103.167231,123.282761 103.160966,123.28066 C103.167231,123.281711 103.17454,123.284862 103.180805,123.285912 M103.126508,123.270157 C103.120243,123.268057 103.11189,123.265956 103.104581,123.263855 C103.11189,123.265956 103.119199,123.268057 103.126508,123.270157 M103.072211,123.254403 C103.064902,123.252302 103.056549,123.250201 103.04924,123.248101 C103.056549,123.250201 103.064902,123.252302 103.072211,123.254403 M103.01687,123.239698 C103.009561,123.237597 103.002252,123.235497 102.994943,123.233396 C103.002252,123.235497 103.009561,123.237597 103.01687,123.239698 M102.960485,123.223943 C102.953176,123.221843 102.946911,123.219742 102.939602,123.217642 C102.946911,123.219742 102.953176,123.221843 102.960485,123.223943 M102.902011,123.207138 C102.895746,123.206088 102.89157,123.203987 102.885305,123.202937 C102.890526,123.203987 102.896791,123.206088 102.902011,123.207138 M102.829964,123.188233 L102.829964,123.188233 L86.1952749,118.719145 C85.9488505,118.652975 85.7034704,118.581553 85.4612227,118.505931 C85.02998,118.372541 84.6050024,118.224447 84.1883782,118.063748 C84.1946432,118.061648 84.2019524,118.059547 84.2082174,118.058497 L84.2875744,118.090006 C84.9088562,118.327377 85.542668,118.543742 86.1952749,118.719145 L102.829964,123.188233 M100.147488,111.342786 L100.147488,111.341736 C100.147488,111.341736 100.147488,111.341736 100.147488,111.342786 M100.148532,111.340686 L100.149577,111.340686 C100.149577,111.340686 100.149577,111.340686 100.148532,111.340686 M100.150621,111.340686 L100.150621,111.339635 C100.150621,111.339635 100.150621,111.339635 100.150621,111.340686 M100.151665,111.338585 L100.152709,111.338585 L100.151665,111.338585 M100.152709,111.337535 L100.153753,111.337535 L100.152709,111.337535 M100.153753,111.337535 L100.153753,111.337535 C100.153753,111.337535 100.153753,111.337535 100.152709,111.336484 L100.153753,111.337535 M100.152709,111.336484 C100.080661,111.140075 91.4558086,87.7789811 92.0614278,67.3461635 C92.1063271,67.6423522 96.5513633,96.602673 106.679822,109.062553 C106.679822,109.062553 101.250133,106.100667 96.0010851,97.5164465 C98.0445278,105.617522 100.118252,111.240906 100.152709,111.336484 M93.6402144,37.4500126 C93.6412586,31.8140252 92.6117059,23.8064277 87.7970333,17.1589874 C87.7845032,17.1411321 87.770929,17.1222264 87.7573548,17.1043711 C87.770929,17.1222264 87.7845032,17.1411321 87.7970333,17.1589874 C92.6117059,23.8064277 93.6412586,31.8140252 93.6402144,37.4500126 M87.7469131,17.0896667 C87.7364714,17.0760126 87.7270738,17.0623585 87.7166321,17.0487044 C87.7270738,17.0623585 87.7364714,17.0760126 87.7469131,17.0896667 M87.7061904,17.0329497 C87.6957487,17.0192956 87.6863511,17.0077421 87.6769536,16.9940881 C87.6863511,17.0066918 87.6957487,17.0203459 87.7061904,17.0329497 M87.6623352,16.9741321 C87.6529377,16.9615283 87.6456285,16.9510252 87.6362309,16.9384214 C87.6445843,16.9499748 87.6539818,16.9625786 87.6623352,16.9741321 M87.6205684,16.9174151 C87.612215,16.9058616 87.6038616,16.8943082 87.5955083,16.883805 C87.6038616,16.8943082 87.612215,16.9058616 87.6205684,16.9174151 M87.5798457,16.8617484 C87.5725365,16.8512453 87.563139,16.8386415 87.5558298,16.8291887 C87.563139,16.8396918 87.5714923,16.850195 87.5798457,16.8617484 M87.5370347,16.8029308 C87.5297255,16.793478 87.5224163,16.7840252 87.5151071,16.7745723 C87.5224163,16.7840252 87.5297255,16.793478 87.5370347,16.8029308 M87.4952678,16.7472642 C87.4879587,16.7378113 87.4816936,16.7283585 87.4743844,16.7189057 C87.4816936,16.7283585 87.4890028,16.7378113 87.4952678,16.7472642 M87.453501,16.6915975 C87.447236,16.6821447 87.440971,16.6737421 87.4347059,16.6653396 C87.440971,16.6737421 87.447236,16.6821447 87.453501,16.6915975 M87.4127783,16.6369811 C87.4065133,16.6275283 87.4002483,16.6180755 87.3929391,16.609673 C87.4002483,16.6191258 87.4065133,16.6275283 87.4127783,16.6369811 M87.3720557,16.5823648 C87.3657906,16.5729119 87.3584814,16.5634591 87.3522164,16.5550566 C87.3584814,16.5634591 87.3657906,16.5739623 87.3720557,16.5823648 M87.331333,16.5277484 C87.325068,16.5182956 87.3177588,16.5098931 87.3114937,16.5004403 C87.3188029,16.5098931 87.325068,16.5182956 87.331333,16.5277484 M87.2906103,16.4731321 C87.2833011,16.4636792 87.2780803,16.4552767 87.2707711,16.4458239 C87.2770361,16.4552767 87.2833011,16.4636792 87.2906103,16.4731321 M87.2498877,16.4185157 C87.2425785,16.4090629 87.2363134,16.4017107 87.2300484,16.3922579 C87.2363134,16.4006604 87.2425785,16.4101132 87.2498877,16.4185157 M87.2081208,16.3638994 C87.2018558,16.3544465 87.1945466,16.346044 87.1882816,16.3376415 C87.1955908,16.346044 87.2008116,16.3544465 87.2081208,16.3638994 M87.1673981,16.309283 C87.1611331,16.3008805 87.1538239,16.2914277 87.1475589,16.2830252 C87.1538239,16.292478 87.1600889,16.2998302 87.1673981,16.309283 M87.1256313,16.2546667 C87.1193663,16.2462642 87.1131013,16.2378616 87.1057921,16.2294591 C87.1120571,16.2378616 87.1193663,16.2462642 87.1256313,16.2546667 M87.0838645,16.2000503 C87.0786436,16.1926981 87.0702902,16.182195 87.0650694,16.1748428 C87.0713344,16.1832453 87.0775994,16.1916478 87.0838645,16.2000503 M87.0420976,16.145434 C87.0358326,16.1370314 87.0295676,16.1286289 87.0233025,16.1202264 C87.0295676,16.1286289 87.0358326,16.1370314 87.0420976,16.145434 M87.0013749,16.0918679 C86.9951099,16.0834654 86.9888449,16.0750629 86.9815357,16.0666604 C86.9878007,16.0750629 86.9951099,16.0834654 87.0013749,16.0918679 M86.9596081,16.0372516 C86.9522989,16.0288491 86.9470781,16.0214969 86.940813,16.0130943 C86.9470781,16.0214969 86.9533431,16.0288491 86.9596081,16.0372516 M86.9178413,15.9836855 C86.9115762,15.975283 86.9053112,15.9668805 86.898002,15.958478 C86.904267,15.9658302 86.9115762,15.975283 86.9178413,15.9836855 M86.8760744,15.9290692 C86.8698094,15.921717 86.8625002,15.9122642 86.8572793,15.9049119 C86.8635444,15.9133145 86.8698094,15.921717 86.8760744,15.9290692 M86.8343076,15.8755031 C86.8280426,15.8681509 86.8217775,15.8586981 86.8155125,15.8513459 C86.8217775,15.8597484 86.8280426,15.8671006 86.8343076,15.8755031 M86.7914966,15.8208868 C86.7852315,15.8135346 86.7800107,15.8061824 86.7737457,15.7977799 C86.7800107,15.8061824 86.7852315,15.8124843 86.7914966,15.8208868 M86.7497297,15.7662704 C86.7434647,15.7599686 86.7382438,15.751566 86.733023,15.7452642 C86.7382438,15.751566 86.7445089,15.7599686 86.7497297,15.7662704 M86.7069187,15.7127044 C86.7016979,15.7053522 86.6954328,15.698 86.690212,15.6916981 C86.696477,15.6990503 86.7016979,15.7053522 86.7069187,15.7127044 M86.6651519,15.6591384 C86.659931,15.6517862 86.653666,15.6454843 86.6484451,15.6381321 C86.6547102,15.6454843 86.659931,15.6517862 86.6651519,15.6591384 M86.6223409,15.604522 C86.61712,15.5992704 86.6118992,15.5919182 86.6077225,15.5856164 C86.6118992,15.5919182 86.61712,15.5982201 86.6223409,15.604522 M86.5795299,15.550956 C86.5753532,15.5446541 86.5701323,15.5394025 86.5659556,15.5331006 C86.5701323,15.5383522 86.5753532,15.5457044 86.5795299,15.550956 M86.5367188,15.4973899 C86.5325422,15.4910881 86.5283655,15.4858365 86.5241888,15.4805849 C86.5283655,15.4858365 86.5325422,15.4910881 86.5367188,15.4973899 M86.494952,15.4438239 C86.4897311,15.437522 86.4865986,15.4333208 86.4813778,15.4270189 C86.4865986,15.4322704 86.4907753,15.4385723 86.494952,15.4438239 M86.452141,15.3902579 C86.4479643,15.3850063 86.4437876,15.3797547 86.4396109,15.3745031 C86.4437876,15.3797547 86.4479643,15.3850063 86.452141,15.3902579 M86.40933,15.3366918 C86.4061975,15.3324906 86.4020208,15.327239 86.3978441,15.3219874 C86.4020208,15.3261887 86.4061975,15.3324906 86.40933,15.3366918 M86.3675631,15.2841761 C86.3633864,15.2789245 86.3592098,15.273673 86.3550331,15.2694717 C86.3592098,15.273673 86.3633864,15.2789245 86.3675631,15.2841761 M86.3247521,15.2306101 C86.3205754,15.2253585 86.3174429,15.2222075 86.3132662,15.216956 C86.3174429,15.2211572 86.3205754,15.2264088 86.3247521,15.2306101 M86.2808969,15.177044 C86.2788086,15.1738931 86.2746319,15.1696918 86.2725436,15.1654906 C86.2756761,15.1696918 86.2777644,15.1728428 86.2808969,15.177044 M86.2380859,15.123478 C86.2359976,15.1213774 86.2328651,15.1171761 86.2307767,15.1150755 C86.2339092,15.1182264 86.2359976,15.1213774 86.2380859,15.123478 M86.1952749,15.0699119 C86.1931866,15.0688616 86.1921424,15.066761 86.1910982,15.0646604 C86.1921424,15.066761 86.1931866,15.0688616 86.1952749,15.0699119 M86.1514197,15.0173962 C86.1514197,15.0163459 86.1503756,15.0152956 86.1493314,15.0142453 C86.1493314,15.0152956 86.1514197,15.0163459 86.1514197,15.0173962" id="Fill-104" fill="#BF8AB2"></path>
                <path d="M84.1883782,118.063748 C83.4752094,117.787516 82.7839681,117.472421 82.1146545,117.122667 L82.7505547,116.151126 L73.1232977,107.600516 L73.1139002,107.609969 C73.112856,107.607868 73.112856,107.605767 73.1118118,107.604717 C73.119121,107.601566 73.1232977,107.600516 73.1232977,107.600516 C73.1232977,107.600516 73.3540595,97.3336918 92.0582953,67.3482642 C92.0593395,67.3472138 92.0603836,67.3472138 92.0614278,67.3461635 C91.4558086,87.7789811 100.080661,111.140075 100.152709,111.336484 L100.153753,111.337535 L100.152709,111.337535 L100.152709,111.338585 L100.151665,111.338585 C100.151665,111.339635 100.150621,111.339635 100.150621,111.339635 C100.150621,111.339635 100.150621,111.339635 100.150621,111.340686 L100.149577,111.340686 C100.149577,111.340686 100.149577,111.340686 100.148532,111.340686 C100.148532,111.341736 100.148532,111.341736 100.147488,111.341736 C100.147488,111.341736 100.147488,111.341736 100.147488,111.342786 C99.9396983,111.496132 94.663502,115.369692 84.2071733,118.057447 L84.2082174,118.058497 C84.2019524,118.059547 84.1946432,118.061648 84.1883782,118.063748" id="Fill-105" fill="#F6BD56"></path>
                <path d="M73.1118118,107.604717 C72.0916567,105.363346 71.4693308,102.909811 71.324191,100.342843 L71.0213814,94.9757358 C78.0695359,89.0572138 84.5277338,79.2042138 88.521688,68.3681195 C88.6584744,68.3807233 88.7942166,68.3859748 88.931003,68.3859748 C89.99919,68.3870252 91.0621561,68.0194151 92.0582953,67.3482642 C73.3540595,97.3336918 73.1232977,107.600516 73.1232977,107.600516 C73.1232977,107.600516 73.119121,107.601566 73.1118118,107.604717" id="Fill-106" fill="#F2AD47"></path>
                <path d="M96.7716833,60.0611824 C96.7727275,60.0559308 96.7737717,60.0517296 96.7748159,60.0475283 C96.7737717,60.0517296 96.7727275,60.0559308 96.7716833,60.0611824 M96.7810809,60.026522 C96.9241323,59.525522 97.050477,59.007717 97.1559383,58.4752075 C97.4295111,57.1076981 97.5537674,55.7496415 97.5422816,54.4451509 C97.5537674,55.7496415 97.4295111,57.1076981 97.1569825,58.4752075 C97.050477,59.007717 96.9241323,59.525522 96.7810809,60.026522 M97.5422816,54.442 L97.5422816,54.4115409 L97.5422816,54.442 M97.5422816,54.4010377 C97.5422816,54.3936855 97.5412374,54.385283 97.5412374,54.3779308 C97.5412374,54.3863333 97.5422816,54.3936855 97.5422816,54.4010377 M97.5412374,54.3611258 L97.5412374,54.3453711 L97.5412374,54.3611258 M97.5412374,54.3222642 L97.5412374,54.3138616 L97.5412374,54.3222642" id="Fill-107" fill="#BF8AB2"></path>
                <path d="M88.931003,68.3859748 C88.7942166,68.3859748 88.6584744,68.3807233 88.521688,68.3681195 C91.1154088,61.3310126 92.6701795,53.8779811 92.6701795,46.8230189 C92.6701795,46.0636415 92.6555611,45.313717 92.6263243,44.5732453 C92.7641549,44.5564403 92.9040738,44.5469874 93.0471253,44.5469874 L93.0648762,44.5469874 L93.063832,44.5469874 C95.7640583,45.9123962 97.4629246,49.7649497 97.5401932,54.2844528 C97.5401932,54.2939057 97.5401932,54.3033585 97.5412374,54.3138616 L97.5412374,54.3222642 L97.5412374,54.3453711 L97.5412374,54.3611258 L97.5412374,54.3779308 C97.5412374,54.385283 97.5422816,54.3936855 97.5422816,54.4010377 L97.5422816,54.4115409 L97.5422816,54.442 L97.5422816,54.4451509 C97.5537674,55.7496415 97.4295111,57.1076981 97.1559383,58.4752075 C97.050477,59.007717 96.9241323,59.525522 96.7810809,60.026522 C96.7789925,60.0338742 96.7769042,60.0401761 96.7748159,60.0475283 C96.7737717,60.0517296 96.7727275,60.0559308 96.7716833,60.0611824 C95.811046,63.3906792 94.0693687,65.9870566 92.0572511,67.3430126 L92.0614278,67.3430126 L92.0614278,67.3461635 C92.0603836,67.3472138 92.0593395,67.3472138 92.0582953,67.3482642 C91.0621561,68.0194151 89.99919,68.3870252 88.931003,68.3859748" id="Fill-108" fill="#F4F0EA"></path>
                <path d="M86.1952749,118.719145 C77.8126698,116.46727 71.8159956,109.056252 71.324191,100.342843 L69.6984167,71.5054088 L43.0449068,71.5054088 L41.342908,101.553855 C40.8448384,110.356541 34.7291287,117.816925 26.2337531,119.986874 L13.1419367,123.331075 C4.25812949,125.600805 -1.34593647,134.419245 0.337267245,143.482409 L4.65387031,166.725868 L111.074738,166.725868 L115.427887,143.28495 C117.096473,134.303711 111.606221,125.545138 102.829964,123.188233 L86.1952749,118.719145" id="Fill-109" fill="#F7F3EE"></path>
                <path d="M92.6701795,46.8230189 C92.6701795,71.3793711 73.8416874,100.739862 57.8648263,100.739862 C41.8869211,100.739862 23.058429,71.3793711 23.058429,46.8230189 C23.058429,22.2666667 38.6416376,7.61162893 57.8648263,7.61162893 C77.086971,7.61162893 92.6701795,22.2666667 92.6701795,46.8230189" id="Fill-110" fill="#FFFFFF"></path>
                <path d="M46.8717937,6.30608805 C40.4689369,7.10537736 31.2384649,7.61162893 25.1989796,20.3981572 C18.8587731,33.8211761 21.6947416,44.7581006 21.6947416,44.7581006 C28.7898838,44.2329434 29.8089948,56.2044277 29.8089948,56.2044277 C29.8089948,56.2044277 33.2871285,52.1533648 33.4134732,47.8817358 C38.6708743,47.3555283 60.3875436,42.1921824 66.7402802,27.7503585 C82.2994728,27.8375346 83.8469342,49.6378616 83.7080595,52.4327484 L85.7964016,56.2044277 C85.7964016,56.2044277 87.8335793,44.5207296 93.0648762,44.5469874 C93.0648762,44.5469874 96.2099193,28.7733648 87.7970333,17.1589874 C77.4879326,2.9261761 59.2212045,-5.7578239 46.8717937,6.30608805" id="Fill-111" fill="#F9C866"></path>
                <path d="M102.829964,123.188233 L86.1952749,118.719145 C84.7584956,118.333679 83.3948082,117.792767 82.1146545,117.122667 L82.7505547,116.151126 L73.1232977,107.600516 L57.3510942,123.464465 L40.4480534,106.461975 L31.3251311,116.06395 L32.2429574,117.337981 C30.4323649,118.523786 28.4118939,119.430208 26.2337531,119.986874 L13.1419367,123.331075 C4.25812949,125.599755 -1.34593647,134.419245 0.337267245,143.482409 L4.65387031,166.725868 L111.074738,166.725868 L115.427887,143.28495 C117.096473,134.303711 111.606221,125.545138 102.829964,123.188233" id="Fill-112" fill="#FFFFFF"></path>
                <path d="M52.6439712,148.973453 L37.5034911,125.692182 L50.5556291,141.360774 L57.3458733,123.48022 L57.3469175,123.488623 L52.6439712,148.973453 M57.3490058,123.48022 L57.3469175,123.476019 L57.3510942,123.464465 L57.3490058,123.48022" id="Fill-113" fill="#E4E4DF"></path>
                <path d="M62.0498639,148.973453 L57.3469175,123.488623 L57.3490058,123.48022 L64.1382059,141.360774 L77.1913881,125.692182 L62.0498639,148.973453 M57.3458733,123.48022 L57.3427408,123.464465 L57.3469175,123.476019 L57.3458733,123.48022" id="Fill-114" fill="#E4E4DF"></path>
                <polyline id="Fill-115" fill="#CAC9C4" points="57.3469175 123.488623 57.3458733 123.48022 57.3469175 123.476019 57.3490058 123.48022 57.3469175 123.488623"></polyline>
                <path d="M32.2429574,117.337981 C30.4323649,118.523786 28.4118939,119.430208 26.2337531,119.986874 L13.1419367,123.331075 C4.25812949,125.599755 -1.34593647,134.419245 0.337267245,143.482409 L4.65387031,166.725868 L53.7862943,166.725868 L32.2429574,117.337981" id="Fill-116" fill="#CFB6AE"></path>
                <path d="M102.829964,123.188233 L86.1952749,118.719145 C84.7584956,118.333679 83.3948082,117.792767 82.1146545,117.122667 L61.1497884,166.725868 L111.074738,166.725868 L115.427887,143.28495 C117.096473,134.303711 111.606221,125.545138 102.829964,123.188233" id="Fill-117" fill="#CFB6AE"></path>
                <path d="M38.4056549,161.310447 C37.5891132,161.125591 36.7819689,160.930233 35.9748247,160.723321 L38.8953711,155.100987 L31.776213,156.501057 L18.7741952,128.416698 L32.820384,154.400428 L41.941218,152.824956 L38.4056549,161.310447" id="Fill-118" fill="#C3A59D"></path>
                <path d="M75.7086652,161.660201 L72.0269181,152.824956 L81.1477521,154.400428 L95.1939409,128.416698 L82.1919232,156.501057 L75.072765,155.100987 L78.1937923,161.108786 C77.3699413,161.304145 76.5408695,161.48795 75.7086652,161.660201" id="Fill-119" fill="#C3A59D"></path>
                <path d="M24.5035617,59.2356352 C20.5847878,59.0455283 17.9628743,58.4752075 17.9628743,58.4752075 C18.2458447,58.4993648 18.5329917,58.5109182 18.8305805,58.5109182 C20.427118,58.5109182 22.2210038,58.1716667 24.1527203,57.5656352 C24.2623582,58.1212516 24.3793054,58.6810692 24.5035617,59.2356352" id="Fill-120" fill="#FFFFFF"></path>
                <path d="M26.9991305,59.2965535 C26.123071,59.2965535 25.28669,59.2744969 24.5035617,59.2356352 C24.3793054,58.6810692 24.2623582,58.1212516 24.1527203,57.5656352 C25.9037951,57.0163208 27.7676404,56.2474906 29.700401,55.313761 C29.7808021,55.8693774 29.8089948,56.2044277 29.8089948,56.2044277 C29.8089948,56.2044277 30.2924459,55.6414591 30.9053743,54.7140314 C36.3789189,51.9180943 42.3139871,47.9163962 47.7301023,43.8810881 C54.8325537,40.9244528 62.490504,36.1381698 66.2077529,28.8699937 C65.6543423,30.7994214 62.0216712,41.8686855 48.814996,52.6071006 C42.0988879,58.0687358 33.4354008,59.2976038 26.9991305,59.2965535" id="Fill-121" fill="#FFFFFF"></path>
                <path d="M29.8089948,56.2044277 C29.8089948,56.2044277 29.7808021,55.8693774 29.700401,55.313761 C30.0992743,55.1205031 30.5012802,54.9198931 30.9053743,54.7140314 C30.2924459,55.6414591 29.8089948,56.2044277 29.8089948,56.2044277 M47.7301023,43.8810881 C57.9253883,36.2873145 66.2871099,28.5748553 66.2871099,28.5748553 C66.2871099,28.5748553 66.263094,28.6767358 66.2077529,28.8699937 C62.490504,36.1381698 54.8325537,40.9244528 47.7301023,43.8810881" id="Fill-122" fill="#F6BA53"></path>
                <path d="M92.0614278,67.3430126 C92.0614278,67.3430126 96.4991547,96.5386038 106.679822,109.061503 C106.679822,109.061503 93.6402144,101.971881 88.4381543,77.8146478 L92.0614278,67.3430126" id="Fill-123" fill="#F9C866"></path>
                <path d="M66.7402802,27.7503585 C66.7402802,27.7503585 48.2062443,63.6669119 15.0538138,58.5518805 C15.0538138,58.5518805 33.8812618,49.1935786 32.820384,38.690434 L66.7402802,27.7503585" id="Fill-124" fill="#F9C866"></path>
                <path d="M63.3467243,26.349239 C63.3467243,26.349239 75.7462553,34.6152138 78.8787685,45.517478 C78.8787685,45.517478 77.5735547,29.5737044 67.7364193,23.7129497 L63.3467243,26.349239" id="Fill-125" fill="#F9C866"></path>
            </g>
        </g>
    </g>
</svg>