<?xml version="1.0" encoding="UTF-8" standalone="no"?>
<svg width="280px" height="262px" viewBox="0 0 280 262" version="1.1" xmlns="http://www.w3.org/2000/svg" xmlns:xlink="http://www.w3.org/1999/xlink">
    <!-- Generator: Sketch 3.8.3 (29802) - http://www.bohemiancoding.com/sketch -->
    <title>Group 20</title>
    <desc>Created with Sketch.</desc>
    <defs>
        <rect id="path-1" x="0" y="0.419354839" width="270" height="252.580645" rx="3.60000014"></rect>
        <filter x="-50%" y="-50%" width="200%" height="200%" filterUnits="objectBoundingBox" id="filter-2">
            <feMorphology radius="0.5" operator="dilate" in="SourceAlpha" result="shadowSpreadOuter1"></feMorphology>
            <feOffset dx="0" dy="0" in="shadowSpreadOuter1" result="shadowOffsetOuter1"></feOffset>
            <feGaussianBlur stdDeviation="2" in="shadowOffsetOuter1" result="shadowBlurOuter1"></feGaussianBlur>
            <feComposite in="shadowBlurOuter1" in2="SourceAlpha" operator="out" result="shadowBlurOuter1"></feComposite>
            <feColorMatrix values="0 0 0 0 0   0 0 0 0 0   0 0 0 0 0  0 0 0 0.137737772 0" type="matrix" in="shadowBlurOuter1"></feColorMatrix>
        </filter>
    </defs>
    <g id="Page-1" stroke="none" stroke-width="1" fill="none" fill-rule="evenodd">
        <g id="Artboard-1" transform="translate(-233.000000, -1387.000000)">
            <g id="Group-20" transform="translate(238.000000, 1391.000000)">
                <g id="Combined-Shape">
                    <use fill="black" fill-opacity="1" filter="url(#filter-2)" xlink:href="#path-1"></use>
                    <use stroke="#E7E7E7" stroke-width="1" fill="#FFFFFF" fill-rule="evenodd" xlink:href="#path-1"></use>
                </g>
                <text id="SELECT-ANY-ONE" font-family="Roboto-Regular, Roboto" font-size="12.6000005" font-weight="normal" letter-spacing="0.900000036" fill="#9B9B9B">
                    <tspan x="78.9429177" y="30.1">SELECT ANY ONE</tspan>
                </text>
                <path d="M0,47.8 L270,47.8" id="Line" stroke="#E7E7E7" stroke-width="0.900000036" stroke-linecap="square"></path>
                <rect id="Rectangle-18-Copy" fill="#B9EBEB" x="24.5373626" y="70.3" width="42.7252747" height="42.3" rx="3.60000014"></rect>
                <path d="M57.134697,95.1323589 C57.134697,95.1323589 56.9188988,92.4680934 58.1717463,92.3341434 C59.4247629,92.1998586 59.1095215,97.6459307 56.3213947,98.0908121 L57.134697,95.1323589" id="Fill-49" fill="#D8A274"></path>
                <path d="M36.770852,92.8369582 C36.770852,92.8369582 36.0941993,93.0380507 36.195841,94.747755 C36.2974826,96.4574593 37.5630142,97.4932277 37.5630142,97.4932277 L37.5630142,96.0887619 C37.5630142,96.0887619 37.4486885,94.2784277 37.4148643,94.1443102 C37.3810401,94.0103602 36.770852,92.8369582 36.770852,92.8369582" id="Fill-50" fill="#D8A274"></path>
                <path d="M36.7546164,92.3341434 C36.7546164,92.3341434 36.7294174,105.60976 47.3701648,105.60976 C56.4111979,105.60976 57.4269379,93.2391431 57.4269379,93.2391431 C57.4269379,93.2391431 56.0555367,86.7522795 56.0555367,86.4503897 C56.0555367,86.1488347 53.4651122,84.7910841 53.1603564,84.6904541 C52.8557697,84.5899916 45.389252,84.7406854 45.0337599,84.6904541 C44.6780987,84.6402229 40.8180837,85.3945288 40.208403,85.3945288 C39.5988913,85.3945288 38.5831513,85.6962512 38.4815097,85.8973436 C38.379868,86.0984361 36.7546164,92.3341434 36.7546164,92.3341434" id="Fill-51" fill="#F8CA9B"></path>
                <path d="M57.134697,95.1323589 C57.134697,95.1323589 56.6139738,95.2822155 56.1400971,95.1323589 L55.0903638,91.4288089 L55.2938163,90.8255316 C55.2938163,90.8255316 54.7182979,87.7411654 53.4314571,86.8025107 C53.4314571,86.8025107 50.6544923,88.1100302 46.9301123,88.0094002 C43.2050558,87.9087703 39.7512692,86.9366282 39.7512692,86.9366282 C39.7512692,86.9366282 38.8031776,87.3389805 37.9227343,89.9873394 L37.9227343,91.4624638 C37.9227343,91.4624638 37.0108345,93.0378832 36.8741848,93.6749829 C36.8741848,93.6749829 36.0309481,91.8606302 36.7546164,87.7411654 L35.9589026,87.1042331 L36.7546164,87.0037706 L33.859436,84.6551248 L36.1855246,84.2882692 C36.1855246,84.2882692 33.9947327,83.0142373 33.3853902,82.1762126 C32.7758786,81.3381879 31.8956044,80.4999958 31.8956044,80.4999958 C31.8956044,80.4999958 39.1419267,79.9300386 39.7174451,79.7289461 C39.7174451,79.7289461 38.3205066,78.3881066 37.5630142,77.1810497 C37.5630142,77.1810497 44.9661115,78.6561741 46.1849657,79.0248714 C46.1849657,79.0248714 44.6611866,76.7788648 44.0516749,76.41 C44.0516749,76.41 50.1131364,78.7233165 53.905503,81.8073478 C53.905503,81.8073478 53.1940114,79.4272237 52.9230798,78.7231491 C52.9230798,78.7231491 56.5040453,83.5508745 57.134697,85.3275538 C57.134697,85.3275538 59.2470168,90.9912947 57.134697,95.1323589" id="Fill-52" fill="#674D55"></path>
                <path d="M43.0315378,94.6963517 C43.0315378,95.2333237 42.6828105,95.6686612 42.2527362,95.6686612 C41.8226618,95.6686612 41.4739345,95.2333237 41.4739345,94.6963517 C41.4739345,94.1593796 41.8226618,93.7242096 42.2527362,93.7242096 C42.6828105,93.7242096 43.0315378,94.1593796 43.0315378,94.6963517" id="Fill-53" fill="#37333B"></path>
                <path d="M51.5433916,94.6963517 C51.5433916,95.2333237 51.1944953,95.6686612 50.76459,95.6686612 C50.3345156,95.6686612 49.9859575,95.2333237 49.9859575,94.6963517 C49.9859575,94.1593796 50.3345156,93.7242096 50.76459,93.7242096 C51.1944953,93.7242096 51.5433916,94.1593796 51.5433916,94.6963517" id="Fill-54" fill="#37333B"></path>
                <path d="M42.7945995,91.543671 C42.7945995,91.543671 42.3743341,91.1413187 41.8338237,91.2419486 C41.2936516,91.3424111 40.8732171,91.9458559 40.8732171,91.9458559 C40.8732171,91.9458559 40.9532113,90.7893651 41.9540687,90.6887351 C41.9540687,90.6887351 42.3142962,90.6217601 42.7945995,90.8563401 L42.7945995,91.543671" id="Fill-55" fill="#674D55"></path>
                <path d="M49.7742181,90.5238092 L49.7742181,91.3785776 C49.7742181,91.3785776 51.0270656,90.4734105 52.1277043,91.7641862 C52.1277043,91.7641862 51.9415022,89.9034533 49.7742181,90.5238092" id="Fill-56" fill="#674D55"></path>
                <path d="M44.9845457,96.9771853 C44.9845457,96.9771853 44.0347629,98.1671636 45.4399882,99.1227294 C45.4399882,99.1227294 43.9970489,99.2168293 43.8308031,98.1840748 C43.6442627,97.0274166 44.9845457,96.9771853 44.9845457,96.9771853" id="Fill-57" fill="#D8A274"></path>
                <path d="M43.5099808,100.312875 C43.5099808,100.312875 43.5209736,100.613593 43.6517041,101.017954 C44.7068492,101.299082 47.7863713,101.936182 50.496026,100.708363 C50.7476779,99.9980927 50.76459,99.4077081 50.76459,99.4077081 C47.9284329,101.419135 43.5099808,100.312875 43.5099808,100.312875" id="Fill-58" fill="#FFF7ED"></path>
                <path d="M43.6517041,101.017955 C43.7687357,101.380457 43.9841957,101.82584 44.3726664,102.214295 C44.723254,101.855979 45.2289254,101.588079 45.7760314,101.387657 C44.8413003,101.304942 44.079749,101.132147 43.6517041,101.017955" id="Fill-59" fill="#8C2454"></path>
                <path d="M47.1371163,103.129007 C49.2397962,103.068729 50.1242984,101.757526 50.496026,100.708363 C48.8859953,101.438055 47.1452341,101.509049 45.7760314,101.387657 C45.2289254,101.588079 44.723254,101.855979 44.3726664,102.214295 C44.9025221,102.744235 45.7560752,103.168354 47.1371163,103.129007" id="Fill-60" fill="#CC6B74"></path>
                <path id="Fill-61" fill="#D8A274"></path>
                <path id="Fill-142" fill="#FFFFFF"></path>
                <path id="Fill-143" fill="#FFFFFF"></path>
                <rect id="Rectangle-18-Copy-3" fill="#A3C2FF" x="113.637363" y="70.3" width="42.7252747" height="42.3" rx="3.60000014"></rect>
                <path d="M143.519654,97.04656 L145.275577,96.1831086 C145.284731,96.1628114 145.293077,96.1425143 145.301423,96.1227657 L145.301423,91.6247543 L143.557077,92.4813486 L143.519654,97.04656" id="Fill-296" fill="#2A3238"></path>
                <path d="M125.063885,91.6247543 L125.063885,96.1704914 C128.187231,97.6946971 131.310846,99.2197257 134.434462,100.743931 C134.9705,100.943337 135.490115,100.906857 136.003,100.743931 L141.762923,97.9108343 L141.762923,93.3618057 L135.182923,96.5912457 L125.063885,91.6247543" id="Fill-297" fill="#2A3238"></path>
                <path d="M143.121731,91.2489829 L142.968538,91.1453029 L136.801538,87.6805257 C136.838154,87.5516114 136.858077,87.4150171 136.858077,87.2732114 C136.858077,86.4599543 136.210577,85.8000229 135.410962,85.8000229 C134.612962,85.8000229 133.964923,86.4599543 133.964923,87.2732114 C133.964923,88.0875657 134.612962,88.7466743 135.410962,88.7466743 C135.792462,88.7466743 136.138962,88.5974629 136.396885,88.3522514 L142.498192,91.7986514 L143.121731,91.2489829" id="Fill-298" fill="#FCE547"></path>
                <path d="M151.122731,87.2732114 L135.182923,79.3 L119.7,86.8985371 L119.7,87.6067429 L135.182923,95.20528 L141.762923,91.9308571 L141.762923,91.7221257 L136.441038,88.8681829 C136.137885,89.0722514 135.780885,89.1819657 135.410962,89.1819657 C134.377115,89.1819657 133.537923,88.3275657 133.537923,87.2732114 C133.537923,86.2191314 134.377115,85.3647314 135.410962,85.3647314 C136.446154,85.3647314 137.285346,86.2191314 137.285346,87.2732114 C137.285346,87.3302629 137.282923,87.38704 137.278077,87.4429943 L143.568115,91.0325714 L151.122731,87.2732114" id="Fill-299" fill="#2A3238"></path>
                <polyline id="Fill-300" fill="#FCE547" points="143.121731 91.2489829 143.238038 98.0356343 142.594846 98.0356343 142.498192 91.7986514 143.121731 91.2489829"></polyline>
                <path d="M142.917115,98.7320457 C143.387462,98.7320457 143.771385,98.3409143 143.771385,97.8617371 C143.771385,97.38256 143.387462,96.9906057 142.917115,96.9906057 C142.446769,96.9906057 142.062577,97.38256 142.062577,97.8617371 C142.062577,98.3409143 142.446769,98.7320457 142.917115,98.7320457" id="Fill-301" fill="#FCE547"></path>
                <polyline id="Fill-302" fill="#ED962D" points="142.134462 98.6514057 143.699231 98.6514057 144.481885 107.829829 141.350731 107.829829 142.134462 98.6514057"></polyline>
                <rect id="Rectangle-18" fill="#F3B52C" x="202.5" y="70.3" width="43.2" height="43.2" rx="3.60000014"></rect>
                <path d="M233.824816,103.477662 L214.88766,103.477662 C214.525045,103.477662 214.187044,103.37202 213.90283,103.189908 C213.938705,103.170549 213.963105,103.13269 213.963105,103.089093 C213.963105,103.025815 213.911839,102.974602 213.848615,102.974602 C213.792201,102.974602 213.745279,103.015411 213.735841,103.069144 C213.323515,102.734039 213.06,102.222775 213.06,101.650002 L213.06,93.34 L213.06,101.295431 C213.06,102.304821 213.87827,103.123145 214.88766,103.123145 L228.294325,103.123145 C228.301564,103.179398 228.349612,103.222888 228.407849,103.222888 C228.466087,103.222888 228.514189,103.179398 228.521428,103.123145 L233.824816,103.123145 C234.834207,103.123145 235.652423,102.304821 235.652423,101.295431 L235.652423,101.650002 C235.652423,102.659446 234.834207,103.477662 233.824816,103.477662 M217.104211,103.222888 C217.04104,103.222888 216.989774,103.2741 216.989774,103.337378 C216.989774,103.400602 217.04104,103.451868 217.104211,103.451868 C217.167435,103.451868 217.218701,103.400602 217.218701,103.337378 C217.218701,103.2741 217.167435,103.222888 217.104211,103.222888" id="Fill-195" fill="#DDA62D"></path>
                <path d="M213.06,88.54 L213.06,101.081687 C213.06,102.091078 213.87827,102.909401 214.88766,102.909401 L233.824816,102.909401 C234.834207,102.909401 235.652423,102.091078 235.652423,101.081687 L235.652423,88.54 L213.06,88.54" id="Fill-199" fill="#F4F1EF"></path>
                <path d="M235.625932,83.694314 C235.625932,82.6634198 234.782512,81.82 233.751725,81.82 L214.93426,81.82 C213.90342,81.82 213.06,82.6634198 213.06,83.694314 L213.06,89.7458299 L235.625932,89.7458299 L235.625932,83.694314" id="Fill-200" fill="#DA382F"></path>
                <text id="AUG" font-family="Gotham-Bold, Gotham" font-size="5.28000021" font-weight="bold" fill="#FFFFFF">
                    <tspan x="218.4948" y="87.26">AUG</tspan>
                </text>
                <text id="22" font-family="Gotham-Bold, Gotham" font-size="11.0400004" font-weight="bold" fill="#000000">
                    <tspan x="217.70208" y="100.42">22</tspan>
                </text>
                <text id="People" font-family="Roboto-Regular, Roboto" font-size="10.8000004" font-weight="normal" fill="#000000">
                    <tspan x="29.8019525" y="130.7">People</tspan>
                </text>
                <text id="Attendance" font-family="Roboto-Regular, Roboto" font-size="10.8000004" font-weight="normal" fill="#000000">
                    <tspan x="18.8094716" y="225.2">Attendance</tspan>
                </text>
                <text id="Events" font-family="Roboto-Regular, Roboto" font-size="10.8000004" font-weight="normal" fill="#000000">
                    <tspan x="208.026562" y="130.7">Events</tspan>
                </text>
                <g id="Rectangle-18-Copy-2-+-Group" transform="translate(24.300000, 164.800000)">
                    <rect id="Rectangle-18-Copy-2" fill="#34495E" x="0.237362637" y="0" width="42.7252747" height="42.3" rx="3.60000014"></rect>
                    <g id="Group" transform="translate(9.969231, 8.460000)">
                        <polyline id="Fill-30" fill="#C9D2B6" points="22.7562547 24.0634261 4.00761191 25.0070589 2.79176188 0.943557459 21.5403292 0 22.7562547 24.0634261"></polyline>
                        <polyline id="Fill-31" fill="#D2DABE" points="22.542119 24.5257919 3.84402975 26.1914758 1.69769304 2.19281097 20.3957446 0.527127072 22.542119 24.5257919"></polyline>
                        <polyline id="Fill-32" fill="#DDE4C6" points="22.5171818 24.1367721 4.00482014 27.2446757 0 3.4844982 18.5122862 0.376519337 22.5171818 24.1367721"></polyline>
                        <polyline id="Fill-33" fill="#69402B" points="17.3017933 5.2280463 2.81270009 7.66058713 2.48994979 5.74591099 16.9791939 3.31337017 17.3017933 5.2280463"></polyline>
                        <path d="M7.93435027,15.4445623 C8.0967629,16.4079247 7.44586739,17.3202311 6.48063458,17.482285 C5.51536405,17.6443389 4.60121294,16.9947678 4.43883803,16.0314054 C4.27646313,15.068043 4.92732091,14.1557367 5.89262917,13.9936451 C6.85786198,13.8316288 7.77197536,14.4811623 7.93435027,15.4445623" id="Fill-34" fill="#DA513D"></path>
                        <path d="M6.03953382,16.6778497 C5.95049925,16.6927976 5.85576798,16.6708465 5.78027723,16.6098127 L5.21370048,16.1514757 C5.07396148,16.0384069 5.05249509,15.8336934 5.16578781,15.6942683 C5.27908052,15.5547302 5.48416184,15.5333816 5.62393857,15.6464127 L5.94363303,15.9050814 L6.69574877,15.0243651 C6.81239915,14.8877262 7.01797091,14.8713853 7.15491815,14.9878803 C7.29182766,15.1043378 7.30820097,15.3095032 7.19151286,15.4460667 L6.23329719,16.568132 C6.18164959,16.628601 6.1124969,16.6655752 6.03953382,16.6778497" id="Fill-35" fill="#FFFFFF"></path>
                        <polyline id="Fill-36" fill="#69402B" points="18.0485519 13.3647421 9.24974846 14.8419404 9.16754239 14.3541596 17.9663081 12.8769613 18.0485519 13.3647421"></polyline>
                        <polyline id="Fill-37" fill="#69402B" points="15.708565 15.0591544 9.47610753 16.105464 9.39390146 15.6176456 15.6262835 14.5712983 15.708565 15.0591544"></polyline>
                        <path d="M7.17985668,10.9263397 C7.34219386,11.889702 6.6913738,12.8020084 5.72610327,12.9640247 C4.76079501,13.1260786 3.84668162,12.4765451 3.68430672,11.5131827 C3.52193181,10.5497827 4.17282732,9.63747633 5.13809785,9.4754224 C6.10333066,9.31336848 7.01748177,9.96293964 7.17985668,10.9263397" id="Fill-38" fill="#DA513D"></path>
                        <path d="M5.24726129,12.1595676 C5.15822673,12.1745154 5.06349545,12.1526773 4.9880047,12.0916058 L4.42142795,11.6331935 C4.28168895,11.5201624 4.26026029,11.3154112 4.37351528,11.1759861 C4.48680799,11.0364857 4.69188931,11.0150994 4.83166604,11.1281681 L5.15132277,11.3867993 L5.90347624,10.5061582 C6.02012662,10.3694817 6.22569838,10.3531784 6.36264562,10.4695982 C6.49955513,10.5860556 6.51592844,10.791221 6.39924034,10.9278222 L5.44102466,12.0499251 C5.38937706,12.1103565 5.32022437,12.1473307 5.24726129,12.1595676" id="Fill-39" fill="#FFFFFF"></path>
                        <polyline id="Fill-40" fill="#69402B" points="17.4826165 8.77120622 8.68385078 10.2484045 8.60164471 9.76062373 17.400335 8.28342541 17.4826165 8.77120622"></polyline>
                        <polyline id="Fill-41" fill="#69402B" points="12.0264575 10.992708 8.91020985 11.5158439 8.82800378 11.0280631 11.9441759 10.5048895 12.0264575 10.992708"></polyline>
                        <path d="M8.68888051,19.8498271 C8.85125541,20.8131894 8.20043536,21.7255335 7.23516482,21.8875497 C6.26985656,22.0496036 5.35574318,21.3999948 5.19336827,20.4367078 C5.03099336,19.4733077 5.68185115,18.5610014 6.64715941,18.3989098 C7.61239221,18.2369312 8.52654332,18.8865023 8.68888051,19.8498271" id="Fill-42" fill="#DA513D"></path>
                        <path d="M6.7563595,21.1207627 C6.6672872,21.1357105 6.57255593,21.113797 6.49706518,21.052688 L5.93048842,20.5943886 C5.79074942,20.4813575 5.76932077,20.2766063 5.88257575,20.1371435 C5.99586847,19.9977184 6.20094979,19.9762568 6.34072652,20.0892879 L6.66042098,20.3479567 L7.41253672,19.467278 C7.52918709,19.3306768 7.73479658,19.3143358 7.87170609,19.430718 C8.00861561,19.547213 8.02498891,19.7523784 7.90830081,19.8890549 L6.95008514,21.0110449 C6.89843754,21.0714763 6.82932257,21.1085634 6.7563595,21.1207627" id="Fill-43" fill="#FFFFFF"></path>
                        <polyline id="Fill-44" fill="#69402B" points="18.6899026 17.7700184 9.89109916 19.2472167 9.80889309 18.7594359 18.6076211 17.2822376 18.6899026 17.7700184"></polyline>
                        <polyline id="Fill-45" fill="#69402B" points="14.818823 19.7279189 10.117496 20.5172164 10.0352522 20.029398 14.7365792 19.2401381 14.818823 19.7279189"></polyline>
                        <polyline id="Fill-46" fill="#69402B" points="20.0294956 21.949383 16.3800215 22.5620929 16.2978531 22.0743121 19.9472518 21.4616022 20.0294956 21.949383"></polyline>
                    </g>
                </g>
                <text id="Academics" font-family="Lato-Regular, Lato" font-size="10.8000004" font-weight="normal" fill="#000000">
                    <tspan x="115.388999" y="130.8">Academics</tspan>
                </text>
                <ellipse id="Oval-7" fill="#007EE7" cx="108.9" cy="127" rx="2.7" ry="2.7"></ellipse>
                <rect id="Rectangle-18-Copy-3" fill="#836F95" x="113.637363" y="164.8" width="42.7252747" height="42.3" rx="3.60000014"></rect>
                <g id="Group" transform="translate(123.369231, 176.080000)">
                    <path d="M21.7878169,1.59717158 L1.39112833,1.59717158 C0.623055891,1.59717158 -5.68434189e-14,2.67048252 -5.68434189e-14,3.42828482 L-5.68434189e-14,18.0783539 C-5.68434189e-14,18.8368832 0.623055891,19.4519069 1.39112833,19.4519069 L10.3865714,19.4519069 C10.6269897,19.8619227 11.0748479,20.1386107 11.5892518,20.1386107 C12.1036557,20.1386107 12.5518084,19.8619227 12.7922267,19.4519069 L21.7878169,19.4519069 C22.5560366,19.4519069 23.1782092,18.8368832 23.1782092,18.0783539 L23.1782092,3.42828482 C23.1782092,2.67048252 22.5560366,1.59717158 21.7878169,1.59717158" id="Fill-34" fill="#303134"></path>
                    <path d="M10.1987124,0.224054748 L1.85488685,0.224054748 C1.4706298,0.224054748 1.15910185,0.531712014 1.15910185,0.910613165 L1.15910185,17.1626519 C1.15910185,17.541553 1.4706298,17.8493557 1.85488685,17.8493557 L10.1987124,17.8493557 C10.9667848,17.8493557 11.5892518,18.4645248 11.5892518,19.2224725 L11.5892518,1.59717158 C11.5892518,0.839369281 10.9667848,0.224054748 10.1987124,0.224054748" id="Fill-35" fill="#E3E1E0"></path>
                    <path d="M21.3242056,0.224054748 L12.9800857,0.224054748 C12.2120132,0.224054748 11.5892518,0.839369281 11.5892518,1.59717158 L11.5892518,19.2224725 C11.5892518,18.4645248 12.2120132,17.8493557 12.9800857,17.8493557 L21.3242056,17.8493557 C21.7078738,17.8493557 22.0192545,17.541553 22.0192545,17.1626519 L22.0192545,0.910613165 C22.0192545,0.531712014 21.7078738,0.224054748 21.3242056,0.224054748" id="Fill-36" fill="#E0A939"></path>
                    <polyline id="Fill-37" fill="#B7412F" points="4.24802804 0 4.24802804 10.2550483 5.50518169 9.84110683 6.8553815 10.2550483 6.8553815 0 4.24802804 0"></polyline>
                </g>
                <text id="Finance" font-family="Roboto-Regular, Roboto" font-size="10.8000004" font-weight="normal" fill="#000000">
                    <tspan x="205.221093" y="225.2">Finance</tspan>
                </text>
                <text id="Library" font-family="Lato-Regular, Lato" font-size="10.8000004" font-weight="normal" fill="#000000">
                    <tspan x="118.418399" y="225.3">Library</tspan>
                </text>
                <rect id="Rectangle-18-Copy-5" fill="#A3C6A2" x="202.5" y="164.8" width="43.2" height="43.2" rx="3.60000014"></rect>
                <path d="M217.087091,195.619511 C217.087091,196.036876 216.748802,196.375136 216.331466,196.375136 C215.91413,196.375136 215.575841,196.036876 215.575841,195.619511 C215.575841,195.202229 215.914184,194.863886 216.331466,194.863886 C216.748748,194.863886 217.087091,195.202229 217.087091,195.619511 L217.087091,195.619511 Z M217.774023,195.619511 C217.774023,194.822847 217.12813,194.176954 216.331466,194.176954 C215.534802,194.176954 214.888909,194.822847 214.888909,195.619511 C214.888909,196.416271 215.534761,197.062068 216.331466,197.062068 C217.128171,197.062068 217.774023,196.416271 217.774023,195.619511 L217.774023,195.619511 Z M223.177841,188.841829 C223.177841,189.259165 222.839581,189.597454 222.422216,189.597454 C222.004934,189.597454 221.666591,189.259111 221.666591,188.841829 C221.666591,188.424547 222.004934,188.086204 222.422216,188.086204 C222.839581,188.086204 223.177841,188.424493 223.177841,188.841829 L223.177841,188.841829 Z M223.864773,188.841829 C223.864773,188.045124 223.218976,187.399272 222.422216,187.399272 C221.625552,187.399272 220.979659,188.045165 220.979659,188.841829 C220.979659,189.638493 221.625552,190.284386 222.422216,190.284386 C223.218976,190.284386 223.864773,189.638534 223.864773,188.841829 L223.864773,188.841829 Z M227.642898,192.929074 C227.642898,193.34641 227.304638,193.684699 226.887273,193.684699 C226.469991,193.684699 226.131648,193.346355 226.131648,192.929074 C226.131648,192.511792 226.469991,192.173449 226.887273,192.173449 C227.304638,192.173449 227.642898,192.511737 227.642898,192.929074 L227.642898,192.929074 Z M228.32983,192.929074 C228.32983,192.132369 227.684033,191.486517 226.887273,191.486517 C226.090609,191.486517 225.444716,192.13241 225.444716,192.929074 C225.444716,193.725737 226.090609,194.37163 226.887273,194.37163 C227.684033,194.37163 228.32983,193.725778 228.32983,192.929074 L228.32983,192.929074 Z M234.924375,190.971318 C234.924375,191.388654 234.586115,191.726943 234.16875,191.726943 C233.751468,191.726943 233.413125,191.3886 233.413125,190.971318 C233.413125,190.554036 233.751468,190.215693 234.16875,190.215693 C234.586115,190.215693 234.924375,190.553982 234.924375,190.971318 L234.924375,190.971318 Z M235.611307,190.971318 C235.611307,190.174613 234.965511,189.528761 234.16875,189.528761 C233.372086,189.528761 232.726193,190.174654 232.726193,190.971318 C232.726193,191.767982 233.372086,192.413875 234.16875,192.413875 C234.965511,192.413875 235.611307,191.768023 235.611307,190.971318 L235.611307,190.971318 Z M217.026649,194.940608 L221.869518,189.857313 L221.372165,189.383483 L216.529295,194.466778 L217.026649,194.940608 L217.026649,194.940608 Z M216.529295,194.466778 L217.026649,194.940608 L221.869518,189.857313 L221.372165,189.383483 L216.529295,194.466778 L216.529295,194.466778 Z M222.845147,189.818781 L225.661568,192.875628 L226.166763,192.410167 L223.350342,189.353321 L222.845147,189.818781 L222.845147,189.818781 Z M223.350342,189.353321 L222.845147,189.818781 L225.661568,192.875628 L226.166763,192.410167 L223.350342,189.353321 L223.350342,189.353321 Z M228.000336,192.904538 L233.186671,191.427634 L232.998534,190.766968 L227.812199,192.243871 L228.000336,192.904538 L228.000336,192.904538 Z M227.812199,192.243871 L228.000336,192.904538 L233.186671,191.427634 L232.998534,190.766968 L227.812199,192.243871 L227.812199,192.243871 Z" id="Shape" fill="#314731"></path>
                <path d="M213.766875,190.765238 C213.766875,191.182574 213.428615,191.520863 213.01125,191.520863 C212.593968,191.520863 212.255625,191.18252 212.255625,190.765238 C212.255625,190.347956 212.593968,190.009613 213.01125,190.009613 C213.428615,190.009613 213.766875,190.347902 213.766875,190.765238 L213.766875,190.765238 Z M214.453807,190.765238 C214.453807,189.968534 213.808011,189.322681 213.01125,189.322681 C212.214586,189.322681 211.568693,189.968574 211.568693,190.765238 C211.568693,191.561902 212.214586,192.207795 213.01125,192.207795 C213.808011,192.207795 214.453807,191.561943 214.453807,190.765238 L214.453807,190.765238 Z M219.697432,182.728136 C219.697432,183.145418 219.359089,183.483761 218.941807,183.483761 C218.524525,183.483761 218.186182,183.145418 218.186182,182.728136 C218.186182,182.310854 218.524525,181.972511 218.941807,181.972511 C219.359089,181.972511 219.697432,182.310854 219.697432,182.728136 L219.697432,182.728136 Z M220.384364,182.728136 C220.384364,181.931472 219.738471,181.285579 218.941807,181.285579 C218.145143,181.285579 217.49925,181.931472 217.49925,182.728136 C217.49925,183.5248 218.145143,184.170693 218.941807,184.170693 C219.738471,184.170693 220.384364,183.5248 220.384364,182.728136 L220.384364,182.728136 Z M227.711591,184.651545 C227.711591,185.068881 227.373331,185.40717 226.955966,185.40717 C226.538684,185.40717 226.200341,185.068827 226.200341,184.651545 C226.200341,184.234263 226.538684,183.89592 226.955966,183.89592 C227.373331,183.89592 227.711591,184.234209 227.711591,184.651545 L227.711591,184.651545 Z M228.398523,184.651545 C228.398523,183.85484 227.752726,183.208988 226.955966,183.208988 C226.159302,183.208988 225.513409,183.854881 225.513409,184.651545 C225.513409,185.448209 226.159302,186.094102 226.955966,186.094102 C227.752726,186.094102 228.398523,185.44825 228.398523,184.651545 L228.398523,184.651545 Z M233.344432,178.01125 C233.344432,178.428586 233.006172,178.766875 232.588807,178.766875 C232.171525,178.766875 231.833182,178.428532 231.833182,178.01125 C231.833182,177.593885 232.171471,177.255625 232.588807,177.255625 C233.006226,177.255625 233.344432,177.593831 233.344432,178.01125 L233.344432,178.01125 Z M234.031364,178.01125 C234.031364,177.214449 233.385608,176.568693 232.588807,176.568693 C231.792102,176.568693 231.14625,177.214489 231.14625,178.01125 C231.14625,178.807914 231.792143,179.453807 232.588807,179.453807 C233.385567,179.453807 234.031364,178.807955 234.031364,178.01125 L234.031364,178.01125 Z M213.892126,190.067876 L218.563262,183.88549 L218.015182,183.471385 L213.344045,189.653771 L213.892126,190.067876 L213.892126,190.067876 Z M213.344045,189.653771 L213.892126,190.067876 L218.563262,183.88549 L218.015182,183.471385 L213.344045,189.653771 L213.344045,189.653771 Z M219.923249,182.912557 L225.968249,184.423807 L226.134854,183.757386 L220.089854,182.246136 L219.923249,182.912557 L219.923249,182.912557 Z M220.089854,182.246136 L219.923249,182.912557 L225.968249,184.423807 L226.134854,183.757386 L220.089854,182.246136 L220.089854,182.246136 Z M227.973023,184.093155 L231.991574,178.838127 L231.445904,178.42085 L227.427353,183.675879 L227.973023,184.093155 L227.973023,184.093155 Z M227.427353,183.675879 L227.973023,184.093155 L231.991574,178.838127 L231.445904,178.42085 L227.427353,183.675879 L227.427353,183.675879 Z" id="Shape" fill="#FFFFFF"></path>
            </g>
        </g>
    </g>
</svg>