<?xml version="1.0" encoding="UTF-8" standalone="no"?>
<svg width="412px" height="213px" viewBox="0 0 412 213" version="1.1" xmlns="http://www.w3.org/2000/svg" xmlns:xlink="http://www.w3.org/1999/xlink">
    <!-- Generator: Sketch 3.8.3 (29802) - http://www.bohemiancoding.com/sketch -->
    <title>Group 21</title>
    <desc>Created with Sketch.</desc>
    <defs>
        <path d="M181,201 L8.99860401,201 C4.02881224,201 0,196.962268 0,192.005787 L0,8.99421308 C0,4.02684636 4.02383422,0 8.99860401,0 L181,0 C181,9.9411255 189.058875,18 199,18 C208.941125,18 217,9.9411255 217,0 L391.001396,0 C395.971188,0 400,4.03773217 400,8.99421308 L400,192.005787 C400,196.973154 395.976166,201 391.001396,201 L217,201 C217,191.058875 208.941125,183 199,183 C189.058875,183 181,191.058875 181,201 Z" id="path-1"></path>
        <filter x="-50%" y="-50%" width="200%" height="200%" filterUnits="objectBoundingBox" id="filter-2">
            <feOffset dx="0" dy="2" in="SourceAlpha" result="shadowOffsetOuter1"></feOffset>
            <feGaussianBlur stdDeviation="3" in="shadowOffsetOuter1" result="shadowBlurOuter1"></feGaussianBlur>
            <feColorMatrix values="0 0 0 0 0   0 0 0 0 0   0 0 0 0 0  0 0 0 0.1 0" type="matrix" in="shadowBlurOuter1"></feColorMatrix>
        </filter>
    </defs>
    <g id="Page-1" stroke="none" stroke-width="1" fill="none" fill-rule="evenodd">
        <g id="Artboard-1" transform="translate(-478.000000, -851.000000)">
            <g id="Group-21" transform="translate(484.000000, 855.000000)">
                <g id="Combined-Shape-Copy">
                    <use fill="black" fill-opacity="1" filter="url(#filter-2)" xlink:href="#path-1"></use>
                    <use fill="#FFFFFF" fill-rule="evenodd" xlink:href="#path-1"></use>
                </g>
                <path d="M185.789062,63.2460938 L178.125,63.2460938 C179.320318,65.003915 180.093748,67.0663944 180.445312,69.4335938 L187.546875,69.4335938 L185.789062,75.8320312 L180.480469,75.8320312 C179.964841,79.6992381 178.417982,82.6581929 175.839844,84.7089844 C173.261706,86.7597759 169.617211,87.984373 164.90625,88.3828125 L181.289062,107.542969 L181.289062,108 L171.199219,108 L153.304688,87.1523438 L153.269531,81.7734375 L162.164062,81.7734375 C164.789076,81.7734375 166.869133,81.2285211 168.404297,80.1386719 C169.939461,79.0488227 170.964841,77.6132902 171.480469,75.8320312 L152.566406,75.8320312 L154.359375,69.4335938 L171.339844,69.4335938 C170.191401,65.8007631 167.085963,63.984375 162.023438,63.984375 L152.566406,63.984375 L154.464844,56.8125 L187.582031,56.8125 L185.789062,63.2460938 Z M244.113281,86.4492188 C244.113281,93.8086305 242.736342,99.3574032 239.982422,103.095703 C237.228502,106.834003 233.039091,108.703125 227.414062,108.703125 C221.882785,108.703125 217.716811,106.880878 214.916016,103.236328 C212.11522,99.5917787 210.679688,94.1953482 210.609375,87.046875 L210.609375,78.1875 C210.609375,70.8280882 211.986314,65.3086121 214.740234,61.6289062 C217.494154,57.9492004 221.695284,56.109375 227.34375,56.109375 C232.945341,56.109375 237.123033,57.9023258 239.876953,61.4882812 C242.630873,65.0742367 244.042968,70.4413705 244.113281,77.5898438 L244.113281,86.4492188 Z M235.570312,76.8867188 C235.570312,72.0820072 234.914069,68.5605581 233.601562,66.3222656 C232.289056,64.0839732 230.203139,62.9648438 227.34375,62.9648438 C224.554674,62.9648438 222.503913,64.02538 221.191406,66.1464844 C219.8789,68.2675887 219.1875,71.5781025 219.117188,76.078125 L219.117188,87.6796875 C219.117188,92.4609614 219.78515,96.0234258 221.121094,98.3671875 C222.457038,100.710949 224.554673,101.882812 227.414062,101.882812 C230.156264,101.882812 232.183587,100.798839 233.496094,98.6308594 C234.8086,96.4628798 235.5,93.0703356 235.570312,88.453125 L235.570312,76.8867188 Z" id="₹-0" fill="#323043"></path>
                <path d="M25,-5.55111512e-17 L25,201" id="Line-Copy-7" stroke="#D7D7D7" stroke-linecap="square" stroke-dasharray="7"></path>
                <path d="M374,-5.55111512e-17 L374,201" id="Line-Copy-6" stroke="#D7D7D7" stroke-linecap="square" stroke-dasharray="7"></path>
                <path d="M105.28,150 L97.408,150 L97.408,148.464 L103.504,139.952 L97.664,139.952 L97.664,138.544 L105.216,138.544 L105.216,140.08 L99.12,148.592 L105.28,148.592 L105.28,150 Z M110.176,150.256 C109.023994,150.256 108.07467,149.861337 107.328,149.072 C106.58133,148.282663 106.208,147.285339 106.208,146.08 C106.208,144.885327 106.570663,143.890671 107.296,143.096 C108.021337,142.301329 108.949328,141.904 110.08,141.904 C111.242672,141.904 112.167997,142.279996 112.856,143.032 C113.544003,143.784004 113.888,144.837327 113.888,146.192 L113.872,146.352 L107.712,146.352 C107.733333,147.120004 107.989331,147.738664 108.48,148.208 C108.970669,148.677336 109.55733,148.912 110.24,148.912 C111.178671,148.912 111.914664,148.442671 112.448,147.504 L113.76,148.144 C113.407998,148.805337 112.920003,149.322665 112.296,149.696 C111.671997,150.069335 110.965337,150.256 110.176,150.256 L110.176,150.256 Z M107.824,145.136 L112.32,145.136 C112.277333,144.591997 112.056002,144.141335 111.656,143.784 C111.255998,143.426665 110.720003,143.248 110.048,143.248 C109.493331,143.248 109.016002,143.418665 108.616,143.76 C108.215998,144.101335 107.952001,144.559997 107.824,145.136 L107.824,145.136 Z M116.704,150 L115.232,150 L115.232,142.16 L116.64,142.16 L116.64,143.44 L116.704,143.44 C116.853334,143.023998 117.159998,142.669335 117.624,142.376 C118.088002,142.082665 118.543998,141.936 118.992,141.936 C119.418669,141.936 119.781332,141.999999 120.08,142.128 L119.632,143.552 C119.450666,143.477333 119.162669,143.44 118.768,143.44 C118.213331,143.44 117.730669,143.663998 117.32,144.112 C116.909331,144.560002 116.704,145.082664 116.704,145.68 L116.704,150 Z M120.112,146.08 C120.112,144.874661 120.490663,143.877337 121.248,143.088 C122.016004,142.298663 122.981328,141.904 124.144,141.904 C125.306672,141.904 126.266663,142.298663 127.024,143.088 C127.792004,143.877337 128.176,144.874661 128.176,146.08 C128.176,147.296006 127.792004,148.293329 127.024,149.072 C126.266663,149.861337 125.306672,150.256 124.144,150.256 C122.981328,150.256 122.016004,149.861337 121.248,149.072 C120.490663,148.282663 120.112,147.285339 120.112,146.08 L120.112,146.08 Z M121.584,146.08 C121.584,146.922671 121.829331,147.605331 122.32,148.128 C122.810669,148.650669 123.418663,148.912 124.144,148.912 C124.869337,148.912 125.477331,148.650669 125.968,148.128 C126.458669,147.605331 126.704,146.922671 126.704,146.08 C126.704,145.247996 126.458669,144.570669 125.968,144.048 C125.466664,143.514664 124.85867,143.248 124.144,143.248 C123.42933,143.248 122.821336,143.514664 122.32,144.048 C121.829331,144.570669 121.584,145.247996 121.584,146.08 L121.584,146.08 Z M136.624,150.256 C135.461328,150.256 134.496004,149.861337 133.728,149.072 C132.970663,148.261329 132.592,147.264006 132.592,146.08 C132.592,144.874661 132.970663,143.877337 133.728,143.088 C134.496004,142.298663 135.461328,141.904 136.624,141.904 C137.424004,141.904 138.122664,142.103998 138.72,142.504 C139.317336,142.904002 139.765332,143.455996 140.064,144.16 L138.72,144.72 C138.303998,143.738662 137.573339,143.248 136.528,143.248 C135.855997,143.248 135.274669,143.519997 134.784,144.064 C134.303998,144.608003 134.064,145.279996 134.064,146.08 C134.064,146.880004 134.303998,147.551997 134.784,148.096 C135.274669,148.640003 135.855997,148.912 136.528,148.912 C137.605339,148.912 138.362664,148.421338 138.8,147.44 L140.112,148 C139.823999,148.704004 139.373336,149.255998 138.76,149.656 C138.146664,150.056002 137.434671,150.256 136.624,150.256 L136.624,150.256 Z M140.864,146.08 C140.864,144.874661 141.242663,143.877337 142,143.088 C142.768004,142.298663 143.733328,141.904 144.896,141.904 C146.058672,141.904 147.018663,142.298663 147.776,143.088 C148.544004,143.877337 148.928,144.874661 148.928,146.08 C148.928,147.296006 148.544004,148.293329 147.776,149.072 C147.018663,149.861337 146.058672,150.256 144.896,150.256 C143.733328,150.256 142.768004,149.861337 142,149.072 C141.242663,148.282663 140.864,147.285339 140.864,146.08 L140.864,146.08 Z M142.336,146.08 C142.336,146.922671 142.581331,147.605331 143.072,148.128 C143.562669,148.650669 144.170663,148.912 144.896,148.912 C145.621337,148.912 146.229331,148.650669 146.72,148.128 C147.210669,147.605331 147.456,146.922671 147.456,146.08 C147.456,145.247996 147.210669,144.570669 146.72,144.048 C146.218664,143.514664 145.61067,143.248 144.896,143.248 C144.18133,143.248 143.573336,143.514664 143.072,144.048 C142.581331,144.570669 142.336,145.247996 142.336,146.08 L142.336,146.08 Z M156.192,147.824 C156.192,148.50667 155.893336,149.082664 155.296,149.552 C154.698664,150.021336 153.946671,150.256 153.04,150.256 C152.250663,150.256 151.557336,150.050669 150.96,149.64 C150.362664,149.229331 149.936001,148.688003 149.68,148.016 L150.992,147.456 C151.184001,147.925336 151.463998,148.290665 151.832,148.552 C152.200002,148.813335 152.602664,148.944 153.04,148.944 C153.509336,148.944 153.901332,148.842668 154.216,148.64 C154.530668,148.437332 154.688,148.197335 154.688,147.92 C154.688,147.418664 154.304004,147.050668 153.536,146.816 L152.192,146.48 C150.666659,146.095998 149.904,145.360005 149.904,144.272 C149.904,143.55733 150.194664,142.984002 150.776,142.552 C151.357336,142.119998 152.101329,141.904 153.008,141.904 C153.701337,141.904 154.327997,142.069332 154.888,142.4 C155.448003,142.730668 155.839999,143.173331 156.064,143.728 L154.752,144.272 C154.602666,143.941332 154.360002,143.682668 154.024,143.496 C153.687998,143.309332 153.312002,143.216 152.896,143.216 C152.511998,143.216 152.168002,143.311999 151.864,143.504 C151.559998,143.696001 151.408,143.930665 151.408,144.208 C151.408,144.656002 151.829329,144.975999 152.672,145.168 L153.856,145.472 C155.413341,145.856002 156.192,146.639994 156.192,147.824 L156.192,147.824 Z M160.496,150.128 C159.855997,150.128 159.325335,149.930669 158.904,149.536 C158.482665,149.141331 158.266667,148.592004 158.256,147.888 L158.256,143.504 L156.88,143.504 L156.88,142.16 L158.256,142.16 L158.256,139.76 L159.728,139.76 L159.728,142.16 L161.648,142.16 L161.648,143.504 L159.728,143.504 L159.728,147.408 C159.728,147.930669 159.829332,148.285332 160.032,148.472 C160.234668,148.658668 160.463999,148.752 160.72,148.752 C160.837334,148.752 160.951999,148.738667 161.064,148.712 C161.176001,148.685333 161.28,148.650667 161.376,148.608 L161.84,149.92 C161.455998,150.058667 161.008003,150.128 160.496,150.128 L160.496,150.128 Z M164.592,146.448 L163.44,146.448 L163.28,142.16 L163.28,138.544 L164.752,138.544 L164.752,142.16 L164.592,146.448 Z M165.104,149.008 C165.104,149.306668 165.000001,149.562666 164.792,149.776 C164.583999,149.989334 164.325335,150.096 164.016,150.096 C163.717332,150.096 163.461334,149.989334 163.248,149.776 C163.034666,149.562666 162.928,149.306668 162.928,149.008 C162.928,148.698665 163.034666,148.440001 163.248,148.232 C163.461334,148.023999 163.717332,147.92 164.016,147.92 C164.325335,147.92 164.583999,148.023999 164.792,148.232 C165.000001,148.440001 165.104,148.698665 165.104,149.008 L165.104,149.008 Z M174.208,150.256 C172.93866,150.256 171.914671,149.840004 171.136,149.008 C170.357329,148.186663 169.968,147.098673 169.968,145.744 L169.968,138.544 L171.44,138.544 L171.44,145.808 C171.44,146.746671 171.685331,147.487997 172.176,148.032 C172.666669,148.576003 173.343996,148.848 174.208,148.848 C175.072004,148.848 175.749331,148.576003 176.24,148.032 C176.730669,147.487997 176.976,146.746671 176.976,145.808 L176.976,138.544 L178.448,138.544 L178.448,145.744 C178.448,147.130674 178.064004,148.229329 177.296,149.04 C176.527996,149.850671 175.498673,150.256 174.208,150.256 L174.208,150.256 Z M180.24,142.16 L181.648,142.16 L181.648,143.248 L181.712,143.248 C181.936001,142.863998 182.279998,142.544001 182.744,142.288 C183.208002,142.031999 183.690664,141.904 184.192,141.904 C185.152005,141.904 185.890664,142.178664 186.408,142.728 C186.925336,143.277336 187.184,144.058662 187.184,145.072 L187.184,150 L185.712,150 L185.712,145.168 C185.68,143.887994 185.034673,143.248 183.776,143.248 C183.18933,143.248 182.698669,143.485331 182.304,143.96 C181.909331,144.434669 181.712,145.002663 181.712,145.664 L181.712,150 L180.24,150 L180.24,142.16 Z M190.384,138.544 L190.384,150 L188.912,150 L188.912,138.544 L190.384,138.544 Z M194.08,139.456 C194.08,139.744001 193.978668,139.989332 193.776,140.192 C193.573332,140.394668 193.328001,140.496 193.04,140.496 C192.751999,140.496 192.506668,140.394668 192.304,140.192 C192.101332,139.989332 192,139.744001 192,139.456 C192,139.167999 192.101332,138.922668 192.304,138.72 C192.506668,138.517332 192.751999,138.416 193.04,138.416 C193.328001,138.416 193.573332,138.517332 193.776,138.72 C193.978668,138.922668 194.08,139.167999 194.08,139.456 L194.08,139.456 Z M193.776,142.16 L193.776,150 L192.304,150 L192.304,142.16 L193.776,142.16 Z M197.168,150 L195.696,150 L195.696,142.16 L197.104,142.16 L197.104,143.248 L197.168,143.248 C197.392001,142.863998 197.735998,142.544001 198.2,142.288 C198.664002,142.031999 199.125331,141.904 199.584,141.904 C200.160003,141.904 200.666664,142.037332 201.104,142.304 C201.541336,142.570668 201.861332,142.938664 202.064,143.408 C202.71467,142.405328 203.615994,141.904 204.768,141.904 C205.674671,141.904 206.373331,142.181331 206.864,142.736 C207.354669,143.290669 207.6,144.079995 207.6,145.104 L207.6,150 L206.128,150 L206.128,145.328 C206.128,144.591996 205.994668,144.061335 205.728,143.736 C205.461332,143.410665 205.013336,143.248 204.384,143.248 C203.818664,143.248 203.344002,143.487998 202.96,143.968 C202.575998,144.448002 202.384,145.01333 202.384,145.664 L202.384,150 L200.912,150 L200.912,145.328 C200.912,144.591996 200.778668,144.061335 200.512,143.736 C200.245332,143.410665 199.797336,143.248 199.168,143.248 C198.602664,143.248 198.128002,143.487998 197.744,143.968 C197.359998,144.448002 197.168,145.01333 197.168,145.664 L197.168,150 Z M211.232,139.456 C211.232,139.744001 211.130668,139.989332 210.928,140.192 C210.725332,140.394668 210.480001,140.496 210.192,140.496 C209.903999,140.496 209.658668,140.394668 209.456,140.192 C209.253332,139.989332 209.152,139.744001 209.152,139.456 C209.152,139.167999 209.253332,138.922668 209.456,138.72 C209.658668,138.517332 209.903999,138.416 210.192,138.416 C210.480001,138.416 210.725332,138.517332 210.928,138.72 C211.130668,138.922668 211.232,139.167999 211.232,139.456 L211.232,139.456 Z M210.928,142.16 L210.928,150 L209.456,150 L209.456,142.16 L210.928,142.16 Z M215.872,150.128 C215.231997,150.128 214.701335,149.930669 214.28,149.536 C213.858665,149.141331 213.642667,148.592004 213.632,147.888 L213.632,143.504 L212.256,143.504 L212.256,142.16 L213.632,142.16 L213.632,139.76 L215.104,139.76 L215.104,142.16 L217.024,142.16 L217.024,143.504 L215.104,143.504 L215.104,147.408 C215.104,147.930669 215.205332,148.285332 215.408,148.472 C215.610668,148.658668 215.839999,148.752 216.096,148.752 C216.213334,148.752 216.327999,148.738667 216.44,148.712 C216.552001,148.685333 216.656,148.650667 216.752,148.608 L217.216,149.92 C216.831998,150.058667 216.384003,150.128 215.872,150.128 L215.872,150.128 Z M221.872,150.256 C220.719994,150.256 219.77067,149.861337 219.024,149.072 C218.27733,148.282663 217.904,147.285339 217.904,146.08 C217.904,144.885327 218.266663,143.890671 218.992,143.096 C219.717337,142.301329 220.645328,141.904 221.776,141.904 C222.938672,141.904 223.863997,142.279996 224.552,143.032 C225.240003,143.784004 225.584,144.837327 225.584,146.192 L225.568,146.352 L219.408,146.352 C219.429333,147.120004 219.685331,147.738664 220.176,148.208 C220.666669,148.677336 221.25333,148.912 221.936,148.912 C222.874671,148.912 223.610664,148.442671 224.144,147.504 L225.456,148.144 C225.103998,148.805337 224.616003,149.322665 223.992,149.696 C223.367997,150.069335 222.661337,150.256 221.872,150.256 L221.872,150.256 Z M219.52,145.136 L224.016,145.136 C223.973333,144.591997 223.752002,144.141335 223.352,143.784 C222.951998,143.426665 222.416003,143.248 221.744,143.248 C221.189331,143.248 220.712002,143.418665 220.312,143.76 C219.911998,144.101335 219.648001,144.559997 219.52,145.136 L219.52,145.136 Z M230.528,148.912 C231.253337,148.912 231.845331,148.650669 232.304,148.128 C232.784002,147.605331 233.024,146.922671 233.024,146.08 C233.024,145.258663 232.784002,144.581336 232.304,144.048 C231.834664,143.514664 231.24267,143.248 230.528,143.248 C229.823996,143.248 229.232002,143.514664 228.752,144.048 C228.271998,144.581336 228.032,145.258663 228.032,146.08 C228.032,146.912004 228.271998,147.589331 228.752,148.112 C229.232002,148.645336 229.823996,148.912 230.528,148.912 L230.528,148.912 Z M230.288,150.256 C229.263995,150.256 228.384004,149.850671 227.648,149.04 C226.922663,148.218663 226.56,147.232006 226.56,146.08 C226.56,144.927994 226.922663,143.941337 227.648,143.12 C228.384004,142.309329 229.263995,141.904 230.288,141.904 C230.864003,141.904 231.389331,142.026665 231.864,142.272 C232.338669,142.517335 232.703999,142.842665 232.96,143.248 L233.024,143.248 L232.96,142.16 L232.96,138.544 L234.432,138.544 L234.432,150 L233.024,150 L233.024,148.912 L232.96,148.912 C232.703999,149.317335 232.338669,149.642665 231.864,149.888 C231.389331,150.133335 230.864003,150.256 230.288,150.256 L230.288,150.256 Z M245.744,147.824 C245.744,148.50667 245.445336,149.082664 244.848,149.552 C244.250664,150.021336 243.498671,150.256 242.592,150.256 C241.802663,150.256 241.109336,150.050669 240.512,149.64 C239.914664,149.229331 239.488001,148.688003 239.232,148.016 L240.544,147.456 C240.736001,147.925336 241.015998,148.290665 241.384,148.552 C241.752002,148.813335 242.154664,148.944 242.592,148.944 C243.061336,148.944 243.453332,148.842668 243.768,148.64 C244.082668,148.437332 244.24,148.197335 244.24,147.92 C244.24,147.418664 243.856004,147.050668 243.088,146.816 L241.744,146.48 C240.218659,146.095998 239.456,145.360005 239.456,144.272 C239.456,143.55733 239.746664,142.984002 240.328,142.552 C240.909336,142.119998 241.653329,141.904 242.56,141.904 C243.253337,141.904 243.879997,142.069332 244.44,142.4 C245.000003,142.730668 245.391999,143.173331 245.616,143.728 L244.304,144.272 C244.154666,143.941332 243.912002,143.682668 243.576,143.496 C243.239998,143.309332 242.864002,143.216 242.448,143.216 C242.063998,143.216 241.720002,143.311999 241.416,143.504 C241.111998,143.696001 240.96,143.930665 240.96,144.208 C240.96,144.656002 241.381329,144.975999 242.224,145.168 L243.408,145.472 C244.965341,145.856002 245.744,146.639994 245.744,147.824 L245.744,147.824 Z M250.048,150.128 C249.407997,150.128 248.877335,149.930669 248.456,149.536 C248.034665,149.141331 247.818667,148.592004 247.808,147.888 L247.808,143.504 L246.432,143.504 L246.432,142.16 L247.808,142.16 L247.808,139.76 L249.28,139.76 L249.28,142.16 L251.2,142.16 L251.2,143.504 L249.28,143.504 L249.28,147.408 C249.28,147.930669 249.381332,148.285332 249.584,148.472 C249.786668,148.658668 250.015999,148.752 250.272,148.752 C250.389334,148.752 250.503999,148.738667 250.616,148.712 C250.728001,148.685333 250.832,148.650667 250.928,148.608 L251.392,149.92 C251.007998,150.058667 250.560003,150.128 250.048,150.128 L250.048,150.128 Z M259.488,150 L258.08,150 L258.08,148.912 L258.016,148.912 C257.791999,149.296002 257.448002,149.615999 256.984,149.872 C256.519998,150.128001 256.037336,150.256 255.536,150.256 C254.575995,150.256 253.837336,149.981336 253.32,149.432 C252.802664,148.882664 252.544,148.101338 252.544,147.088 L252.544,142.16 L254.016,142.16 L254.016,146.992 C254.048,148.272006 254.693327,148.912 255.952,148.912 C256.53867,148.912 257.029331,148.674669 257.424,148.2 C257.818669,147.725331 258.016,147.157337 258.016,146.496 L258.016,142.16 L259.488,142.16 L259.488,150 Z M264.72,148.912 C265.445337,148.912 266.037331,148.650669 266.496,148.128 C266.976002,147.605331 267.216,146.922671 267.216,146.08 C267.216,145.258663 266.976002,144.581336 266.496,144.048 C266.026664,143.514664 265.43467,143.248 264.72,143.248 C264.015996,143.248 263.424002,143.514664 262.944,144.048 C262.463998,144.581336 262.224,145.258663 262.224,146.08 C262.224,146.912004 262.463998,147.589331 262.944,148.112 C263.424002,148.645336 264.015996,148.912 264.72,148.912 L264.72,148.912 Z M264.48,150.256 C263.455995,150.256 262.576004,149.850671 261.84,149.04 C261.114663,148.218663 260.752,147.232006 260.752,146.08 C260.752,144.927994 261.114663,143.941337 261.84,143.12 C262.576004,142.309329 263.455995,141.904 264.48,141.904 C265.056003,141.904 265.581331,142.026665 266.056,142.272 C266.530669,142.517335 266.895999,142.842665 267.152,143.248 L267.216,143.248 L267.152,142.16 L267.152,138.544 L268.624,138.544 L268.624,150 L267.216,150 L267.216,148.912 L267.152,148.912 C266.895999,149.317335 266.530669,149.642665 266.056,149.888 C265.581331,150.133335 265.056003,150.256 264.48,150.256 L264.48,150.256 Z M273.856,150.256 C272.703994,150.256 271.75467,149.861337 271.008,149.072 C270.26133,148.282663 269.888,147.285339 269.888,146.08 C269.888,144.885327 270.250663,143.890671 270.976,143.096 C271.701337,142.301329 272.629328,141.904 273.76,141.904 C274.922672,141.904 275.847997,142.279996 276.536,143.032 C277.224003,143.784004 277.568,144.837327 277.568,146.192 L277.552,146.352 L271.392,146.352 C271.413333,147.120004 271.669331,147.738664 272.16,148.208 C272.650669,148.677336 273.23733,148.912 273.92,148.912 C274.858671,148.912 275.594664,148.442671 276.128,147.504 L277.44,148.144 C277.087998,148.805337 276.600003,149.322665 275.976,149.696 C275.351997,150.069335 274.645337,150.256 273.856,150.256 L273.856,150.256 Z M271.504,145.136 L276,145.136 C275.957333,144.591997 275.736002,144.141335 275.336,143.784 C274.935998,143.426665 274.400003,143.248 273.728,143.248 C273.173331,143.248 272.696002,143.418665 272.296,143.76 C271.895998,144.101335 271.632001,144.559997 271.504,145.136 L271.504,145.136 Z M278.912,142.16 L280.32,142.16 L280.32,143.248 L280.384,143.248 C280.608001,142.863998 280.951998,142.544001 281.416,142.288 C281.880002,142.031999 282.362664,141.904 282.864,141.904 C283.824005,141.904 284.562664,142.178664 285.08,142.728 C285.597336,143.277336 285.856,144.058662 285.856,145.072 L285.856,150 L284.384,150 L284.384,145.168 C284.352,143.887994 283.706673,143.248 282.448,143.248 C281.86133,143.248 281.370669,143.485331 280.976,143.96 C280.581331,144.434669 280.384,145.002663 280.384,145.664 L280.384,150 L278.912,150 L278.912,142.16 Z M290.288,150.128 C289.647997,150.128 289.117335,149.930669 288.696,149.536 C288.274665,149.141331 288.058667,148.592004 288.048,147.888 L288.048,143.504 L286.672,143.504 L286.672,142.16 L288.048,142.16 L288.048,139.76 L289.52,139.76 L289.52,142.16 L291.44,142.16 L291.44,143.504 L289.52,143.504 L289.52,147.408 C289.52,147.930669 289.621332,148.285332 289.824,148.472 C290.026668,148.658668 290.255999,148.752 290.512,148.752 C290.629334,148.752 290.743999,148.738667 290.856,148.712 C290.968001,148.685333 291.072,148.650667 291.168,148.608 L291.632,149.92 C291.247998,150.058667 290.800003,150.128 290.288,150.128 L290.288,150.128 Z M299.008,147.824 C299.008,148.50667 298.709336,149.082664 298.112,149.552 C297.514664,150.021336 296.762671,150.256 295.856,150.256 C295.066663,150.256 294.373336,150.050669 293.776,149.64 C293.178664,149.229331 292.752001,148.688003 292.496,148.016 L293.808,147.456 C294.000001,147.925336 294.279998,148.290665 294.648,148.552 C295.016002,148.813335 295.418664,148.944 295.856,148.944 C296.325336,148.944 296.717332,148.842668 297.032,148.64 C297.346668,148.437332 297.504,148.197335 297.504,147.92 C297.504,147.418664 297.120004,147.050668 296.352,146.816 L295.008,146.48 C293.482659,146.095998 292.72,145.360005 292.72,144.272 C292.72,143.55733 293.010664,142.984002 293.592,142.552 C294.173336,142.119998 294.917329,141.904 295.824,141.904 C296.517337,141.904 297.143997,142.069332 297.704,142.4 C298.264003,142.730668 298.655999,143.173331 298.88,143.728 L297.568,144.272 C297.418666,143.941332 297.176002,143.682668 296.84,143.496 C296.503998,143.309332 296.128002,143.216 295.712,143.216 C295.327998,143.216 294.984002,143.311999 294.68,143.504 C294.375998,143.696001 294.224,143.930665 294.224,144.208 C294.224,144.656002 294.645329,144.975999 295.488,145.168 L296.672,145.472 C298.229341,145.856002 299.008,146.639994 299.008,147.824 L299.008,147.824 Z M301.824,146.448 L300.672,146.448 L300.512,142.16 L300.512,138.544 L301.984,138.544 L301.984,142.16 L301.824,146.448 Z M302.336,149.008 C302.336,149.306668 302.232001,149.562666 302.024,149.776 C301.815999,149.989334 301.557335,150.096 301.248,150.096 C300.949332,150.096 300.693334,149.989334 300.48,149.776 C300.266666,149.562666 300.16,149.306668 300.16,149.008 C300.16,148.698665 300.266666,148.440001 300.48,148.232 C300.693334,148.023999 300.949332,147.92 301.248,147.92 C301.557335,147.92 301.815999,148.023999 302.024,148.232 C302.232001,148.440001 302.336,148.698665 302.336,149.008 L302.336,149.008 Z" id="Zero-cost!-Unlimited" fill="#000000"></path>
            </g>
        </g>
    </g>
</svg>