<svg xmlns="http://www.w3.org/2000/svg" width="43" height="43" viewBox="0 0 43 43">
  <g fill="none" fill-rule="evenodd">
    <rect width="42.725" height="42.3" fill="#A3C2FF" rx="3.6"/>
    <path fill="#2A3238" d="M29.5196538 27.04656L31.2755769 26.1831086C31.2847308 26.1628114 31.2930769 26.1425143 31.3014231 26.1227657L31.3014231 21.6247543 29.5570769 22.4813486 29.5196538 27.04656M11.0638846 21.6247543L11.0638846 26.1704914C14.1872308 27.6946971 17.3108462 29.2197257 20.4344615 30.7439314 20.9705 30.9433371 21.4901154 30.9068571 22.003 30.7439314L27.7629231 27.9108343 27.7629231 23.3618057 21.1829231 26.5912457 11.0638846 21.6247543"/>
    <path fill="#FCE547" d="M29.1217308,21.2489829 L28.9685385,21.1453029 L22.8015385,17.6805257 C22.8381538,17.5516114 22.8580769,17.4150171 22.8580769,17.2732114 C22.8580769,16.4599543 22.2105769,15.8000229 21.4109615,15.8000229 C20.6129615,15.8000229 19.9649231,16.4599543 19.9649231,17.2732114 C19.9649231,18.0875657 20.6129615,18.7466743 21.4109615,18.7466743 C21.7924615,18.7466743 22.1389615,18.5974629 22.3968846,18.3522514 L28.4981923,21.7986514 L29.1217308,21.2489829"/>
    <path fill="#2A3238" d="M37.1227308,17.2732114 L21.1829231,9.3 L5.7,16.8985371 L5.7,17.6067429 L21.1829231,25.20528 L27.7629231,21.9308571 L27.7629231,21.7221257 L22.4410385,18.8681829 C22.1378846,19.0722514 21.7808846,19.1819657 21.4109615,19.1819657 C20.3771154,19.1819657 19.5379231,18.3275657 19.5379231,17.2732114 C19.5379231,16.2191314 20.3771154,15.3647314 21.4109615,15.3647314 C22.4461538,15.3647314 23.2853462,16.2191314 23.2853462,17.2732114 C23.2853462,17.3302629 23.2829231,17.38704 23.2780769,17.4429943 L29.5681154,21.0325714 L37.1227308,17.2732114"/>
    <polyline fill="#FCE547" points="29.122 21.249 29.238 28.036 28.595 28.036 28.498 21.799 29.122 21.249"/>
    <path fill="#FCE547" d="M28.9171154,28.7320457 C29.3874615,28.7320457 29.7713846,28.3409143 29.7713846,27.8617371 C29.7713846,27.38256 29.3874615,26.9906057 28.9171154,26.9906057 C28.4467692,26.9906057 28.0625769,27.38256 28.0625769,27.8617371 C28.0625769,28.3409143 28.4467692,28.7320457 28.9171154,28.7320457"/>
    <polyline fill="#ED962D" points="28.134 28.651 29.699 28.651 30.482 37.83 27.351 37.83 28.134 28.651"/>
  </g>
</svg>
