<svg xmlns="http://www.w3.org/2000/svg" width="160" height="160" viewBox="0 0 160 160" xmlns:xlink="http://www.w3.org/1999/xlink">
  <defs>
    <linearGradient id="a" x1="50%" x2="50%" y1="100%" y2="1.937%">
      <stop stop-color="#498FCA" offset="0%"/>
      <stop stop-color="#7CBFF8" offset="100%"/>
    </linearGradient>
    <path id="c" d="M108.928573,113.158985 L108.928573,115.854839 C108.928573,116.219901 108.796038,116.535821 108.53097,116.802599 C108.265905,117.069377 107.95201,117.202764 107.589285,117.202764 L51.339285,117.202764 C50.9765625,117.202764 50.6626675,117.069377 50.3976,116.802599 C50.1325325,116.535821 50,116.219901 50,115.854839 L50,113.158985 C50,112.793922 50.1325325,112.478002 50.3976,112.211225 C50.6626675,111.94445 50.9765625,111.81106 51.339285,111.81106 L107.589285,111.81106 C107.95201,111.81106 108.265905,111.94445 108.53097,112.211225 C108.796038,112.478002 108.928573,112.793922 108.928573,113.158985 Z M98.214285,68.6774194 C98.214285,70.8678003 97.87249,72.8896886 97.188895,74.7430868 C96.5053025,76.5964851 95.612445,78.1760883 94.5103225,79.4818913 C93.4082025,80.7876943 92.1875,82.0232923 90.848215,83.1886878 C89.5089275,84.3540833 88.1696425,85.4422512 86.8303575,86.4531966 C85.4910725,87.4641421 84.2703675,88.4750875 83.1682475,89.4860304 C82.0661275,90.4969758 81.17327,91.6413088 80.4896775,92.9190318 C79.8060825,94.1967523 79.464285,95.5517004 79.464285,96.983871 C79.464285,99.6797246 80.398995,102.824886 82.268415,106.419355 L82.101005,106.377232 L82.1428575,106.419355 C79.6316975,105.268002 77.3995525,104.102606 75.4464275,102.923171 C73.4933025,101.743735 71.561105,100.339645 69.6498325,98.7109017 C67.73856,97.082156 66.155135,95.3621478 64.8995525,93.5508721 C63.6439725,91.7395963 62.6325325,89.6264405 61.865235,87.2114045 C61.097935,84.796371 60.714285,82.2128449 60.714285,79.4608288 C60.714285,77.2704504 61.0560825,75.2485595 61.7396775,73.3951613 C62.42327,71.541763 63.3161275,69.9621624 64.4182475,68.6563568 C65.5203675,67.3505538 66.7410725,66.1149558 68.0803575,64.9495603 C69.4196425,63.7841674 70.7589275,62.6959969 72.098215,61.6850515 C73.4375,60.6741061 74.6582025,59.6631632 75.7603225,58.6522177 C76.862445,57.6412723 77.7553025,56.4969394 78.438895,55.2192188 C79.12249,53.9414958 79.464285,52.5865503 79.464285,51.1543772 C79.464285,48.5146886 78.5435275,45.3695273 76.70201,41.7188933 L76.8275675,41.7610158 L76.785715,41.7188933 C79.296875,42.8702488 81.5290175,44.0356417 83.4821425,45.2150772 C85.4352675,46.3945127 87.3674675,47.7986033 89.27874,49.4273465 C91.19001,51.0560921 92.7734375,52.7761028 94.0290175,54.5873786 C95.2845975,56.3986543 96.2960375,58.5118077 97.0633375,60.9268437 C97.830635,63.3418772 98.214285,65.9254032 98.214285,68.6774194 Z"/>
    <filter id="b" width="200%" height="200%" x="-50%" y="-50%" filterUnits="objectBoundingBox">
      <feOffset dy="2" in="SourceAlpha" result="shadowOffsetOuter1"/>
      <feGaussianBlur stdDeviation="2" in="shadowOffsetOuter1" result="shadowBlurOuter1"/>
      <feColorMatrix values="0 0 0 0 0 0 0 0 0 0 0 0 0 0 0 0 0 0 0.1 0" in="shadowBlurOuter1"/>
    </filter>
  </defs>
  <g fill="none" fill-rule="evenodd">
    <rect width="160" height="160" fill="url(#a)" rx="80"/>
    <use fill="black" filter="url(#b)" xlink:href="#c"/>
    <use fill="#FFFFFF" xlink:href="#c"/>
  </g>
</svg>
