<?xml version="1.0" encoding="UTF-8"?>
<svg width="17px" height="16px" viewBox="0 0 17 16" version="1.1" xmlns="http://www.w3.org/2000/svg" xmlns:xlink="http://www.w3.org/1999/xlink">
    <!-- Generator: Sketch 42 (36781) - http://www.bohemiancoding.com/sketch -->
    <title>Shape</title>
    <desc>Created with Sketch.</desc>
    <defs></defs>
    <g id="Page-1" stroke="none" stroke-width="1" fill="none" fill-rule="evenodd">
        <g id="Fee-Payments" transform="translate(-338.000000, -764.000000)" fill-rule="nonzero" fill="#000000">
            <path d="M346.5,764 L355,767.428572 L355,768.571429 L353.866667,768.571429 C353.866667,768.72619 353.806163,768.860119 353.685156,768.973214 C353.564149,769.08631 353.421007,769.142857 353.255729,769.142857 L339.744271,769.142857 C339.578993,769.142857 339.435851,769.08631 339.314844,768.973214 C339.193837,768.860119 339.133333,768.72619 339.133333,768.571429 L338,768.571429 L338,767.428572 L346.5,764 Z M340.266667,769.714286 L342.533334,769.714286 L342.533334,776.571429 L343.666667,776.571429 L343.666667,769.714286 L345.933333,769.714286 L345.933333,776.571429 L347.066667,776.571429 L347.066667,769.714286 L349.333333,769.714286 L349.333333,776.571429 L350.466667,776.571429 L350.466667,769.714286 L352.733333,769.714286 L352.733333,776.571429 L353.255729,776.571429 C353.421007,776.571429 353.564149,776.627977 353.685156,776.741071 C353.806163,776.854167 353.866667,776.988095 353.866667,777.142857 L353.866667,777.714286 L339.133333,777.714286 L339.133333,777.142857 C339.133333,776.988095 339.193837,776.854167 339.314844,776.741071 C339.435851,776.627977 339.578993,776.571429 339.744271,776.571429 L340.266667,776.571429 L340.266667,769.714286 Z M354.389062,778.285715 C354.55434,778.285715 354.697483,778.342262 354.81849,778.455357 C354.939497,778.568452 355,778.702381 355,778.857143 L355,780 L338,780 L338,778.857143 C338,778.702381 338.060503,778.568452 338.18151,778.455357 C338.302518,778.342262 338.44566,778.285715 338.610938,778.285715 L354.389062,778.285715 Z" id="Shape"></path>
        </g>
    </g>
</svg>