<?xml version="1.0" encoding="UTF-8"?>
<svg width="20px" height="16px" viewBox="0 0 20 16" version="1.1" xmlns="http://www.w3.org/2000/svg" xmlns:xlink="http://www.w3.org/1999/xlink">
    <!-- Generator: Sketch 42 (36781) - http://www.bohemiancoding.com/sketch -->
    <title>Wallet 2</title>
    <desc>Created with Sketch.</desc>
    <defs></defs>
    <g id="Page-1" stroke="none" stroke-width="1" fill="none" fill-rule="evenodd">
        <g id="Fee-Payments" transform="translate(-536.000000, -764.000000)" fill="#000000">
            <g id="Wallet-2" transform="translate(536.000000, 764.000000)">
                <path d="M0.84,4.19576098 C0.84,3.89386105 1.08726471,3.64912281 1.39306969,3.64912281 L17.9460942,3.64912281 C18.7048814,3.64912281 19.32,4.26160473 19.32,5.01807296 L19.32,14.6310498 C19.32,15.3871001 18.7051373,16 17.9460942,16 L2.21390582,16 C1.45511859,16 0.84,15.3875181 0.84,14.6310498 L0.84,4.19576098 Z M1.96,5.46650549 L1.96,14.1826173 C1.96,14.5636815 2.26316443,14.877193 2.6371367,14.877193 L17.5228633,14.877193 C17.8900859,14.877193 18.2,14.5662209 18.2,14.1826173 L18.2,5.46650549 C18.2,5.08544132 17.8968356,4.77192982 17.5228633,4.77192982 L2.6371367,4.77192982 C2.2699141,4.77192982 1.96,5.08290194 1.96,5.46650549 Z" id="Shape-1"></path>
                <path d="M14.56,11.7894737 C13.4775219,11.7894737 12.6,10.9097525 12.6,9.8245614 C12.6,8.73937032 13.4775219,7.85964912 14.56,7.85964912 C15.6424781,7.85964912 16.52,8.73937032 16.52,9.8245614 C16.52,10.9097525 15.6424781,11.7894737 14.56,11.7894737 Z M14.56,10.6666667 C15.0239192,10.6666667 15.4,10.2896433 15.4,9.8245614 C15.4,9.35947951 15.0239192,8.98245614 14.56,8.98245614 C14.0960808,8.98245614 13.72,9.35947951 13.72,9.8245614 C13.72,10.2896433 14.0960808,10.6666667 14.56,10.6666667 Z" id="Shape-3"></path>
                <path d="M0.84,3.81840549 C0.84,3.05916468 1.45467458,2.35132834 2.20406744,2.23873793 L15.1559326,0.292821591 C15.9092862,0.179636105 16.52,0.696191632 16.52,1.46066229 L16.52,4.21052632 L0.84,4.21052632 L0.84,3.81840549 Z M1.96,4.21052632 L15.4,4.21052632 L15.4,1.97272747 C15.4,1.6087784 15.093329,1.3486849 14.7150311,1.412469 L2.64496895,3.44757972 C2.26596535,3.51148281 1.96,3.85294665 1.96,4.21052632 Z" id="Shape-4"></path>
            </g>
        </g>
    </g>
</svg>