<?xml version="1.0" encoding="UTF-8" standalone="no"?>
<svg width="111px" height="163px" viewBox="0 0 111 163" version="1.1" xmlns="http://www.w3.org/2000/svg" xmlns:xlink="http://www.w3.org/1999/xlink">
    <!-- Generator: Sketch 39.1 (31720) - http://www.bohemiancoding.com/sketch -->
    <title>Group 9</title>
    <desc>Created with Sketch.</desc>
    <defs></defs>
    <g id="Page-1" stroke="none" stroke-width="1" fill="none" fill-rule="evenodd" opacity="0.1">
        <g id="Dashboard-Copy-7" transform="translate(-99.000000, -335.000000)">
            <g id="Group-9" transform="translate(99.000000, 335.000000)">
                <g id="Group-7">
                    <path d="M31.489,57.892 C32.753,63.054 30.675,68.032 26.848,69.012 C23.021,69.991 18.894,66.601 17.63,61.439 C16.366,56.277 18.444,51.299 22.271,50.319 C26.098,49.339 30.225,52.73 31.489,57.892" id="Fill-131" fill="#FFFFFF"></path>
                    <path d="M79.615,57.892 C78.351,63.054 80.429,68.032 84.256,69.012 C88.083,69.991 92.21,66.601 93.473,61.439 C94.737,56.277 92.66,51.298 88.833,50.319 C85.006,49.339 80.879,52.73 79.615,57.892" id="Fill-133" fill="#F7F3EE"></path>
                    <path d="M53.5,159.645 L53.5,7.932 C57.267,5.117 63.874,3.481 63.874,3.481 C61.374,5.311 60.874,8.65 60.874,8.65 C66.476,6.195 70.901,5.55 74.003,5.55 C77.431,5.55 79.245,6.337 79.245,6.337 C74.333,11.317 81.374,15.9 81.374,15.9 C85.374,15.65 86.501,12.9 86.501,12.9 C88.878,18.4 88.842,24.15 88.842,24.15 L93.801,24.15 C90.166,30.706 89.145,43.359 88.878,48.282 C88.879,48.406 88.885,48.526 88.885,48.65 C88.885,49.205 88.866,49.763 88.846,50.322 C88.841,50.321 88.837,50.32 88.833,50.319 C88.389,50.205 87.94,50.15 87.493,50.15 C84.086,50.15 80.732,53.329 79.615,57.892 C78.351,63.054 80.429,68.032 84.256,69.012 C84.475,69.068 84.695,69.11 84.916,69.138 C81.092,79.462 74.906,88.843 68.152,94.482 L68.443,99.606 C68.889,107.479 74.089,114.226 81.478,116.728 L81.478,116.727 C81.875,116.862 82.275,116.992 82.684,117.102 L98.403,121.3 C105.748,123.262 110.723,129.812 110.923,137.136 C95.85,151.105 75.672,159.645 53.5,159.645 M93.473,61.439 L93.473,61.439 C93.715,60.451 93.835,59.47 93.843,58.522 C93.835,59.47 93.715,60.451 93.473,61.439 M93.843,58.521 L93.843,58.493 L93.843,58.521 M93.843,58.489 L93.843,58.465 L93.843,58.489 M93.844,58.459 L93.844,58.435 L93.844,58.459 M93.844,58.431 L93.844,58.407 L93.844,58.431 M93.844,58.4 L93.844,58.378 L93.844,58.4 M93.843,58.368 L93.843,58.35 L93.843,58.368 M93.843,58.337 L93.843,58.321 L93.843,58.337 M93.843,58.307 L93.843,58.292 L93.843,58.307 M93.843,58.276 L93.843,58.264 L93.843,58.276 M93.842,58.246 L93.842,58.235 L93.842,58.246 M93.842,58.215 L93.842,58.207 L93.842,58.215 M93.841,58.184 L93.841,58.178 L93.841,58.184 M93.841,58.152 L93.841,58.15 L93.841,58.152" id="Fill-134" fill="#D6BB9C"></path>
                    <path d="M85.596,69.177 C85.37,69.177 85.143,69.163 84.917,69.134 C84.917,69.135 84.916,69.136 84.916,69.138 C84.695,69.11 84.475,69.068 84.256,69.012 C80.429,68.032 78.351,63.054 79.615,57.892 C80.732,53.329 84.086,50.15 87.493,50.15 C87.94,50.15 88.389,50.205 88.833,50.319 C88.837,50.32 88.841,50.321 88.846,50.322 L88.846,50.323 C91.836,51.097 93.756,54.314 93.841,58.15 L93.841,58.152 L93.841,58.178 L93.841,58.184 C93.841,58.192 93.842,58.199 93.842,58.207 L93.842,58.215 L93.842,58.235 L93.842,58.246 C93.842,58.252 93.843,58.258 93.843,58.264 L93.843,58.276 L93.843,58.292 L93.843,58.307 L93.843,58.321 L93.843,58.337 L93.843,58.35 L93.843,58.368 C93.843,58.372 93.844,58.375 93.844,58.378 L93.844,58.4 L93.844,58.407 L93.844,58.431 L93.844,58.435 L93.844,58.459 C93.843,58.461 93.843,58.463 93.843,58.465 L93.843,58.489 L93.843,58.493 L93.843,58.521 L93.843,58.522 C93.835,59.47 93.715,60.451 93.473,61.439 C92.356,66.002 89.003,69.177 85.596,69.177" id="Fill-135" fill="#F4F0EA"></path>
                    <path d="M68.442,99.606 L66.885,72.15 L41.359,72.15 L39.73,100.759 C39.252,109.14 33.395,116.243 25.259,118.309 L12.937,121.438 C4.308,123.63 -1.136,132.146 0.499,140.898 L4.592,162.809 L106.512,162.809 L110.64,140.707 C112.26,132.034 106.927,123.577 98.403,121.3 L82.684,117.102 C74.657,114.958 68.913,107.902 68.442,99.606 Z" id="Fill-136" fill="#F7F3EE"></path>
                    <path d="M88.885,48.65 C88.885,72.03 70.853,99.984 55.552,99.984 C40.25,99.984 22.219,72.03 22.219,48.65 C22.219,25.27 37.142,11.317 55.552,11.317 C73.961,11.317 88.885,25.27 88.885,48.65" id="Fill-137" fill="#FFFFFF"></path>
                    <path d="M88.842,24.15 C88.842,24.15 88.878,18.4 86.501,12.9 C86.501,12.9 85.374,15.65 81.374,15.9 C81.374,15.9 74.333,11.317 79.245,6.338 C79.245,6.338 72.667,3.481 60.874,8.65 C60.874,8.65 61.374,5.311 63.874,3.481 C63.874,3.481 56.123,5.396 52.624,8.65 C52.624,8.65 49.667,3.481 41.211,0.653 C41.211,0.653 41.765,10.535 38.015,12.119 C36.027,11.52 33.881,9.944 31.859,6.603 C31.859,6.603 28.915,11.521 27.284,17.006 C26.969,17.349 26.659,17.742 26.352,18.165 C24.168,17.788 21.223,17.883 17.26,19.087 C17.26,19.087 21.554,19.101 21.331,36.04 C21.288,36.911 21.267,37.806 21.264,38.723 L21.26,38.837 L21.266,38.829 C21.261,42.336 21.55,46.174 22.228,50.319 C22.228,50.319 24.291,50.15 26.194,53.317 C27.624,40.65 36.124,28.9 36.124,28.9 C36.124,28.9 38.322,25.199 42.984,25.813 C43.244,25.961 55.417,32.902 57.53,38.837 C57.53,38.837 59.394,32.671 57.53,30.171 C57.53,30.171 62.667,33.671 65.667,34.671 C65.667,34.671 64.041,31.393 64.333,30.004 C64.333,30.004 72.167,30.837 74.5,34.671 C74.5,34.671 74.165,31.463 75.749,30.15 C80.547,33.749 82.957,42.317 84.824,53.317 C85.457,50.15 88.79,50.319 88.79,50.319 C88.79,50.319 89.227,32.4 93.801,24.15 L88.842,24.15" id="Fill-139" fill="#4B4741"></path>
                </g>
                <path d="M98.25,120.953 L82.531,116.755 C79.457,115.934 76.723,114.388 74.487,112.333 C69.596,117.363 62.761,120.492 55.192,120.492 C47.251,120.492 40.116,117.052 35.189,111.583 C32.65,114.65 29.162,116.932 25.106,117.962 L12.784,121.091 C4.155,123.282 -1.289,131.799 0.346,140.551 L4.439,162.462 L106.359,162.462 L110.487,140.36 C112.107,131.687 106.774,123.229 98.25,120.953" id="Fill-207-Copy" fill="#CC614A"></path>
            </g>
        </g>
    </g>
</svg>