<svg xmlns="http://www.w3.org/2000/svg" width="160" height="160" viewBox="0 0 160 160" xmlns:xlink="http://www.w3.org/1999/xlink">
  <defs>
    <linearGradient id="a" x1="50%" x2="50%" y1="0%" y2="100%">
      <stop stop-color="#EEB78A" offset="0%"/>
      <stop stop-color="#F76B1C" offset="100%"/>
    </linearGradient>
    <path id="c" d="M68.7222228,76.545456 L92.2777772,76.545456 L92.2777772,67.6818187 C92.2777772,64.4195072 91.1276057,61.6342315 88.8272573,59.3259944 C86.5269116,57.0177545 83.7511582,55.8636374 80.5,55.8636374 C77.2488418,55.8636374 74.4730912,57.0177545 72.1727427,59.3259944 C69.872397,61.6342315 68.7222228,64.4195072 68.7222228,67.6818187 L68.7222228,76.545456 Z M107,80.977272 L107,107.568184 C107,108.799243 106.570602,109.845644 105.711806,110.707386 C104.853009,111.569129 103.810186,112 102.583333,112 L58.4166671,112 C57.1898141,112 56.1469908,111.569129 55.2881945,110.707386 C54.4293982,109.845644 54,108.799243 54,107.568184 L54,80.977272 C54,79.7462129 54.4293982,78.6998122 55.2881945,77.8380697 C56.1469908,76.9763273 57.1898141,76.545456 58.4166671,76.545456 L59.8888886,76.545456 L59.8888886,67.6818187 C59.8888886,62.0189382 61.9131938,57.156251 65.9618069,53.093749 C70.0104173,49.0312497 74.8564826,47 80.5,47 C86.1435202,47 90.9895827,49.0312497 95.0381958,53.093749 C99.0868062,57.156251 101.111111,62.0189382 101.111111,67.6818187 L101.111111,76.545456 L102.583333,76.545456 C103.810186,76.545456 104.853009,76.9763273 105.711806,77.8380697 C106.570602,78.6998122 107,79.7462129 107,80.977272 Z"/>
    <filter id="b" width="200%" height="200%" x="-50%" y="-50%" filterUnits="objectBoundingBox">
      <feOffset dy="2" in="SourceAlpha" result="shadowOffsetOuter1"/>
      <feGaussianBlur stdDeviation="2" in="shadowOffsetOuter1" result="shadowBlurOuter1"/>
      <feColorMatrix values="0 0 0 0 0 0 0 0 0 0 0 0 0 0 0 0 0 0 0.1 0" in="shadowBlurOuter1"/>
    </filter>
  </defs>
  <g fill="none" fill-rule="evenodd">
    <rect width="160" height="160" fill="url(#a)" rx="80"/>
    <use fill="black" filter="url(#b)" xlink:href="#c"/>
    <use fill="#FFFFFF" xlink:href="#c"/>
  </g>
</svg>
