<svg xmlns="http://www.w3.org/2000/svg" width="96" height="97" viewBox="0 0 96 97">
  <path fill="#B3B3B3" d="M648.224,257.368918 L642.08,250 L620,268.542701 L626.192,275.911619 L648.224,257.368918 Z M716,268.590864 L693.92,250 L687.728,257.368918 L709.808,275.959782 L716,268.590864 Z M668,260.306852 C644.144,260.306852 624.8,279.716485 624.8,303.653426 C624.8,327.590367 644.096,347 668,347 C691.856,347 711.2,327.590367 711.2,303.653426 C711.2,279.716485 691.856,260.306852 668,260.306852 Z M668,337.367428 C649.424,337.367428 634.4,322.292453 634.4,303.653426 C634.4,285.014399 649.424,269.939424 668,269.939424 C686.576,269.939424 701.6,285.014399 701.6,303.653426 C701.6,322.292453 686.576,337.367428 668,337.367428 Z M653.6,294.020854 L671.024,294.020854 L653.6,314.249255 L653.6,322.91857 L682.4,322.91857 L682.4,313.285998 L664.976,313.285998 L682.4,293.057597 L682.4,284.388282 L653.6,284.388282 L653.6,294.020854 Z" transform="translate(-620 -250)"/>
</svg>
